<svg width="26" height="26" viewBox="0 0 26 26" fill="none" xmlns="http://www.w3.org/2000/svg">
<path d="M24.032 12.8221L13.5736 2.37132C13.4983 2.29587 13.4089 2.23601 13.3104 2.19517C13.212 2.15432 13.1064 2.1333 12.9998 2.1333C12.8932 2.1333 12.7877 2.15432 12.6892 2.19517C12.5907 2.23601 12.5013 2.29587 12.426 2.37132L1.96758 12.8221C1.66289 13.1268 1.49023 13.5407 1.49023 13.9723C1.49023 14.8686 2.21895 15.5973 3.11523 15.5973H4.21719V23.0545C4.21719 23.5039 4.58027 23.867 5.02969 23.867H11.3748V18.1795H14.2186V23.867H20.9699C21.4193 23.867 21.7824 23.5039 21.7824 23.0545V15.5973H22.8844C23.316 15.5973 23.7299 15.4272 24.0346 15.12C24.6668 14.4852 24.6668 13.4569 24.032 12.8221Z" fill="white"/>
</svg>
