<svg width="60" height="97" viewBox="0 0 60 97" fill="none" xmlns="http://www.w3.org/2000/svg">
<path d="M26.7705 76.378V77.058C26.7705 77.67 26.7422 78.1233 26.6855 78.418C26.6288 78.7013 26.5042 78.979 26.3115 79.251C26.7195 79.6023 27.0028 80.0047 27.1615 80.458C27.3315 80.9 27.4165 81.5913 27.4165 82.532C27.4165 83.4953 27.3825 84.0847 27.3145 84.3C27.2578 84.5153 27.1898 84.7193 27.1105 84.912C27.0312 85.0933 26.9348 85.235 26.8215 85.337C26.7195 85.4277 26.5835 85.5353 26.4135 85.66C26.2435 85.7733 26.0508 85.8583 25.8355 85.915C25.3142 86.051 24.7305 86.119 24.0845 86.119L21.4155 85.983V73.743L23.7445 73.556C24.7645 73.556 25.4728 73.7033 25.8695 73.998C26.0282 74.1113 26.1528 74.2133 26.2435 74.304C26.3455 74.3947 26.4305 74.5363 26.4985 74.729C26.5665 74.9103 26.6175 75.0633 26.6515 75.188C26.7308 75.4147 26.7705 75.8113 26.7705 76.378ZM23.7275 78.724C24.4075 78.724 24.8325 78.6277 25.0025 78.435C25.1725 78.2423 25.2575 77.772 25.2575 77.024C25.2575 76.276 25.1612 75.7603 24.9685 75.477C24.7872 75.1823 24.3735 75.035 23.7275 75.035H22.9455L23.0645 75.392V78.384L22.9115 78.724H23.7275ZM24.0675 84.759C24.8722 84.759 25.3822 84.6117 25.5975 84.317C25.8242 84.011 25.9375 83.552 25.9375 82.94C25.9375 82.3167 25.9205 81.869 25.8865 81.597C25.8525 81.3137 25.7788 81.036 25.6655 80.764C25.4275 80.2087 24.8948 79.931 24.0675 79.931H22.8945L23.0475 80.288V84.402L22.8945 84.759H24.0675ZM34.7156 86C34.1376 86 33.7863 85.9547 33.6616 85.864C33.5483 85.7733 33.4406 85.473 33.3386 84.963L32.7606 82.09H30.6186L29.9216 86H29.5306C28.9866 86 28.641 85.9717 28.4936 85.915C28.3463 85.847 28.2726 85.6997 28.2726 85.473C28.2726 85.235 29.134 81.3307 30.8566 73.76H32.4886L35.2766 86H34.7156ZM31.5876 76.854L30.9586 80.169L30.8226 80.458H32.5736C32.5623 80.4467 32.534 80.3957 32.4886 80.305C32.4433 80.203 32.4206 80.1463 32.4206 80.135L31.7576 76.854H31.5876ZM37.0471 86H36.6391V73.743L39.0701 73.556C40.0901 73.556 40.7928 73.7033 41.1781 73.998C41.3255 74.1113 41.4501 74.2133 41.5521 74.304C41.6541 74.3947 41.7391 74.5307 41.8071 74.712L41.9431 75.188C42.0225 75.4033 42.0621 75.6867 42.0621 76.038V77.024C42.0621 78.656 41.8298 79.676 41.3651 80.084C41.1611 80.2653 40.8948 80.373 40.5661 80.407L43.2691 86H42.7081C42.1415 86 41.7561 85.949 41.5521 85.847C41.3481 85.7337 41.1611 85.4843 40.9911 85.099L38.9001 80.458H38.1011L38.2541 80.883L38.2711 84.963C38.2711 85.4843 38.2201 85.7903 38.1181 85.881C38.0161 85.9603 37.6591 86 37.0471 86ZM39.1041 78.945C39.7161 78.945 40.0845 78.8203 40.2091 78.571C40.3451 78.3217 40.4131 77.9137 40.4131 77.347C40.4131 76.7803 40.4075 76.4233 40.3961 76.276C40.3961 76.1173 40.3735 75.9417 40.3281 75.749C40.2828 75.545 40.2148 75.409 40.1241 75.341C39.8861 75.1597 39.5461 75.069 39.1041 75.069H38.1011L38.2541 75.494V78.554L38.1181 78.945H39.1041Z" fill="#3AAD95"/>
<circle cx="30" cy="30" r="29" fill="#3AAD95" stroke="#3AAD95" stroke-width="2"/>
<path d="M31.5882 27.7059C31.5882 28.2903 31.1139 28.7647 30.5294 28.7647C29.9449 28.7647 29.4706 28.2903 29.4706 27.7059C29.4706 27.1214 29.9449 26.6471 30.5294 26.6471C31.1139 26.6471 31.5882 27.1214 31.5882 27.7059ZM34.7647 24.5294C34.7647 25.1139 34.2903 25.5882 33.7059 25.5882C33.1214 25.5882 32.6471 25.1139 32.6471 24.5294C32.6471 23.945 33.1214 23.4706 33.7059 23.4706C34.2903 23.4706 34.7647 23.945 34.7647 24.5294ZM29.4706 24.5294C28.8861 24.5294 28.4118 24.0551 28.4118 23.4706C28.4118 22.8861 28.8861 22.4118 29.4706 22.4118C30.0564 22.4118 30.5294 22.8861 30.5294 23.4706C30.5294 24.0551 30.0564 24.5294 29.4706 24.5294ZM30.0007 33.3697C26.7209 33.3697 24.1765 29.7569 24.1765 26.6471C24.1765 24.5566 24.6671 20.4205 25.1877 18.8928C25.3766 18.3396 25.9788 18.0433 26.532 18.2336C27.0852 18.4225 27.3815 19.0246 27.1926 19.5765C27.1314 19.7572 27.0675 20.0046 27.0036 20.2941H34.7647V21.3529H26.8038C26.5279 23.0207 26.2941 25.2824 26.2941 26.6471C26.2941 28.4589 27.8857 31.2521 30.0007 31.2521C30.5851 31.2521 31.0595 31.7264 31.0595 32.3109C31.0595 32.8967 30.5851 33.3697 30.0007 33.3697ZM35.0297 43.5882H24.977C25.7409 42.8665 27.0267 41.9898 28.7475 41.4149C29.1784 41.2721 29.4706 40.8671 29.4706 40.4104V34.3932C25.8551 34.0344 23.1176 30.0791 23.1176 26.6471C23.1176 23.8892 23.906 19.4038 24.7514 17.1176H35.2499C36.1076 19.4161 36.8824 23.8349 36.8824 26.6471C36.8824 30.0791 34.1463 34.0344 30.5294 34.3932V40.4104C30.5294 40.8671 30.8216 41.2721 31.2539 41.4149C32.9773 41.9898 34.2672 42.8706 35.0297 43.5882ZM32.6471 39.671V36.0637C36.4148 34.6705 39 30.476 39 26.6471C39 23.1987 38.0064 17.9372 36.915 15.6089C36.7396 15.2365 36.3659 15 35.9567 15H24.0446C23.6341 15 23.2604 15.2365 23.0864 15.6089C22.033 17.8543 21 23.3224 21 26.6471C21 30.476 23.5866 34.6705 27.3529 36.0637V39.671C24.3749 40.8576 22.0588 42.9956 22.0588 44.6471C22.0588 45.2315 22.5332 45.7045 23.1176 45.7045H36.8824C37.4682 45.7045 37.9412 45.2315 37.9412 44.6471C37.9412 42.9956 35.6251 40.8576 32.6471 39.671Z" fill="white"/>
</svg>
