<svg width="60" height="98" viewBox="0 0 60 98" fill="none" xmlns="http://www.w3.org/2000/svg">
<path d="M26.4715 76.878V77.558C26.4715 78.17 26.4432 78.6233 26.3865 78.918C26.3298 79.2013 26.2052 79.479 26.0125 79.751C26.4205 80.1023 26.7038 80.5047 26.8625 80.958C27.0325 81.4 27.1175 82.0913 27.1175 83.032C27.1175 83.9953 27.0835 84.5847 27.0155 84.8C26.9588 85.0153 26.8908 85.2193 26.8115 85.412C26.7322 85.5933 26.6358 85.735 26.5225 85.837C26.4205 85.9277 26.2845 86.0353 26.1145 86.16C25.9445 86.2733 25.7518 86.3583 25.5365 86.415C25.0152 86.551 24.4315 86.619 23.7855 86.619L21.1165 86.483V74.243L23.4455 74.056C24.4655 74.056 25.1738 74.2033 25.5705 74.498C25.7292 74.6113 25.8538 74.7133 25.9445 74.804C26.0465 74.8947 26.1315 75.0363 26.1995 75.229C26.2675 75.4103 26.3185 75.5633 26.3525 75.688C26.4318 75.9147 26.4715 76.3113 26.4715 76.878ZM23.4285 79.224C24.1085 79.224 24.5335 79.1277 24.7035 78.935C24.8735 78.7423 24.9585 78.272 24.9585 77.524C24.9585 76.776 24.8622 76.2603 24.6695 75.977C24.4882 75.6823 24.0745 75.535 23.4285 75.535H22.6465L22.7655 75.892V78.884L22.6125 79.224H23.4285ZM23.7685 85.259C24.5732 85.259 25.0832 85.1117 25.2985 84.817C25.5252 84.511 25.6385 84.052 25.6385 83.44C25.6385 82.8167 25.6215 82.369 25.5875 82.097C25.5535 81.8137 25.4798 81.536 25.3665 81.264C25.1285 80.7087 24.5958 80.431 23.7685 80.431H22.5955L22.7485 80.788V84.902L22.5955 85.259H23.7685ZM28.6536 85.463V74.26H29.0106C29.634 74.26 29.9966 74.3053 30.0986 74.396C30.212 74.4753 30.2686 74.7757 30.2686 75.297V86.5H29.8776C29.2656 86.5 28.9086 86.4603 28.8066 86.381C28.7046 86.2903 28.6536 85.9843 28.6536 85.463ZM35.434 86.619C34.1533 86.619 33.2806 86.1317 32.816 85.157C32.3626 84.1823 32.136 82.573 32.136 80.329C32.136 78.085 32.3796 76.4813 32.867 75.518C33.3543 74.5433 34.21 74.056 35.434 74.056C36.6693 74.056 37.525 74.5377 38.001 75.501C38.477 76.4643 38.715 78.0737 38.715 80.329C38.715 82.5843 38.4883 84.1993 38.035 85.174C37.593 86.1373 36.726 86.619 35.434 86.619ZM33.751 80.278C33.751 81.8987 33.8756 83.1113 34.125 83.916C34.3743 84.7093 34.8106 85.106 35.434 85.106C36.0686 85.106 36.5106 84.7093 36.76 83.916C37.0093 83.1113 37.134 81.9043 37.134 80.295C37.134 77.1443 36.5673 75.569 35.434 75.569C34.312 75.569 33.751 77.1387 33.751 80.278Z" fill="#3AAD95"/>
<circle cx="30" cy="30.5" r="29" fill="white" stroke="#3AAD95" stroke-width="2"/>
<path d="M27.753 28.5787C27.6478 28.5165 27.6141 28.4151 27.6023 28.3011C27.46 28.1924 27.3711 28.0492 27.3306 27.8751C27.1013 27.6795 26.9118 27.4515 26.7657 27.1878C26.6877 27.1701 26.6407 27.122 26.6236 27.0446C26.5463 27.0278 26.498 26.9814 26.4795 26.9036C26.2136 26.7596 25.9862 26.5691 25.7919 26.3383C25.6171 26.2966 25.4738 26.2074 25.3688 26.0603C25.2542 26.0491 25.1536 26.0141 25.0961 25.9041C24.9806 25.9001 24.8781 25.8708 24.8162 25.7618C24.7008 25.7618 24.5948 25.7413 24.527 25.6351C24.3733 25.626 24.2236 25.6071 24.1163 25.4777C23.5841 25.3617 23.5799 25.3594 23.7704 24.9324C23.8219 24.8169 23.8398 24.6773 23.957 24.5976C24.0019 24.2966 24.0784 24.006 24.2422 23.7444L24.2424 23.744L24.2312 23.7602C24.4214 22.837 24.4932 21.9076 24.3815 20.9682C24.2491 20.8035 24.2498 20.6047 24.2422 20.4079C24.1199 20.2924 24.1086 20.1391 24.1018 19.9842C23.9566 19.8229 23.874 19.6311 23.8286 19.4212C23.6828 19.3167 23.5919 19.1741 23.5403 19.0043C23.3261 18.8464 23.1392 18.6611 22.9853 18.4434C22.9064 18.4347 22.8502 18.3974 22.8259 18.3203C22.6569 18.2731 22.5163 18.1843 22.4107 18.0427C22.2981 18.0287 22.1942 17.9992 22.136 17.8896C22.0224 17.8823 21.9168 17.8593 21.8538 17.7509C21.7012 17.7414 21.5574 17.7103 21.4522 17.5848L21.4463 17.5827C21.1327 17.5359 20.826 17.4674 20.5436 17.3152H20.5435L20.502 17.3372L20.4683 17.3047C19.9089 17.311 19.3493 17.3172 18.79 17.3235C18.6716 17.4481 18.5169 17.4468 18.3617 17.4428L18.3562 17.4447C18.2466 17.5665 18.1025 17.5973 17.9482 17.6013C17.8849 17.7101 17.78 17.7345 17.6653 17.7385C17.608 17.849 17.5064 17.8823 17.3925 17.8943C17.2897 18.0395 17.1491 18.1293 16.9796 18.1765C16.956 18.2543 16.9001 18.2922 16.8205 18.3004C16.6162 18.5635 16.3791 18.7933 16.1135 18.9944C16.1044 19.0744 16.0635 19.1272 15.986 19.1487C15.9761 19.2245 15.9394 19.2793 15.8665 19.3053C15.8443 19.4147 15.7961 19.5059 15.6879 19.555C15.6854 19.633 15.6555 19.6923 15.5828 19.723C15.5667 19.8331 15.532 19.9324 15.4272 19.991C15.419 20.1039 15.3926 20.2078 15.2895 20.2736C15.2773 20.4262 15.255 20.575 15.1323 20.6853C15.0878 21.0272 15.1028 21.3861 14.8505 21.6681H14.8507C14.8437 21.748 14.8077 21.806 14.7316 21.833C14.5469 22.388 14.4607 22.962 14.4394 23.5431C14.2812 27.8049 14.1383 32.0668 14.2725 36.3326C14.2888 36.8507 14.3486 37.349 14.5841 37.8153C14.6616 37.8343 14.7072 37.8832 14.7234 37.9609C15.8194 38.4253 16.4714 38.0252 16.5551 36.8122C16.7596 33.8431 16.713 30.8695 16.6892 27.897C16.6748 26.0712 16.6333 24.2448 16.377 22.4327C16.3304 22.1032 16.3863 21.8321 16.6508 21.619V21.6188C16.991 20.9612 17.5241 20.4709 18.0708 19.9949C19.1246 19.077 20.2839 18.9828 21.534 19.5523C22.1632 19.8388 22.4866 20.3073 22.6183 20.9918C22.9189 22.5547 21.4676 24.7804 20.0617 25.5215C19.4391 25.8497 18.8314 26.1886 18.2648 26.6033C18.1687 26.7632 18.0576 26.9158 17.9791 27.0838C17.5154 28.0733 18.2264 29.0888 19.3214 29.0131C19.6593 28.9897 19.9557 28.8555 20.239 28.689C20.6393 28.4541 21.0322 28.2069 21.4282 27.9649C21.5144 27.814 21.6554 27.7436 21.8196 27.7347C22.4402 27.7006 23.05 27.7288 23.5869 28.1019L23.5852 28.0967C23.7034 28.1015 23.8073 28.1327 23.8657 28.2472C24.05 28.2777 24.1916 28.3705 24.2846 28.5342C24.3663 28.5421 24.4209 28.5829 24.4426 28.6632C24.6437 28.7467 24.7831 28.8902 24.8585 29.0953C25.0232 29.1894 25.114 29.3329 25.1437 29.5182C25.2563 29.5835 25.2833 29.6906 25.2816 29.8118L25.2776 29.8101C25.6795 30.5533 25.7073 31.3708 25.649 32.1732C25.4911 34.3439 24.7276 36.2483 23.0289 37.6977C22.945 37.7694 22.843 37.8204 22.7484 37.8804C22.3439 38.3374 21.8662 38.7023 21.338 39.0043C21.0629 39.3163 20.7345 39.5547 20.3499 39.7149L20.3498 39.7151L20.3499 39.7145C19.865 40.1632 19.2643 40.4132 18.6731 40.6739C17.4743 41.2026 16.2124 41.5576 14.9767 41.9838C14.564 42.1262 14.1203 42.2137 13.6737 42.0822L13.6735 42.0824C13.6351 42.1159 13.6007 42.1119 13.571 42.0704C13.4075 42.0927 13.2572 42.0738 13.1463 41.9334L13.1423 41.9319C13.0264 41.9359 12.921 41.9157 12.8523 41.8105C12.6762 41.816 12.5 41.8215 12.3236 41.8271C11.9143 42.156 11.9802 42.5919 12.0586 43.0309C12.1858 43.1458 12.2709 43.2885 12.3306 43.4477C12.4073 43.4645 12.4555 43.5105 12.4731 43.5874C12.6358 43.6443 12.7783 43.7308 12.8841 43.8709C12.9985 43.8775 13.1056 43.8992 13.1686 44.0104C13.5259 44.114 13.8826 44.2193 14.2405 44.3214C16.5549 44.982 18.7574 44.572 20.8599 43.5419C22.9043 42.54 24.652 41.1255 26.161 39.4244C27.7115 37.676 28.288 35.5477 28.4773 33.2838C28.6037 31.7706 28.3643 30.3008 27.8904 28.8648C27.787 28.7973 27.7587 28.6934 27.753 28.5787Z" fill="#3AAD95"/>
<path d="M33.7967 28.4356L33.7963 28.432C33.6978 28.1085 33.5992 27.7849 33.5008 27.4612L33.4925 27.4504C33.1958 27.0533 32.8381 26.7887 32.3029 26.9076L32.2839 26.9209C31.7532 27.2786 31.6279 27.837 31.5649 28.4202C31.309 30.7905 31.2112 33.1681 31.317 35.55C31.3613 36.5478 31.4389 37.5474 31.7401 38.5115L31.7424 38.5197C31.8735 38.6319 31.9629 38.7714 32.0162 38.9346L32.0196 38.9428C32.0982 38.958 32.1425 39.0062 32.1553 39.0844L32.1577 39.0855C32.3185 39.1462 32.4593 39.236 32.5723 39.3669L32.5729 39.3673C33.0695 39.4874 33.5199 39.3945 33.9211 39.0743L33.9286 39.0632C34.4404 38.3534 34.436 37.5457 34.354 36.7283C34.0775 33.97 34.0983 31.192 33.7967 28.4356Z" fill="#3AAD95"/>
<path d="M43.6699 33.1068C43.5759 33.9086 43.602 34.6849 43.4473 35.4477C43.3478 35.9378 43.1612 36.3881 42.9092 36.8117C42.6096 37.3155 41.8991 37.2816 41.6257 36.7502C41.3751 36.2637 41.3009 35.7239 41.2254 35.1919C41.0406 33.8882 40.9883 32.5804 41.171 31.2704C41.2229 30.8978 41.3019 30.5301 41.4486 30.1843C41.7802 29.4033 42.6001 29.2886 43.1126 29.9551C43.4816 30.4349 43.6273 31.0065 43.6635 31.5969C43.6947 32.1098 43.6699 32.6262 43.6699 33.1068ZM44.9392 31.3035L44.939 31.2987C44.8049 31.0807 44.8094 30.836 44.8039 30.5932L44.8037 30.5911C44.6859 30.4692 44.6747 30.3158 44.6772 30.1587C44.5529 30.054 44.5267 29.9094 44.5147 29.7593L44.5143 29.7545C44.4087 29.6881 44.3844 29.5831 44.3787 29.4691L44.3651 29.459C44.2734 29.4023 44.2419 29.3112 44.2274 29.2104L44.2255 29.2007C44.1481 29.1716 44.1172 29.1116 44.1151 29.033L44.1111 29.0292C43.8775 28.8011 43.6437 28.5728 43.41 28.3447L43.4043 28.3393C43.2352 28.2969 43.0928 28.2122 42.9834 28.0751L42.9754 28.0663C42.8628 28.0575 42.7593 28.0303 42.6975 27.9225L42.6942 27.9223C42.5426 27.9131 42.398 27.8854 42.2859 27.7699H42.2846C41.5399 27.6949 40.7984 27.6681 40.0798 27.936L40.0724 27.9383C39.9557 28.0716 39.8129 28.1628 39.6414 28.2082L39.6323 28.2197C39.4744 28.428 39.2931 28.6127 39.0828 28.7691L39.0777 28.7779C38.6094 29.5618 38.2122 30.3723 38.0464 31.2835C37.6252 33.5977 37.7652 35.8453 38.8048 37.9921L38.81 38.0031C38.9728 38.1987 39.1309 38.3985 39.2997 38.5893C40.2573 39.6727 41.3981 39.9012 42.6815 39.271L42.6861 39.2689C42.7005 39.2003 42.7414 39.1599 42.8034 39.1424L42.8307 39.1346C42.8423 39.0549 42.8872 39.0058 42.9663 38.9891L42.977 38.9565C42.9987 38.8968 43.0432 38.8614 43.1117 38.8511L43.121 38.8399C43.278 38.6331 43.4667 38.459 43.6745 38.3045L43.6823 38.2984C43.6886 38.2204 43.7241 38.1643 43.8016 38.1401L43.8046 38.1342C44.0461 37.6772 44.2875 37.2204 44.529 36.7633L44.5322 36.7574C44.5746 36.4574 44.6701 36.1739 44.7953 35.8993L44.7959 35.8942C44.9576 34.3675 45.0073 32.8372 44.9392 31.3035Z" fill="#3AAD95"/>
<path d="M48.0172 19.8616C47.7242 20.2528 47.4352 20.6467 47.1379 21.0343C46.4782 21.894 45.809 22.7596 44.9943 23.466C44.408 23.9744 43.8494 24.5331 43.1351 24.9071C42.6328 25.1701 42.1911 25.5594 41.6629 25.7924C40.903 26.1276 40.0907 26.2793 39.276 26.3781C38.9054 26.4229 38.5129 26.3363 38.1361 26.2741C37.2214 26.1231 36.2949 26.0946 35.3764 25.9825C35.0321 25.9406 34.6833 26.0416 34.3311 26.0281C33.7587 26.0062 33.5713 25.7857 33.7133 25.2474C33.9991 24.1638 34.5407 23.2078 35.2321 22.342C35.8345 21.5879 36.3326 20.7671 36.8721 19.9721C37.2964 19.3471 37.8225 18.8192 38.5117 18.4561C39.1127 18.1398 39.6804 17.7776 40.3215 17.5208C41.4301 17.0767 42.5713 16.9209 43.7453 16.8828C45.5443 16.8245 47.3442 16.7936 49.1366 16.5963C49.8433 16.5187 49.9882 16.7769 49.7019 17.4564C49.3554 18.2793 48.7998 18.9472 48.1887 19.5782C48.0353 19.6143 48.0834 19.7727 48.0172 19.8616Z" fill="#3AAD95"/>
<path d="M33.9413 15.9329C34.4276 16.7566 34.4894 17.6824 34.5149 18.5961C34.5667 20.4449 34.0214 22.179 33.3714 23.8818C33.2415 24.2224 33.134 24.5636 33.0525 24.9186C32.9555 25.3402 32.6817 25.4161 32.3855 25.1083C32.2199 24.9363 32.0923 24.7249 31.9629 24.5215C31.4724 23.7502 30.819 23.0924 30.4828 22.2077C30.3241 21.7901 30.1946 21.3799 30.1866 20.9502C30.1704 20.0588 30.201 19.1661 30.3304 18.2812C30.351 18.1417 30.3561 17.9884 30.4646 17.874C30.5808 17.7134 30.5462 17.3719 30.9073 17.5057C31.261 17.7726 31.0091 18.1406 31.0462 18.4564C31.0768 18.7161 31.078 18.9856 31.1078 19.2491C31.1807 20.0602 31.4106 20.8488 31.492 21.4874C31.4528 20.8313 31.168 20.0391 31.1046 19.2139C31.0321 18.715 31.0314 18.2175 31.1223 17.7214C31.7795 17.1407 31.8729 17.8607 32.1471 18.1636C32.2013 18.2062 32.2538 18.2517 32.3065 18.2964C32.6106 18.4768 32.4888 18.793 32.5487 19.0527C32.5936 18.6845 32.4102 18.2654 32.7858 17.969C32.8608 17.9636 32.9287 17.9827 32.992 18.0222C33.379 18.3933 33.1414 18.88 33.2318 19.3058C33.2871 19.7871 33.1425 20.2478 33.0866 20.7173C33.1562 20.9143 33.138 21.1268 33.1914 21.3264C33.0004 21.534 33.039 21.8163 32.9509 22.0753C33.0419 21.8848 33.0183 21.6829 33.0935 21.5062C33.3362 21.2029 33.0841 20.8911 33.1085 20.584C33.1985 20.305 33.3246 20.0387 33.4005 19.7544C33.4569 19.5919 33.5179 19.3887 33.442 19.2618C33.0737 18.6461 33.2613 18.0123 33.3254 17.3791C33.3393 17.2429 33.4104 17.1002 33.301 16.9602C33.1949 17.0753 33.2742 17.229 33.2095 17.351C33.1397 17.4826 33.0754 17.6149 32.899 17.5978C32.7293 17.5816 32.6627 17.4461 32.6189 17.307C32.5308 17.0264 32.5036 16.7431 32.6214 16.4613C32.6507 16.3993 32.6884 16.3426 32.73 16.2889C32.7843 16.2149 32.9058 16.0962 32.8474 16.0549C32.1657 15.5747 32.4201 14.8075 32.2492 14.1728C32.2736 14.1058 32.3153 14.052 32.3727 14.0103C32.6315 13.888 32.7348 14.0434 32.8903 14.2316C33.321 14.7531 33.5459 15.3947 33.9413 15.9329Z" fill="#3AAD95"/>
<path d="M33.0563 19.3139C33.1126 18.8615 33.1959 18.4056 32.8852 18.0011L32.8888 18.0034C32.6974 18.3561 32.6038 18.7068 32.815 19.0963C32.9136 19.278 32.8171 19.4505 32.6099 19.4631C32.4349 19.4738 32.3951 19.3349 32.4065 19.1589C32.4244 18.8868 32.5285 18.5763 32.1968 18.3948L32.1972 18.3951C31.987 18.3352 31.8839 18.1887 31.8416 17.9798C31.7712 17.6329 31.5235 17.5924 31.2295 17.6432C31.1774 17.6286 31.1411 17.5958 31.1182 17.5485C31.1051 17.5018 31.1021 17.4535 31.1083 17.4058C31.1171 17.3601 31.1414 17.3228 31.1782 17.295C31.2141 17.2617 31.2212 17.2231 31.1958 17.1773C31.1915 17.0989 31.2071 17.0222 31.1983 16.9428C31.1962 16.8487 31.1861 16.7543 31.2655 16.6835C31.169 16.745 31.196 16.8437 31.1907 16.9331C31.1966 17.0266 31.1696 17.1126 31.1355 17.1965C31.0741 17.2947 31.0303 17.4042 30.9569 17.4961C30.9318 17.5106 30.9065 17.5245 30.881 17.5386C30.6631 17.5545 30.6481 17.7998 30.4903 17.8837C30.4382 17.4657 30.5364 17.0663 30.6642 16.6769C30.9858 15.6976 31.3129 14.72 31.6521 13.7468C31.8785 13.0974 32.1462 13.0302 32.5884 13.5892C33.1533 14.3039 33.7049 15.0429 33.9667 15.9426C33.8109 15.9257 33.6609 15.8526 33.6331 15.7063C33.5148 15.0862 32.9743 14.7255 32.7271 14.1876C32.6403 13.9987 32.4771 14.1174 32.3481 14.0988L32.3506 14.0929C32.428 14.5851 32.6906 15.0429 32.6249 15.5617C32.5991 15.7672 32.7223 15.803 32.8879 15.8028C33.061 15.8026 33.2635 15.8104 33.2813 16.0271C33.3 16.2512 33.0294 16.2073 32.9197 16.3247C32.8886 16.3578 32.8352 16.3703 32.7922 16.3922C32.7547 16.3561 32.8026 16.3937 32.7979 16.3856C32.6995 16.7638 32.7012 17.1308 32.8909 17.5121C33.1839 17.358 33.1354 17.1662 33.0593 16.955C32.9998 16.7891 33.0892 16.6664 33.2372 16.6101C33.4562 16.5269 33.4339 16.7528 33.512 16.8494C33.6356 17.003 33.5727 17.1658 33.546 17.3329C33.5042 17.5937 33.4488 17.8594 33.4608 18.1202C33.4739 18.4003 33.0793 18.8122 33.682 18.9351C33.5841 19.2264 33.7838 19.5567 33.5645 19.8322C33.0723 19.9759 33.3398 19.3748 33.0563 19.3139Z" fill="#3AAD95"/>
<path fill-rule="evenodd" clip-rule="evenodd" d="M31.7389 15.2686L31.0174 16.3124L30.6865 17.9601L30.99 20.3283L31.3717 21.9876L32.2027 23.1296L33.2235 22.6474L33.6716 21.1898L33.7635 19.6401L33.4467 17.6191L32.7695 15.8133L31.7389 15.2686Z" fill="#3AAD95"/>
</svg>
