<svg width="60" height="97" viewBox="0 0 60 97" fill="none" xmlns="http://www.w3.org/2000/svg">
<path d="M26.4715 76.378V77.058C26.4715 77.67 26.4432 78.1233 26.3865 78.418C26.3298 78.7013 26.2052 78.979 26.0125 79.251C26.4205 79.6023 26.7038 80.0047 26.8625 80.458C27.0325 80.9 27.1175 81.5913 27.1175 82.532C27.1175 83.4953 27.0835 84.0847 27.0155 84.3C26.9588 84.5153 26.8908 84.7193 26.8115 84.912C26.7322 85.0933 26.6358 85.235 26.5225 85.337C26.4205 85.4277 26.2845 85.5353 26.1145 85.66C25.9445 85.7733 25.7518 85.8583 25.5365 85.915C25.0152 86.051 24.4315 86.119 23.7855 86.119L21.1165 85.983V73.743L23.4455 73.556C24.4655 73.556 25.1738 73.7033 25.5705 73.998C25.7292 74.1113 25.8538 74.2133 25.9445 74.304C26.0465 74.3947 26.1315 74.5363 26.1995 74.729C26.2675 74.9103 26.3185 75.0633 26.3525 75.188C26.4318 75.4147 26.4715 75.8113 26.4715 76.378ZM23.4285 78.724C24.1085 78.724 24.5335 78.6277 24.7035 78.435C24.8735 78.2423 24.9585 77.772 24.9585 77.024C24.9585 76.276 24.8622 75.7603 24.6695 75.477C24.4882 75.1823 24.0745 75.035 23.4285 75.035H22.6465L22.7655 75.392V78.384L22.6125 78.724H23.4285ZM23.7685 84.759C24.5732 84.759 25.0832 84.6117 25.2985 84.317C25.5252 84.011 25.6385 83.552 25.6385 82.94C25.6385 82.3167 25.6215 81.869 25.5875 81.597C25.5535 81.3137 25.4798 81.036 25.3665 80.764C25.1285 80.2087 24.5958 79.931 23.7685 79.931H22.5955L22.7485 80.288V84.402L22.5955 84.759H23.7685ZM28.6536 84.963V73.76H29.0106C29.634 73.76 29.9966 73.8053 30.0986 73.896C30.212 73.9753 30.2686 74.2757 30.2686 74.797V86H29.8776C29.2656 86 28.9086 85.9603 28.8066 85.881C28.7046 85.7903 28.6536 85.4843 28.6536 84.963ZM35.434 86.119C34.1533 86.119 33.2806 85.6317 32.816 84.657C32.3626 83.6823 32.136 82.073 32.136 79.829C32.136 77.585 32.3796 75.9813 32.867 75.018C33.3543 74.0433 34.21 73.556 35.434 73.556C36.6693 73.556 37.525 74.0377 38.001 75.001C38.477 75.9643 38.715 77.5737 38.715 79.829C38.715 82.0843 38.4883 83.6993 38.035 84.674C37.593 85.6373 36.726 86.119 35.434 86.119ZM33.751 79.778C33.751 81.3987 33.8756 82.6113 34.125 83.416C34.3743 84.2093 34.8106 84.606 35.434 84.606C36.0686 84.606 36.5106 84.2093 36.76 83.416C37.0093 82.6113 37.134 81.4043 37.134 79.795C37.134 76.6443 36.5673 75.069 35.434 75.069C34.312 75.069 33.751 76.6387 33.751 79.778Z" fill="#3AAD95"/>
<circle cx="30" cy="30" r="29" fill="#3AAD95" stroke="#3AAD95" stroke-width="2"/>
<path d="M27.753 28.079C27.6478 28.0168 27.6141 27.9154 27.6023 27.8015C27.46 27.6928 27.3711 27.5495 27.3306 27.3754C27.1013 27.1799 26.9118 26.9519 26.7657 26.6882C26.6877 26.6705 26.6407 26.6224 26.6236 26.5449C26.5463 26.5282 26.498 26.4818 26.4795 26.4039C26.2136 26.2599 25.9862 26.0695 25.7919 25.8387C25.6171 25.797 25.4738 25.7078 25.3688 25.5607C25.2542 25.5495 25.1536 25.5145 25.0961 25.4045C24.9806 25.4005 24.8781 25.3712 24.8162 25.2622C24.7008 25.2622 24.5948 25.2416 24.527 25.1354C24.3733 25.1263 24.2236 25.1075 24.1163 24.9781C23.5841 24.862 23.5799 24.8598 23.7704 24.4328C23.8219 24.3173 23.8398 24.1777 23.957 24.0979C24.0019 23.7969 24.0784 23.5064 24.2422 23.2448L24.2424 23.2444L24.2312 23.2606C24.4214 22.3374 24.4932 21.408 24.3815 20.4686C24.2491 20.3038 24.2498 20.105 24.2422 19.9083C24.1199 19.7928 24.1086 19.6394 24.1018 19.4846C23.9566 19.3232 23.874 19.1314 23.8286 18.9216C23.6828 18.8171 23.5919 18.6744 23.5403 18.5047C23.3261 18.3468 23.1392 18.1615 22.9853 17.9438C22.9064 17.935 22.8502 17.8978 22.8259 17.8207C22.6569 17.7735 22.5163 17.6847 22.4107 17.5431C22.2981 17.529 22.1942 17.4995 22.136 17.3899C22.0224 17.3827 21.9168 17.3597 21.8538 17.2512C21.7012 17.2417 21.5574 17.2107 21.4522 17.0851L21.4463 17.083C21.1327 17.0362 20.826 16.9677 20.5436 16.8155H20.5435L20.502 16.8376L20.4683 16.8051C19.9089 16.8113 19.3493 16.8176 18.79 16.8239C18.6716 16.9485 18.5169 16.9472 18.3617 16.9432L18.3562 16.9451C18.2466 17.0669 18.1025 17.0977 17.9482 17.1017C17.8849 17.2105 17.78 17.2349 17.6653 17.2389C17.608 17.3494 17.5064 17.3827 17.3925 17.3947C17.2897 17.5399 17.1491 17.6297 16.9796 17.6769C16.956 17.7547 16.9001 17.7925 16.8205 17.8007C16.6162 18.0639 16.3791 18.2937 16.1135 18.4948C16.1044 18.5747 16.0635 18.6276 15.986 18.6491C15.9761 18.7248 15.9394 18.7796 15.8665 18.8057C15.8443 18.9151 15.7961 19.0062 15.6879 19.0553C15.6854 19.1333 15.6555 19.1927 15.5828 19.2233C15.5667 19.3335 15.532 19.4328 15.4272 19.4914C15.419 19.6042 15.3926 19.7081 15.2895 19.774C15.2773 19.9265 15.255 20.0753 15.1323 20.1857C15.0878 20.5276 15.1028 20.8864 14.8505 21.1684H14.8507C14.8437 21.2483 14.8077 21.3064 14.7316 21.3334C14.5469 21.8884 14.4607 22.4624 14.4394 23.0435C14.2812 27.3052 14.1383 31.5672 14.2725 35.8329C14.2888 36.351 14.3486 36.8493 14.5841 37.3157C14.6616 37.3347 14.7072 37.3836 14.7234 37.4612C15.8194 37.9257 16.4714 37.5255 16.5551 36.3126C16.7596 33.3435 16.713 30.3698 16.6892 27.3973C16.6748 25.5715 16.6333 23.7452 16.377 21.9331C16.3304 21.6036 16.3863 21.3324 16.6508 21.1193V21.1191C16.991 20.4616 17.5241 19.9713 18.0708 19.4952C19.1246 18.5774 20.2839 18.4832 21.534 19.0527C22.1632 19.3392 22.4866 19.8076 22.6183 20.4922C22.9189 22.0551 21.4676 24.2808 20.0617 25.0219C19.4391 25.3501 18.8314 25.6889 18.2648 26.1037C18.1687 26.2635 18.0576 26.4161 17.9791 26.5841C17.5154 27.5737 18.2264 28.5892 19.3214 28.5134C19.6593 28.49 19.9557 28.3559 20.239 28.1894C20.6393 27.9544 21.0322 27.7073 21.4282 27.4652C21.5144 27.3144 21.6554 27.244 21.8196 27.235C22.4402 27.201 23.05 27.2291 23.5869 27.6022L23.5852 27.5971C23.7034 27.6019 23.8073 27.6331 23.8657 27.7476C24.05 27.778 24.1916 27.8709 24.2846 28.0345C24.3663 28.0425 24.4209 28.0832 24.4426 28.1635C24.6437 28.247 24.7831 28.3905 24.8585 28.5956C25.0232 28.6898 25.114 28.8333 25.1437 29.0186C25.2563 29.0838 25.2833 29.191 25.2816 29.3122L25.2776 29.3104C25.6795 30.0536 25.7073 30.8712 25.649 31.6735C25.4911 33.8443 24.7276 35.7486 23.0289 37.1981C22.945 37.2698 22.843 37.3208 22.7484 37.3807C22.3439 37.8378 21.8662 38.2027 21.338 38.5046C21.0629 38.8167 20.7345 39.0551 20.3499 39.2153L20.3498 39.2155L20.3499 39.2149C19.865 39.6636 19.2643 39.9136 18.6731 40.1742C17.4743 40.703 16.2124 41.058 14.9767 41.4842C14.564 41.6265 14.1203 41.714 13.6737 41.5826L13.6735 41.5828C13.6351 41.6162 13.6007 41.6122 13.571 41.5708C13.4075 41.593 13.2572 41.5742 13.1463 41.4338L13.1423 41.4323C13.0264 41.4363 12.921 41.4161 12.8523 41.3109C12.6762 41.3164 12.5 41.3219 12.3236 41.3274C11.9143 41.6564 11.9802 42.0923 12.0586 42.5312C12.1858 42.6462 12.2709 42.7888 12.3306 42.9481C12.4073 42.9648 12.4555 43.0109 12.4731 43.0878C12.6358 43.1446 12.7783 43.2312 12.8841 43.3713C12.9985 43.3779 13.1056 43.3996 13.1686 43.5107C13.5259 43.6144 13.8826 43.7196 14.2405 43.8218C16.5549 44.4824 18.7574 44.0724 20.8599 43.0423C22.9043 42.0403 24.652 40.6259 26.161 38.9247C27.7115 37.1764 28.288 35.0481 28.4773 32.7841C28.6037 31.2709 28.3643 29.8011 27.8904 28.3652C27.787 28.2977 27.7587 28.1938 27.753 28.079Z" fill="white"/>
<path d="M33.7967 27.936L33.7963 27.9324C33.6978 27.609 33.5992 27.2853 33.5008 26.9617L33.4925 26.9508C33.1958 26.5537 32.8381 26.2891 32.3029 26.408L32.2839 26.4213C31.7532 26.779 31.6279 27.3374 31.5649 27.9206C31.309 30.2909 31.2112 32.6685 31.317 35.0504C31.3613 36.0482 31.4389 37.0478 31.7401 38.0119L31.7424 38.0201C31.8735 38.1323 31.9629 38.2718 32.0162 38.4351L32.0196 38.4432C32.0982 38.4585 32.1425 38.5066 32.1553 38.5848L32.1577 38.5859C32.3185 38.6466 32.4593 38.7364 32.5723 38.8673L32.5729 38.8677C33.0695 38.9878 33.5199 38.8949 33.9211 38.5747L33.9286 38.5637C34.4404 37.8538 34.436 37.0461 34.354 36.2287C34.0775 33.4705 34.0983 30.6924 33.7967 27.936Z" fill="white"/>
<path d="M43.6699 32.6072C43.5759 33.409 43.602 34.1853 43.4473 34.948C43.3478 35.4381 43.1612 35.8885 42.9092 36.312C42.6096 36.8159 41.8991 36.782 41.6257 36.2506C41.3751 35.7641 41.3009 35.2243 41.2254 34.6923C41.0406 33.3886 40.9883 32.0807 41.171 30.7707C41.2229 30.3982 41.3019 30.0304 41.4486 29.6847C41.7802 28.9037 42.6001 28.7889 43.1126 29.4554C43.4816 29.9353 43.6273 30.5068 43.6635 31.0972C43.6947 31.6102 43.6699 32.1266 43.6699 32.6072ZM44.9392 30.8038L44.939 30.7991C44.8049 30.581 44.8094 30.3364 44.8039 30.0936L44.8037 30.0915C44.6859 29.9695 44.6747 29.8162 44.6772 29.659C44.5529 29.5544 44.5267 29.4098 44.5147 29.2596L44.5143 29.2549C44.4087 29.1885 44.3844 29.0835 44.3787 28.9695L44.3651 28.9594C44.2734 28.9027 44.2419 28.8116 44.2274 28.7107L44.2255 28.701C44.1481 28.6719 44.1172 28.612 44.1151 28.5334L44.1111 28.5296C43.8775 28.3015 43.6437 28.0732 43.41 27.845L43.4043 27.8397C43.2352 27.7973 43.0928 27.7126 42.9834 27.5754L42.9754 27.5667C42.8628 27.5579 42.7593 27.5307 42.6975 27.4228L42.6942 27.4226C42.5426 27.4135 42.398 27.3857 42.2859 27.2702H42.2846C41.5399 27.1953 40.7984 27.1684 40.0798 27.4363L40.0724 27.4386C39.9557 27.572 39.8129 27.6631 39.6414 27.7086L39.6323 27.72C39.4744 27.9284 39.2931 28.1131 39.0828 28.2695L39.0777 28.2783C38.6094 29.0622 38.2122 29.8727 38.0464 30.7839C37.6252 33.0981 37.7652 35.3457 38.8048 37.4924L38.81 37.5035C38.9728 37.6991 39.1309 37.8988 39.2997 38.0897C40.2573 39.1731 41.3981 39.4016 42.6815 38.7714L42.6861 38.7693C42.7005 38.7006 42.7414 38.6603 42.8034 38.6428L42.8307 38.635C42.8423 38.5553 42.8872 38.5062 42.9663 38.4894L42.977 38.4569C42.9987 38.3972 43.0432 38.3618 43.1117 38.3515L43.121 38.3403C43.278 38.1334 43.4667 37.9594 43.6745 37.8049L43.6823 37.7988C43.6886 37.7208 43.7241 37.6646 43.8016 37.6405L43.8046 37.6346C44.0461 37.1776 44.2875 36.7207 44.529 36.2637L44.5322 36.2578C44.5746 35.9578 44.6701 35.6743 44.7953 35.3997L44.7959 35.3946C44.9576 33.8679 45.0073 32.3376 44.9392 30.8038Z" fill="white"/>
<path d="M48.0172 19.3621C47.7242 19.7533 47.4352 20.1472 47.1379 20.5348C46.4782 21.3945 45.809 22.2601 44.9943 22.9665C44.408 23.4749 43.8494 24.0336 43.1351 24.4076C42.6328 24.6706 42.1911 25.0599 41.6629 25.2929C40.903 25.6281 40.0907 25.7798 39.276 25.8785C38.9054 25.9234 38.5129 25.8368 38.1361 25.7745C37.2214 25.6236 36.2949 25.5951 35.3764 25.483C35.0321 25.4411 34.6833 25.542 34.3311 25.5286C33.7587 25.5067 33.5713 25.2862 33.7133 24.7479C33.9991 23.6643 34.5407 22.7083 35.2321 21.8425C35.8345 21.0884 36.3326 20.2676 36.8721 19.4726C37.2964 18.8476 37.8225 18.3196 38.5117 17.9566C39.1127 17.6403 39.6804 17.2781 40.3215 17.0213C41.4301 16.5772 42.5713 16.4214 43.7453 16.3833C45.5443 16.325 47.3442 16.2941 49.1366 16.0968C49.8433 16.0192 49.9882 16.2774 49.7019 16.9569C49.3554 17.7798 48.7998 18.4477 48.1887 19.0787C48.0353 19.1148 48.0834 19.2732 48.0172 19.3621Z" fill="white"/>
<path d="M33.9413 15.433C34.4276 16.2567 34.4894 17.1825 34.5149 18.0961C34.5667 19.945 34.0214 21.679 33.3714 23.3819C33.2415 23.7225 33.134 24.0636 33.0525 24.4187C32.9555 24.8403 32.6817 24.9162 32.3855 24.6084C32.2199 24.4364 32.0923 24.225 31.9629 24.0216C31.4724 23.2502 30.819 22.5925 30.4828 21.7078C30.3241 21.2901 30.1946 20.8799 30.1866 20.4503C30.1704 19.5589 30.201 18.6662 30.3304 17.7812C30.351 17.6418 30.3561 17.4884 30.4646 17.3741C30.5808 17.2135 30.5462 16.872 30.9073 17.0057C31.261 17.2727 31.0091 17.6406 31.0462 17.9565C31.0768 18.2162 31.078 18.4856 31.1078 18.7491C31.1807 19.5602 31.4106 20.3489 31.492 20.9874C31.4528 20.3314 31.168 19.5391 31.1046 18.7139C31.0321 18.2151 31.0314 17.7175 31.1223 17.2215C31.7795 16.6408 31.8729 17.3608 32.1471 17.6637C32.2013 17.7063 32.2538 17.7518 32.3065 17.7965C32.6106 17.9768 32.4888 18.2931 32.5487 18.5528C32.5936 18.1846 32.4102 17.7655 32.7858 17.469C32.8608 17.4637 32.9287 17.4827 32.992 17.5223C33.379 17.8933 33.1414 18.38 33.2318 18.8058C33.2871 19.2872 33.1425 19.7478 33.0866 20.2174C33.1562 20.4143 33.138 20.6269 33.1914 20.8264C33.0004 21.034 33.039 21.3164 32.9509 21.5753C33.0419 21.3849 33.0183 21.183 33.0935 21.0062C33.3362 20.703 33.0841 20.3911 33.1085 20.084C33.1985 19.8051 33.3246 19.5387 33.4005 19.2545C33.4569 19.092 33.5179 18.8888 33.442 18.7619C33.0737 18.1462 33.2613 17.5124 33.3254 16.8792C33.3393 16.743 33.4104 16.6003 33.301 16.4602C33.1949 16.5753 33.2742 16.7291 33.2095 16.851C33.1397 16.9827 33.0754 17.1149 32.899 17.0978C32.7293 17.0816 32.6627 16.9462 32.6189 16.8071C32.5308 16.5264 32.5036 16.2431 32.6214 15.9614C32.6507 15.8993 32.6884 15.8426 32.73 15.789C32.7843 15.715 32.9058 15.5962 32.8474 15.555C32.1657 15.0747 32.4201 14.3076 32.2492 13.6729C32.2736 13.6059 32.3153 13.552 32.3727 13.5104C32.6315 13.388 32.7348 13.5435 32.8903 13.7316C33.321 14.2532 33.5459 14.8947 33.9413 15.433Z" fill="white"/>
<path d="M33.0563 18.8139C33.1126 18.3614 33.1959 17.9056 32.8852 17.501L32.8888 17.5033C32.6974 17.8561 32.6038 18.2067 32.815 18.5962C32.9136 18.7779 32.8171 18.9505 32.6099 18.963C32.4349 18.9737 32.3951 18.8348 32.4065 18.6588C32.4244 18.3867 32.5285 18.0762 32.1968 17.8947L32.1972 17.8951C31.987 17.8351 31.8839 17.6886 31.8416 17.4797C31.7712 17.1329 31.5235 17.0923 31.2295 17.1431C31.1774 17.1285 31.1411 17.0958 31.1182 17.0484C31.1051 17.0018 31.1021 16.9535 31.1083 16.9057C31.1171 16.86 31.1414 16.8227 31.1782 16.795C31.2141 16.7617 31.2212 16.723 31.1958 16.6772C31.1915 16.5988 31.2071 16.5221 31.1983 16.4428C31.1962 16.3486 31.1861 16.2542 31.2655 16.1834C31.169 16.2449 31.196 16.3437 31.1907 16.4331C31.1966 16.5265 31.1696 16.6125 31.1355 16.6964C31.0741 16.7946 31.0303 16.9042 30.9569 16.9961C30.9318 17.0105 30.9065 17.0244 30.881 17.0385C30.6631 17.0545 30.6481 17.2997 30.4903 17.3837C30.4382 16.9656 30.5364 16.5663 30.6642 16.1768C30.9858 15.1975 31.3129 14.2199 31.6521 13.2467C31.8785 12.5973 32.1462 12.5302 32.5884 13.0892C33.1533 13.8038 33.7049 14.5428 33.9667 15.4426C33.8109 15.4256 33.6609 15.3526 33.6331 15.2062C33.5148 14.5862 32.9743 14.2254 32.7271 13.6875C32.6403 13.4986 32.4771 13.6173 32.3481 13.5987L32.3506 13.5928C32.428 14.085 32.6906 14.5428 32.6249 15.0616C32.5991 15.2671 32.7223 15.3029 32.8879 15.3027C33.061 15.3025 33.2635 15.3103 33.2813 15.527C33.3 15.7512 33.0294 15.7072 32.9197 15.8246C32.8886 15.8577 32.8352 15.8703 32.7922 15.8922C32.7547 15.856 32.8026 15.8937 32.7979 15.8855C32.6995 16.2637 32.7012 16.6308 32.8909 17.0121C33.1839 16.8579 33.1354 16.6662 33.0593 16.455C32.9998 16.289 33.0892 16.1663 33.2372 16.11C33.4562 16.0269 33.4339 16.2527 33.512 16.3494C33.6356 16.5029 33.5727 16.6658 33.546 16.8328C33.5042 17.0937 33.4488 17.3593 33.4608 17.6201C33.4739 17.9002 33.0793 18.3121 33.682 18.4351C33.5841 18.7264 33.7838 19.0566 33.5645 19.3322C33.0723 19.4758 33.3398 18.8748 33.0563 18.8139Z" fill="white"/>
<path fill-rule="evenodd" clip-rule="evenodd" d="M31.7389 14.7685L31.0174 15.8123L30.6865 17.46L30.99 19.8282L31.3717 21.4875L32.2027 22.6295L33.2235 22.1474L33.6716 20.6897L33.7635 19.14L33.4467 17.119L32.7695 15.3132L31.7389 14.7685Z" fill="white"/>
</svg>
