<svg width="80" height="90" viewBox="0 0 80 90" fill="none" xmlns="http://www.w3.org/2000/svg">
<path d="M5.85085 86.5H5.44285V74.243L7.87385 74.056C8.89385 74.056 9.59652 74.2033 9.98185 74.498C10.1292 74.6113 10.2539 74.7133 10.3559 74.804C10.4579 74.8947 10.5429 75.0307 10.6109 75.212L10.7469 75.688C10.8262 75.9033 10.8659 76.1867 10.8659 76.538V77.524C10.8659 79.156 10.6335 80.176 10.1689 80.584C9.96485 80.7653 9.69852 80.873 9.36985 80.907L12.0729 86.5H11.5119C10.9452 86.5 10.5599 86.449 10.3559 86.347C10.1519 86.2337 9.96485 85.9843 9.79485 85.599L7.70385 80.958H6.90485L7.05785 81.383L7.07485 85.463C7.07485 85.9843 7.02385 86.2903 6.92185 86.381C6.81985 86.4603 6.46285 86.5 5.85085 86.5ZM7.90785 79.445C8.51985 79.445 8.88818 79.3203 9.01285 79.071C9.14885 78.8217 9.21685 78.4137 9.21685 77.847C9.21685 77.2803 9.21119 76.9233 9.19985 76.776C9.19985 76.6173 9.17719 76.4417 9.13185 76.249C9.08652 76.045 9.01852 75.909 8.92785 75.841C8.68985 75.6597 8.34985 75.569 7.90785 75.569H6.90485L7.05785 75.994V79.054L6.92185 79.445H7.90785ZM21.5372 84.987C22.0812 84.987 22.4779 84.8567 22.7272 84.596C22.9085 84.4033 23.0049 84.0577 23.0162 83.559C23.0275 83.4117 23.0332 83.202 23.0332 82.93C23.0332 82.6467 22.9369 82.3577 22.7442 82.063C22.5515 81.7683 22.3702 81.5473 22.2002 81.4C22.0415 81.2527 21.7469 80.992 21.3162 80.618C20.8855 80.244 20.5795 79.9777 20.3982 79.819C20.2282 79.649 19.9845 79.3883 19.6672 79.037C19.0892 78.4023 18.8002 77.7393 18.8002 77.048C18.8002 75.8467 18.9249 75.11 19.1742 74.838C19.5595 74.4413 19.9732 74.2147 20.4152 74.158C20.8572 74.09 21.3275 74.056 21.8262 74.056L24.1382 74.549C24.0475 75.195 23.9172 75.5747 23.7472 75.688C23.6679 75.756 23.5262 75.79 23.3222 75.79C23.1295 75.79 22.8745 75.756 22.5572 75.688L21.9112 75.569C21.2425 75.569 20.8289 75.705 20.6702 75.977C20.5909 76.1243 20.5399 76.2603 20.5172 76.385C20.5059 76.5097 20.5002 76.6967 20.5002 76.946C20.5002 77.4107 21.0725 78.1247 22.2172 79.088C22.7612 79.5187 23.1862 79.8813 23.4922 80.176C23.7982 80.4707 24.0872 80.8277 24.3592 81.247C24.6312 81.6663 24.7672 82.063 24.7672 82.437C24.7672 82.811 24.7615 83.1 24.7502 83.304C24.7502 83.4967 24.7275 83.7687 24.6822 84.12C24.6482 84.46 24.5915 84.7263 24.5122 84.919C24.4329 85.1117 24.3139 85.3327 24.1552 85.582C23.9965 85.8313 23.8039 86.0183 23.5772 86.143C22.9992 86.4603 22.3079 86.619 21.5032 86.619L13.4282 86.5V74.26H18.2562V75.705H14.9412L15.0942 76.13V78.731L14.9412 79.156H18.0522V80.669H14.9582L15.0942 81.06V84.562L14.9412 84.987H21.5372ZM31.0888 75.705H29.0148L29.1678 76.13V85.463C29.1678 85.9843 29.1111 86.2903 28.9978 86.381C28.8958 86.4603 28.5388 86.5 27.9268 86.5H27.5188V76.13L27.6378 75.705H25.5978V74.26H31.0888V75.705ZM37.785 86.5C37.207 86.5 36.8556 86.4547 36.731 86.364C36.6176 86.2733 36.51 85.973 36.408 85.463L35.83 82.59H33.688L32.991 86.5H32.6C32.056 86.5 31.7103 86.4717 31.563 86.415C31.4156 86.347 31.342 86.1997 31.342 85.973C31.342 85.735 32.2033 81.8307 33.926 74.26H35.558L38.346 86.5H37.785ZM34.657 77.354L34.028 80.669L33.892 80.958H35.643C35.6316 80.9467 35.6033 80.8957 35.558 80.805C35.5126 80.703 35.49 80.6463 35.49 80.635L34.827 77.354H34.657ZM44.1965 81.4V74.26H44.6215C45.2221 74.26 45.5735 74.3053 45.6755 74.396C45.7888 74.4753 45.8455 74.7757 45.8455 75.297V81.4C45.8455 83.1453 45.8001 84.171 45.7095 84.477C45.6301 84.7717 45.5395 85.055 45.4375 85.327C45.3468 85.599 45.2278 85.7973 45.0805 85.922C44.9331 86.0353 44.7518 86.16 44.5365 86.296C44.1738 86.5113 43.5788 86.619 42.7515 86.619C42.0828 86.619 41.6181 86.5623 41.3575 86.449C41.1081 86.3357 40.9098 86.245 40.7625 86.177C40.6151 86.0977 40.4848 85.9673 40.3715 85.786C40.2581 85.6047 40.1618 85.4573 40.0825 85.344C40.0145 85.2307 39.9578 85.038 39.9125 84.766C39.8671 84.4827 39.8275 84.2617 39.7935 84.103C39.7708 83.9443 39.7538 83.678 39.7425 83.304C39.7311 82.9187 39.7255 82.624 39.7255 82.42V74.26H40.1335C40.7455 74.26 41.1025 74.3053 41.2045 74.396C41.3065 74.4753 41.3575 74.7757 41.3575 75.297V81.944C41.3575 83.1793 41.4311 84.018 41.5785 84.46C41.7371 84.8907 42.1281 85.106 42.7515 85.106C42.9895 85.106 43.1878 85.0833 43.3465 85.038C43.5165 84.9813 43.6525 84.868 43.7545 84.698C43.8678 84.528 43.9528 84.375 44.0095 84.239C44.0775 84.0917 44.1228 83.8367 44.1455 83.474C44.1795 82.9413 44.1965 82.25 44.1965 81.4ZM48.1184 86.5H47.7104V74.243L50.1414 74.056C51.1614 74.056 51.8641 74.2033 52.2494 74.498C52.3968 74.6113 52.5214 74.7133 52.6234 74.804C52.7254 74.8947 52.8104 75.0307 52.8784 75.212L53.0144 75.688C53.0938 75.9033 53.1334 76.1867 53.1334 76.538V77.524C53.1334 79.156 52.9011 80.176 52.4364 80.584C52.2324 80.7653 51.9661 80.873 51.6374 80.907L54.3404 86.5H53.7794C53.2128 86.5 52.8274 86.449 52.6234 86.347C52.4194 86.2337 52.2324 85.9843 52.0624 85.599L49.9714 80.958H49.1724L49.3254 81.383L49.3424 85.463C49.3424 85.9843 49.2914 86.2903 49.1894 86.381C49.0874 86.4603 48.7304 86.5 48.1184 86.5ZM50.1754 79.445C50.7874 79.445 51.1558 79.3203 51.2804 79.071C51.4164 78.8217 51.4844 78.4137 51.4844 77.847C51.4844 77.2803 51.4788 76.9233 51.4674 76.776C51.4674 76.6173 51.4448 76.4417 51.3994 76.249C51.3541 76.045 51.2861 75.909 51.1954 75.841C50.9574 75.6597 50.6174 75.569 50.1754 75.569H49.1724L49.3254 75.994V79.054L49.1894 79.445H50.1754ZM61.0935 86.5C60.5155 86.5 60.1642 86.4547 60.0395 86.364C59.9262 86.2733 59.8185 85.973 59.7165 85.463L59.1385 82.59H56.9965L56.2995 86.5H55.9085C55.3645 86.5 55.0189 86.4717 54.8715 86.415C54.7242 86.347 54.6505 86.1997 54.6505 85.973C54.6505 85.735 55.5119 81.8307 57.2345 74.26H58.8665L61.6545 86.5H61.0935ZM57.9655 77.354L57.3365 80.669L57.2005 80.958H58.9515C58.9402 80.9467 58.9119 80.8957 58.8665 80.805C58.8212 80.703 58.7985 80.6463 58.7985 80.635L58.1355 77.354H57.9655ZM67.0291 82.76V74.26H67.4031C68.0151 74.26 68.3721 74.3053 68.4741 74.396C68.5761 74.4753 68.6271 74.7757 68.6271 75.297V86.5H68.1171C67.5504 86.5 67.1991 86.4603 67.0631 86.381C66.9271 86.2903 66.7797 86.0127 66.6211 85.548L64.4281 78.204H64.3431V85.463C64.3431 85.9843 64.2921 86.2903 64.1901 86.381C64.0881 86.4603 63.7311 86.5 63.1191 86.5H62.7621V74.26H63.1361C63.6914 74.26 64.0314 74.2997 64.1561 74.379C64.2807 74.4583 64.4337 74.736 64.6151 75.212L66.9441 82.76H67.0291ZM75.2324 75.705H73.1584L73.3114 76.13V85.463C73.3114 85.9843 73.2547 86.2903 73.1414 86.381C73.0394 86.4603 72.6824 86.5 72.0704 86.5H71.6624V76.13L71.7814 75.705H69.7414V74.26H75.2324V75.705Z" fill="#3AAD95"/>
<circle cx="38" cy="30.5" r="29" fill="white" stroke="#3AAD95" stroke-width="2"/>
<mask id="path-3-outside-1" maskUnits="userSpaceOnUse" x="27" y="15.5" width="22" height="31" fill="black">
<rect fill="white" x="27" y="15.5" width="22" height="31"/>
<path d="M29.0014 28.4491L29.3132 18.3271C29.3235 18.1042 29.4165 17.894 29.5728 17.74C29.7291 17.5861 29.9368 17.5004 30.1527 17.5006C30.3685 17.5004 30.5762 17.5861 30.7325 17.74C30.8889 17.894 30.9818 18.1042 30.9921 18.3271L31.2133 24.9392C31.2154 25.1121 31.2773 25.2785 31.3878 25.4084C31.4982 25.5382 31.65 25.623 31.8156 25.6473C31.9075 25.6575 32.0006 25.6481 32.0889 25.6196C32.1772 25.5912 32.2589 25.5442 32.3289 25.4816C32.3988 25.4191 32.4556 25.3423 32.4957 25.2561C32.5358 25.1699 32.5582 25.0761 32.5617 24.9806L32.7802 18.3685C32.7833 18.1689 32.8512 17.9761 32.973 17.8212C33.0948 17.6663 33.2634 17.5583 33.4518 17.5144C33.5629 17.4952 33.6764 17.4952 33.7876 17.5144C33.9759 17.5583 34.1446 17.6663 34.2664 17.8212C34.3882 17.9761 34.4561 18.1689 34.4591 18.3685L34.6776 24.9806C34.6811 25.0761 34.7036 25.1699 34.7436 25.2561C34.7837 25.3423 34.8405 25.4191 34.9105 25.4816C34.9805 25.5442 35.0622 25.5912 35.1505 25.6196C35.2388 25.6481 35.3318 25.6575 35.4238 25.6473C35.5894 25.623 35.7411 25.5382 35.8516 25.4084C35.962 25.2785 36.0239 25.1121 36.0261 24.9392L36.2446 18.3271C36.2549 18.1042 36.3478 17.894 36.5041 17.74C36.6605 17.5861 36.8681 17.5004 37.084 17.5006C37.2999 17.5004 37.5076 17.5861 37.6639 17.74C37.8202 17.894 37.9132 18.1042 37.9234 18.3271L38.2352 28.4381C38.2514 28.9187 38.143 29.3951 37.9214 29.8179C37.6998 30.2408 37.373 30.5948 36.9747 30.8433L35.4265 31.8268V43.5467C35.4265 43.7995 35.3293 44.042 35.1564 44.2208C34.9835 44.3995 34.749 44.5 34.5044 44.5H32.711C32.4664 44.5 32.2319 44.3995 32.059 44.2208C31.886 44.042 31.7889 43.7995 31.7889 43.5467V31.8075L30.2726 30.857C29.872 30.6097 29.5427 30.2559 29.3192 29.8324C29.0956 29.409 28.9859 28.9313 29.0014 28.4491ZM41.2226 34.7857H43.3545V43.5467C43.3544 43.6726 43.3786 43.7972 43.4254 43.9134C43.4722 44.0296 43.5409 44.1351 43.6273 44.2237C43.7138 44.3123 43.8164 44.3824 43.9292 44.4298C44.042 44.4772 44.1627 44.5011 44.2845 44.5H46.078C46.5869 44.5 47 44.0729 47 42.6348V18.1729C46.9914 18.0507 46.9523 17.933 46.8867 17.831C46.8211 17.729 46.7311 17.6463 46.6255 17.5909C46.5199 17.5355 46.4022 17.5092 46.2838 17.5146C46.1655 17.52 46.0505 17.557 45.95 17.6219C44.2981 18.69 42.9359 20.1748 41.9914 21.9367C41.047 23.6986 40.5513 25.6799 40.551 27.6943V34.1052C40.551 34.2894 40.6218 34.4659 40.7477 34.5961C40.8736 34.7263 41.0444 34.7995 41.2226 34.7995V34.7857Z"/>
</mask>
<path d="M29.3132 18.3271L27.5151 18.2442L27.5145 18.258L27.5141 18.2717L29.3132 18.3271ZM30.9921 18.3271L32.7911 18.267L32.7907 18.2556L32.7902 18.2442L30.9921 18.3271ZM31.2133 24.9392L33.0132 24.9168L33.0129 24.8979L33.0123 24.879L31.2133 24.9392ZM31.8156 25.6473L31.5541 27.4282L31.5848 27.4327L31.6157 27.4361L31.8156 25.6473ZM32.3289 25.4816L33.5282 26.8239L32.3289 25.4816ZM32.5617 24.9806L34.3605 25.0462L34.3607 25.04L32.5617 24.9806ZM32.7802 18.3685L34.5793 18.4279L34.5798 18.412L34.58 18.396L32.7802 18.3685ZM33.4518 17.5144L33.1452 15.7407L33.0941 15.7495L33.0436 15.7613L33.4518 17.5144ZM33.7876 17.5144L34.1957 15.7613L34.1452 15.7495L34.0942 15.7407L33.7876 17.5144ZM34.4591 18.3685L32.6593 18.396L32.6596 18.412L32.6601 18.4279L34.4591 18.3685ZM34.6776 24.9806L32.8786 25.04L32.8788 25.0462L34.6776 24.9806ZM34.9105 25.4816L33.7112 26.8239L34.9105 25.4816ZM35.4238 25.6473L35.6236 27.4361L35.6545 27.4327L35.6853 27.4282L35.4238 25.6473ZM36.0261 24.9392L34.227 24.8798L34.2264 24.8983L34.2262 24.9168L36.0261 24.9392ZM36.2446 18.3271L34.4465 18.2442L34.4459 18.256L34.4456 18.2677L36.2446 18.3271ZM37.9234 18.3271L39.7226 18.2717L39.7222 18.2579L39.7215 18.2442L37.9234 18.3271ZM38.2352 28.4381L36.4361 28.4936L36.4362 28.4985L38.2352 28.4381ZM36.9747 30.8433L36.0219 29.3162L36.0157 29.32L36.0096 29.3239L36.9747 30.8433ZM35.4265 31.8268L34.4613 30.3075L33.6265 30.8378V31.8268H35.4265ZM35.4265 43.5467H33.6265H35.4265ZM34.5044 44.5V46.3V44.5ZM32.711 44.5V42.7V44.5ZM31.7889 31.8075H33.5889V30.8114L32.7449 30.2824L31.7889 31.8075ZM30.2726 30.857L31.2286 29.3319L31.2182 29.3254L30.2726 30.857ZM41.2226 34.7857V32.9857H39.4226V34.7857H41.2226ZM43.3545 34.7857H45.1545V32.9857H43.3545V34.7857ZM43.3545 43.5467L45.1545 43.5468V43.5467H43.3545ZM44.2845 44.5V42.7H44.2764L44.2684 42.7L44.2845 44.5ZM47 18.1729H48.8V18.1093L48.7955 18.0459L47 18.1729ZM40.551 27.6943L38.751 27.694V27.6943H40.551ZM40.551 34.1052H38.751H40.551ZM41.2226 34.7995V36.5995H43.0226V34.7995H41.2226ZM30.8006 28.5046L31.1124 18.3826L27.5141 18.2717L27.2023 28.3937L30.8006 28.5046ZM31.1113 18.4101C31.1011 18.6315 31.0087 18.8524 30.8357 19.0227L28.3099 16.4574C27.8243 16.9356 27.5459 17.5769 27.5151 18.2442L31.1113 18.4101ZM30.8357 19.0227C30.6609 19.1948 30.4165 19.3009 30.1506 19.3006L30.1548 15.7006C29.4571 15.6998 28.7974 15.9775 28.3099 16.4574L30.8357 19.0227ZM30.1548 19.3006C29.8888 19.3009 29.6445 19.1948 29.4697 19.0227L31.9954 16.4574C31.508 15.9775 30.8483 15.6998 30.1506 15.7006L30.1548 19.3006ZM29.4697 19.0227C29.2967 18.8524 29.2042 18.6315 29.194 18.4101L32.7902 18.2442C32.7594 17.5769 32.481 16.9356 31.9954 16.4574L29.4697 19.0227ZM29.1931 18.3873L29.4143 24.9994L33.0123 24.879L32.7911 18.267L29.1931 18.3873ZM29.4134 24.9617C29.4207 25.5476 29.6301 26.1202 30.0167 26.5746L32.7589 24.2421C32.9245 24.4369 33.0102 24.6767 33.0132 24.9168L29.4134 24.9617ZM30.0167 26.5746C30.4044 27.0304 30.9476 27.3391 31.5541 27.4282L32.077 23.8664C32.3524 23.9068 32.5921 24.046 32.7589 24.2421L30.0167 26.5746ZM31.6157 27.4361C31.9618 27.4748 32.3113 27.4393 32.6416 27.3327L31.5361 23.9066C31.6898 23.857 31.8533 23.8403 32.0154 23.8584L31.6157 27.4361ZM32.6416 27.3327C32.9718 27.2261 33.2731 27.0518 33.5282 26.8239L31.1295 24.1394C31.2446 24.0366 31.3826 23.9562 31.5361 23.9066L32.6416 27.3327ZM33.5282 26.8239C33.7831 26.5961 33.9862 26.32 34.128 26.0147L30.8634 24.4975C30.9251 24.3647 31.0146 24.2421 31.1295 24.1394L33.5282 26.8239ZM34.128 26.0147C34.2698 25.7096 34.3483 25.38 34.3605 25.0462L30.7629 24.9149C30.7681 24.7722 30.8017 24.6303 30.8634 24.4975L34.128 26.0147ZM34.3607 25.04L34.5793 18.4279L30.9812 18.309L30.7627 24.9211L34.3607 25.04ZM34.58 18.396C34.5771 18.5849 34.5132 18.7746 34.3879 18.9338L31.558 16.7086C31.1892 17.1777 30.9894 17.7528 30.9804 18.3409L34.58 18.396ZM34.3879 18.9338C34.2619 19.0941 34.0783 19.2167 33.8599 19.2675L33.0436 15.7613C32.4485 15.8998 31.9276 16.2385 31.558 16.7086L34.3879 18.9338ZM33.7584 19.2881C33.6666 19.304 33.5727 19.304 33.4809 19.2881L34.0942 15.7407C33.7801 15.6864 33.4592 15.6864 33.1452 15.7407L33.7584 19.2881ZM33.3794 19.2675C33.161 19.2167 32.9774 19.0941 32.8514 18.9338L35.6813 16.7086C35.3117 16.2385 34.7908 15.8998 34.1957 15.7613L33.3794 19.2675ZM32.8514 18.9338C32.7262 18.7746 32.6622 18.5849 32.6593 18.396L36.2589 18.3409C36.2499 17.7528 36.0502 17.1777 35.6813 16.7086L32.8514 18.9338ZM32.6601 18.4279L32.8786 25.04L36.4766 24.9211L36.2581 18.309L32.6601 18.4279ZM32.8788 25.0462C32.891 25.38 32.9695 25.7096 33.1113 26.0147L36.376 24.4975C36.4377 24.6303 36.4712 24.7722 36.4764 24.9149L32.8788 25.0462ZM33.1113 26.0147C33.2532 26.32 33.4563 26.5961 33.7112 26.8239L36.1098 24.1394C36.2247 24.2421 36.3143 24.3647 36.376 24.4975L33.1113 26.0147ZM33.7112 26.8239C33.9662 27.0518 34.2676 27.2261 34.5977 27.3327L35.7032 23.9066C35.8568 23.9562 35.9947 24.0366 36.1098 24.1394L33.7112 26.8239ZM34.5977 27.3327C34.928 27.4393 35.2776 27.4748 35.6236 27.4361L35.224 23.8584C35.3861 23.8403 35.5496 23.857 35.7032 23.9066L34.5977 27.3327ZM35.6853 27.4282C36.2918 27.3391 36.8349 27.0304 37.2226 26.5746L34.4805 24.2421C34.6473 24.046 34.887 23.9068 35.1623 23.8664L35.6853 27.4282ZM37.2226 26.5746C37.6092 26.1202 37.8186 25.5476 37.8259 24.9617L34.2262 24.9168C34.2292 24.6767 34.3148 24.4369 34.4805 24.2421L37.2226 26.5746ZM37.8251 24.9987L38.0436 18.3866L34.4456 18.2677L34.227 24.8798L37.8251 24.9987ZM38.0427 18.4101C38.0324 18.6315 37.94 18.8524 37.767 19.0227L35.2413 16.4574C34.7556 16.9356 34.4773 17.5769 34.4465 18.2442L38.0427 18.4101ZM37.767 19.0227C37.5922 19.1948 37.3478 19.3009 37.0819 19.3006L37.0861 15.7006C36.3884 15.6998 35.7287 15.9775 35.2413 16.4574L37.767 19.0227ZM37.0861 19.3006C36.8202 19.3009 36.5758 19.1948 36.401 19.0227L38.9268 16.4574C38.4393 15.9775 37.7796 15.6998 37.0819 15.7006L37.0861 19.3006ZM36.401 19.0227C36.228 18.8524 36.1356 18.6315 36.1254 18.4101L39.7215 18.2442C39.6908 17.5769 39.4124 16.9356 38.9268 16.4574L36.401 19.0227ZM36.1243 18.3826L36.4361 28.4936L40.0344 28.3826L39.7226 18.2717L36.1243 18.3826ZM36.4362 28.4985C36.442 28.6702 36.403 28.8376 36.3271 28.9824L39.5157 30.6535C39.8831 29.9526 40.0607 29.1673 40.0342 28.3777L36.4362 28.4985ZM36.3271 28.9824C36.2514 29.1268 36.1438 29.2401 36.0219 29.3162L37.9276 32.3703C38.6022 31.9494 39.1483 31.3547 39.5157 30.6535L36.3271 28.9824ZM36.0096 29.3239L34.4613 30.3075L36.3916 33.3462L37.9399 32.3626L36.0096 29.3239ZM33.6265 31.8268V43.5467H37.2265V31.8268H33.6265ZM33.6265 43.5467C33.6265 43.3411 33.7049 43.1324 33.8626 42.9693L36.4502 45.4722C36.9537 44.9516 37.2265 44.258 37.2265 43.5467H33.6265ZM33.8626 42.9693C34.0223 42.8042 34.2519 42.7 34.5044 42.7V46.3C35.246 46.3 35.9447 45.9948 36.4502 45.4722L33.8626 42.9693ZM34.5044 42.7H32.711V46.3H34.5044V42.7ZM32.711 42.7C32.9635 42.7 33.1931 42.8042 33.3528 42.9693L30.7652 45.4722C31.2707 45.9948 31.9693 46.3 32.711 46.3V42.7ZM33.3528 42.9693C33.5105 43.1324 33.5889 43.3411 33.5889 43.5467H29.9889C29.9889 44.258 30.2616 44.9516 30.7652 45.4722L33.3528 42.9693ZM33.5889 43.5467V31.8075H29.9889V43.5467H33.5889ZM32.7449 30.2824L31.2286 29.3319L29.3166 32.3822L30.8329 33.3327L32.7449 30.2824ZM31.2182 29.3254C31.0956 29.2497 30.9873 29.1367 30.911 28.9921L27.7274 30.6727C28.0981 31.3751 28.6483 31.9696 29.327 32.3887L31.2182 29.3254ZM30.911 28.9921C30.8345 28.8471 30.795 28.6793 30.8005 28.5071L27.2024 28.3912C27.1769 29.1833 27.3568 29.9708 27.7274 30.6727L30.911 28.9921ZM41.2226 36.5857H43.3545V32.9857H41.2226V36.5857ZM41.5545 34.7857V43.5467H45.1545V34.7857H41.5545ZM41.5545 43.5467C41.5544 43.902 41.6224 44.2552 41.7559 44.5864L45.0949 43.2405C45.1347 43.3392 45.1545 43.4432 45.1545 43.5468L41.5545 43.5467ZM41.7559 44.5864C41.8894 44.9176 42.0866 45.2221 42.339 45.4807L44.9157 42.9667C44.9951 43.0481 45.055 43.1417 45.0949 43.2405L41.7559 44.5864ZM42.339 45.4807C42.5914 45.7395 42.8943 45.9473 43.2316 46.0891L44.6267 42.7704C44.7385 42.8174 44.8362 42.8852 44.9157 42.9667L42.339 45.4807ZM43.2316 46.0891C43.5691 46.231 43.9327 46.3032 44.3006 46.2999L44.2684 42.7C44.3928 42.6989 44.5148 42.7234 44.6267 42.7704L43.2316 46.0891ZM44.2845 46.3H46.078V42.7H44.2845V46.3ZM46.078 46.3C46.956 46.3 47.7874 45.8673 48.2852 45.0126C48.6916 44.315 48.8 43.4651 48.8 42.6348H45.2C45.2 42.9137 45.1795 43.0911 45.16 43.1924C45.1399 43.2969 45.1286 43.2795 45.1745 43.2007C45.2274 43.1098 45.3439 42.9611 45.5493 42.8447C45.753 42.7293 45.9481 42.7 46.078 42.7V46.3ZM48.8 42.6348V18.1729H45.2V42.6348H48.8ZM48.7955 18.0459C48.7658 17.6253 48.6313 17.2157 48.4004 16.8569L45.3731 18.805C45.2734 18.6502 45.217 18.4762 45.2045 18.2999L48.7955 18.0459ZM48.4004 16.8569C48.1693 16.4978 47.8478 16.1995 47.4619 15.997L45.7891 19.1847C45.6145 19.0931 45.4729 18.9602 45.3731 18.805L48.4004 16.8569ZM47.4619 15.997C47.0756 15.7943 46.6411 15.6963 46.2014 15.7165L46.3663 19.3127C46.1633 19.322 45.9641 19.2766 45.7891 19.1847L47.4619 15.997ZM46.2014 15.7165C45.7618 15.7366 45.3388 15.8739 44.9735 16.1098L46.9266 19.134C46.7622 19.2401 46.5692 19.3034 46.3663 19.3127L46.2014 15.7165ZM44.9727 16.1103C43.0607 17.3465 41.4908 19.0606 40.405 21.0863L43.5779 22.7871C44.3809 21.289 45.5354 20.0334 46.9274 19.1334L44.9727 16.1103ZM40.405 21.0863C39.3193 23.1118 38.7514 25.3853 38.751 27.694L42.351 27.6945C42.3513 25.9744 42.7747 24.2855 43.5779 22.7871L40.405 21.0863ZM38.751 27.6943V34.1052H42.351V27.6943H38.751ZM38.751 34.1052C38.751 34.7478 38.9973 35.3756 39.4539 35.8476L42.0415 33.3447C42.2462 33.5563 42.351 33.8309 42.351 34.1052H38.751ZM39.4539 35.8476C39.9125 36.3216 40.5474 36.5995 41.2226 36.5995V32.9995C41.5415 32.9995 41.8348 33.131 42.0415 33.3447L39.4539 35.8476ZM43.0226 34.7995V34.7857H39.4226V34.7995H43.0226Z" fill="#3AAD95" mask="url(#path-3-outside-1)"/>
</svg>
