<svg width="250" height="266" viewBox="0 0 250 266" fill="none" xmlns="http://www.w3.org/2000/svg">
<path d="M0 128.5C0 111.931 13.4315 98.5 30 98.5H220C236.569 98.5 250 111.931 250 128.5V128.5C250 145.069 236.569 158.5 220 158.5H30C13.4315 158.5 0 145.069 0 128.5V128.5Z" fill="#1C9DC6"/>
<path fill-rule="evenodd" clip-rule="evenodd" d="M34.3373 135.785C38.5904 122.02 46.5746 108.6 62.8668 103.824C78.9434 99.1121 99.91 109.095 118.99 110.973C143.36 113.371 170.755 100.219 189.958 116.333C209.486 132.721 187.296 153.468 193.531 173.525C199.135 191.551 229.518 209.719 223.817 225.251C218.187 240.59 186.639 233.761 169.002 240.355C150.431 247.298 141.413 267.19 118.217 264.729C94.7251 262.238 70.7788 245.525 55.2812 228.294C41.1883 212.626 43.9057 194.973 40.0141 177.784C36.7325 163.289 30.3807 148.59 34.3373 135.785Z" stroke="white" stroke-opacity="0.3"/>
<path fill-rule="evenodd" clip-rule="evenodd" d="M30.827 33.7852C35.0801 20.0205 43.0643 6.59975 59.3566 1.82432C75.4331 -2.8879 96.3997 7.09474 115.479 8.97268C139.849 11.3713 167.244 -1.78092 186.448 14.3335C205.976 30.7211 183.785 51.4676 190.021 71.5245C195.624 89.5511 226.007 107.719 220.306 123.251C214.677 138.59 183.129 131.761 165.492 138.355C146.921 145.298 137.903 165.19 114.706 162.729C91.2149 160.238 67.2685 143.525 51.7709 126.294C37.6781 110.626 40.3954 92.9731 36.5038 75.7839C33.2222 61.2891 26.8704 46.5901 30.827 33.7852Z" stroke="white" stroke-opacity="0.3"/>
</svg>
