<svg width="74" height="60" viewBox="0 0 74 60" fill="none" xmlns="http://www.w3.org/2000/svg">
<path d="M0 30C0 13.4315 13.4315 0 30 0H44C60.5685 0 74 13.4315 74 30C74 46.5685 60.5685 60 44 60H30C13.4315 60 0 46.5685 0 30Z" fill="#3AAD95"/>
<path d="M23.7861 26.116H25.5021C25.6701 25.116 25.9461 24.216 26.3301 23.416C26.7141 22.608 27.1901 21.924 27.7581 21.364C28.3261 20.796 28.9741 20.36 29.7021 20.056C30.4381 19.752 31.2381 19.6 32.1021 19.6C33.1821 19.6 34.1061 19.804 34.8741 20.212C35.6421 20.62 36.3021 21.176 36.8541 21.88L36.0501 22.78C35.9861 22.86 35.9181 22.928 35.8461 22.984C35.7741 23.04 35.6741 23.068 35.5461 23.068C35.4101 23.068 35.2661 22.996 35.1141 22.852C34.9701 22.7 34.7781 22.536 34.5381 22.36C34.2981 22.184 33.9941 22.024 33.6261 21.88C33.2581 21.728 32.7821 21.652 32.1981 21.652C31.0861 21.652 30.1581 22.032 29.4141 22.792C28.6781 23.544 28.1821 24.652 27.9261 26.116H34.3581V26.848C34.3581 27 34.2981 27.14 34.1781 27.268C34.0581 27.396 33.8941 27.46 33.6861 27.46H27.7701C27.7621 27.612 27.7541 27.764 27.7461 27.916C27.7461 28.068 27.7461 28.224 27.7461 28.384C27.7461 28.504 27.7461 28.62 27.7461 28.732C27.7461 28.844 27.7501 28.956 27.7581 29.068H33.2301V29.8C33.2301 29.952 33.1701 30.092 33.0501 30.22C32.9301 30.348 32.7661 30.412 32.5581 30.412H27.8781C28.1021 31.98 28.5821 33.16 29.3181 33.952C30.0541 34.736 30.9741 35.128 32.0781 35.128C32.5021 35.128 32.8701 35.088 33.1821 35.008C33.4941 34.928 33.7661 34.828 33.9981 34.708C34.2301 34.58 34.4261 34.444 34.5861 34.3C34.7541 34.156 34.8981 34.024 35.0181 33.904C35.1461 33.776 35.2581 33.672 35.3541 33.592C35.4581 33.512 35.5621 33.472 35.6661 33.472C35.7461 33.472 35.8101 33.484 35.8581 33.508C35.9141 33.532 35.9741 33.576 36.0381 33.64L37.0341 34.576C36.4661 35.4 35.7621 36.04 34.9221 36.496C34.0901 36.952 33.1021 37.18 31.9581 37.18C31.0301 37.18 30.1941 37.024 29.4501 36.712C28.7061 36.392 28.0581 35.94 27.5061 35.356C26.9621 34.764 26.5141 34.052 26.1621 33.22C25.8181 32.38 25.5781 31.444 25.4421 30.412H23.7861V29.068H25.3341C25.3261 28.956 25.3221 28.844 25.3221 28.732C25.3221 28.62 25.3221 28.504 25.3221 28.384C25.3221 28.224 25.3221 28.068 25.3221 27.916C25.3301 27.764 25.3381 27.612 25.3461 27.46H23.7861V26.116ZM36.868 26.116H38.584C38.752 25.116 39.028 24.216 39.412 23.416C39.796 22.608 40.272 21.924 40.84 21.364C41.408 20.796 42.056 20.36 42.784 20.056C43.52 19.752 44.32 19.6 45.184 19.6C46.264 19.6 47.188 19.804 47.956 20.212C48.724 20.62 49.384 21.176 49.936 21.88L49.132 22.78C49.068 22.86 49 22.928 48.928 22.984C48.856 23.04 48.756 23.068 48.628 23.068C48.492 23.068 48.348 22.996 48.196 22.852C48.052 22.7 47.86 22.536 47.62 22.36C47.38 22.184 47.076 22.024 46.708 21.88C46.34 21.728 45.864 21.652 45.28 21.652C44.168 21.652 43.24 22.032 42.496 22.792C41.76 23.544 41.264 24.652 41.008 26.116H47.44V26.848C47.44 27 47.38 27.14 47.26 27.268C47.14 27.396 46.976 27.46 46.768 27.46H40.852C40.844 27.612 40.836 27.764 40.828 27.916C40.828 28.068 40.828 28.224 40.828 28.384C40.828 28.504 40.828 28.62 40.828 28.732C40.828 28.844 40.832 28.956 40.84 29.068H46.312V29.8C46.312 29.952 46.252 30.092 46.132 30.22C46.012 30.348 45.848 30.412 45.64 30.412H40.96C41.184 31.98 41.664 33.16 42.4 33.952C43.136 34.736 44.056 35.128 45.16 35.128C45.584 35.128 45.952 35.088 46.264 35.008C46.576 34.928 46.848 34.828 47.08 34.708C47.312 34.58 47.508 34.444 47.668 34.3C47.836 34.156 47.98 34.024 48.1 33.904C48.228 33.776 48.34 33.672 48.436 33.592C48.54 33.512 48.644 33.472 48.748 33.472C48.828 33.472 48.892 33.484 48.94 33.508C48.996 33.532 49.056 33.576 49.12 33.64L50.116 34.576C49.548 35.4 48.844 36.04 48.004 36.496C47.172 36.952 46.184 37.18 45.04 37.18C44.112 37.18 43.276 37.024 42.532 36.712C41.788 36.392 41.14 35.94 40.588 35.356C40.044 34.764 39.596 34.052 39.244 33.22C38.9 32.38 38.66 31.444 38.524 30.412H36.868V29.068H38.416C38.408 28.956 38.404 28.844 38.404 28.732C38.404 28.62 38.404 28.504 38.404 28.384C38.404 28.224 38.404 28.068 38.404 27.916C38.412 27.764 38.42 27.612 38.428 27.46H36.868V26.116Z" fill="white"/>
</svg>
