<svg width="74" height="61" viewBox="0 0 74 61" fill="none" xmlns="http://www.w3.org/2000/svg">
<path d="M0 30.5C0 13.9315 13.4315 0.5 30 0.5H44C60.5685 0.5 74 13.9315 74 30.5C74 47.0685 60.5685 60.5 44 60.5H30C13.4315 60.5 0 47.0685 0 30.5Z" fill="white"/>
<path d="M23.7861 26.616H25.5021C25.6701 25.616 25.9461 24.716 26.3301 23.916C26.7141 23.108 27.1901 22.424 27.7581 21.864C28.3261 21.296 28.9741 20.86 29.7021 20.556C30.4381 20.252 31.2381 20.1 32.1021 20.1C33.1821 20.1 34.1061 20.304 34.8741 20.712C35.6421 21.12 36.3021 21.676 36.8541 22.38L36.0501 23.28C35.9861 23.36 35.9181 23.428 35.8461 23.484C35.7741 23.54 35.6741 23.568 35.5461 23.568C35.4101 23.568 35.2661 23.496 35.1141 23.352C34.9701 23.2 34.7781 23.036 34.5381 22.86C34.2981 22.684 33.9941 22.524 33.6261 22.38C33.2581 22.228 32.7821 22.152 32.1981 22.152C31.0861 22.152 30.1581 22.532 29.4141 23.292C28.6781 24.044 28.1821 25.152 27.9261 26.616H34.3581V27.348C34.3581 27.5 34.2981 27.64 34.1781 27.768C34.0581 27.896 33.8941 27.96 33.6861 27.96H27.7701C27.7621 28.112 27.7541 28.264 27.7461 28.416C27.7461 28.568 27.7461 28.724 27.7461 28.884C27.7461 29.004 27.7461 29.12 27.7461 29.232C27.7461 29.344 27.7501 29.456 27.7581 29.568H33.2301V30.3C33.2301 30.452 33.1701 30.592 33.0501 30.72C32.9301 30.848 32.7661 30.912 32.5581 30.912H27.8781C28.1021 32.48 28.5821 33.66 29.3181 34.452C30.0541 35.236 30.9741 35.628 32.0781 35.628C32.5021 35.628 32.8701 35.588 33.1821 35.508C33.4941 35.428 33.7661 35.328 33.9981 35.208C34.2301 35.08 34.4261 34.944 34.5861 34.8C34.7541 34.656 34.8981 34.524 35.0181 34.404C35.1461 34.276 35.2581 34.172 35.3541 34.092C35.4581 34.012 35.5621 33.972 35.6661 33.972C35.7461 33.972 35.8101 33.984 35.8581 34.008C35.9141 34.032 35.9741 34.076 36.0381 34.14L37.0341 35.076C36.4661 35.9 35.7621 36.54 34.9221 36.996C34.0901 37.452 33.1021 37.68 31.9581 37.68C31.0301 37.68 30.1941 37.524 29.4501 37.212C28.7061 36.892 28.0581 36.44 27.5061 35.856C26.9621 35.264 26.5141 34.552 26.1621 33.72C25.8181 32.88 25.5781 31.944 25.4421 30.912H23.7861V29.568H25.3341C25.3261 29.456 25.3221 29.344 25.3221 29.232C25.3221 29.12 25.3221 29.004 25.3221 28.884C25.3221 28.724 25.3221 28.568 25.3221 28.416C25.3301 28.264 25.3381 28.112 25.3461 27.96H23.7861V26.616ZM36.868 26.616H38.584C38.752 25.616 39.028 24.716 39.412 23.916C39.796 23.108 40.272 22.424 40.84 21.864C41.408 21.296 42.056 20.86 42.784 20.556C43.52 20.252 44.32 20.1 45.184 20.1C46.264 20.1 47.188 20.304 47.956 20.712C48.724 21.12 49.384 21.676 49.936 22.38L49.132 23.28C49.068 23.36 49 23.428 48.928 23.484C48.856 23.54 48.756 23.568 48.628 23.568C48.492 23.568 48.348 23.496 48.196 23.352C48.052 23.2 47.86 23.036 47.62 22.86C47.38 22.684 47.076 22.524 46.708 22.38C46.34 22.228 45.864 22.152 45.28 22.152C44.168 22.152 43.24 22.532 42.496 23.292C41.76 24.044 41.264 25.152 41.008 26.616H47.44V27.348C47.44 27.5 47.38 27.64 47.26 27.768C47.14 27.896 46.976 27.96 46.768 27.96H40.852C40.844 28.112 40.836 28.264 40.828 28.416C40.828 28.568 40.828 28.724 40.828 28.884C40.828 29.004 40.828 29.12 40.828 29.232C40.828 29.344 40.832 29.456 40.84 29.568H46.312V30.3C46.312 30.452 46.252 30.592 46.132 30.72C46.012 30.848 45.848 30.912 45.64 30.912H40.96C41.184 32.48 41.664 33.66 42.4 34.452C43.136 35.236 44.056 35.628 45.16 35.628C45.584 35.628 45.952 35.588 46.264 35.508C46.576 35.428 46.848 35.328 47.08 35.208C47.312 35.08 47.508 34.944 47.668 34.8C47.836 34.656 47.98 34.524 48.1 34.404C48.228 34.276 48.34 34.172 48.436 34.092C48.54 34.012 48.644 33.972 48.748 33.972C48.828 33.972 48.892 33.984 48.94 34.008C48.996 34.032 49.056 34.076 49.12 34.14L50.116 35.076C49.548 35.9 48.844 36.54 48.004 36.996C47.172 37.452 46.184 37.68 45.04 37.68C44.112 37.68 43.276 37.524 42.532 37.212C41.788 36.892 41.14 36.44 40.588 35.856C40.044 35.264 39.596 34.552 39.244 33.72C38.9 32.88 38.66 31.944 38.524 30.912H36.868V29.568H38.416C38.408 29.456 38.404 29.344 38.404 29.232C38.404 29.12 38.404 29.004 38.404 28.884C38.404 28.724 38.404 28.568 38.404 28.416C38.412 28.264 38.42 28.112 38.428 27.96H36.868V26.616Z" fill="#3AAD95"/>
<path d="M30 2.5H44V-1.5H30V2.5ZM44 58.5H30V62.5H44V58.5ZM30 58.5C14.536 58.5 2 45.964 2 30.5H-2C-2 48.1731 12.3269 62.5 30 62.5V58.5ZM72 30.5C72 45.964 59.464 58.5 44 58.5V62.5C61.6731 62.5 76 48.1731 76 30.5H72ZM44 2.5C59.464 2.5 72 15.036 72 30.5H76C76 12.8269 61.6731 -1.5 44 -1.5V2.5ZM30 -1.5C12.3269 -1.5 -2 12.8269 -2 30.5H2C2 15.036 14.536 2.5 30 2.5V-1.5Z" fill="#3AAD95"/>
</svg>
