<?xml version="1.0" encoding="UTF-8" standalone="no"?>
<!DOCTYPE svg PUBLIC "-//W3C//DTD SVG 1.1//EN" "http://www.w3.org/Graphics/SVG/1.1/DTD/svg11.dtd">
<svg width="100%" height="100%" viewBox="0 0 78 64" version="1.1" xmlns="http://www.w3.org/2000/svg" xmlns:xlink="http://www.w3.org/1999/xlink" xml:space="preserve" xmlns:serif="http://www.serif.com/" style="fill-rule:evenodd;clip-rule:evenodd;stroke-linejoin:round;stroke-miterlimit:2;">
    <g transform="matrix(1,0,0,1,2,2)">
        <path d="M0,30C0,13.432 13.432,0 30,0L44,0C60.569,0 74,13.432 74,30C74,46.569 60.569,60 44,60L30,60C13.432,60 0,46.569 0,30Z" style="fill:white;fill-rule:nonzero;"/>
    </g>
    <g transform="matrix(1,0,0,1,2,2)">
        <path d="M23.786,26.116L25.502,26.116C25.67,25.116 25.946,24.216 26.33,23.416C26.714,22.608 27.19,21.924 27.758,21.364C28.326,20.796 28.974,20.36 29.702,20.056C30.438,19.752 31.238,19.6 32.102,19.6C33.182,19.6 34.106,19.804 34.874,20.212C35.642,20.62 36.302,21.176 36.854,21.88L36.05,22.78C35.986,22.86 35.918,22.928 35.846,22.984C35.774,23.04 35.674,23.068 35.546,23.068C35.41,23.068 35.266,22.996 35.114,22.852C34.97,22.7 34.778,22.536 34.538,22.36C34.298,22.184 33.994,22.024 33.626,21.88C33.258,21.728 32.782,21.652 32.198,21.652C31.086,21.652 30.158,22.032 29.414,22.792C28.678,23.544 28.182,24.652 27.926,26.116L34.358,26.116L34.358,26.848C34.358,27 34.298,27.14 34.178,27.268C34.058,27.396 33.894,27.46 33.686,27.46L27.77,27.46C27.762,27.612 27.754,27.764 27.746,27.916L27.746,28.732C27.746,28.844 27.75,28.956 27.758,29.068L33.23,29.068L33.23,29.8C33.23,29.952 33.17,30.092 33.05,30.22C32.93,30.348 32.766,30.412 32.558,30.412L27.878,30.412C28.102,31.98 28.582,33.16 29.318,33.952C30.054,34.736 30.974,35.128 32.078,35.128C32.502,35.128 32.87,35.088 33.182,35.008C33.494,34.928 33.766,34.828 33.998,34.708C34.23,34.58 34.426,34.444 34.586,34.3C34.754,34.156 34.898,34.024 35.018,33.904C35.146,33.776 35.258,33.672 35.354,33.592C35.458,33.512 35.562,33.472 35.666,33.472C35.746,33.472 35.81,33.484 35.858,33.508C35.914,33.532 35.974,33.576 36.038,33.64L37.034,34.576C36.466,35.4 35.762,36.04 34.922,36.496C34.09,36.952 33.102,37.18 31.958,37.18C31.03,37.18 30.194,37.024 29.45,36.712C28.706,36.392 28.058,35.94 27.506,35.356C26.962,34.764 26.514,34.052 26.162,33.22C25.818,32.38 25.578,31.444 25.442,30.412L23.786,30.412L23.786,29.068L25.334,29.068C25.326,28.956 25.322,28.844 25.322,28.732L25.322,27.916C25.33,27.764 25.338,27.612 25.346,27.46L23.786,27.46L23.786,26.116ZM36.868,26.116L38.584,26.116C38.752,25.116 39.028,24.216 39.412,23.416C39.796,22.608 40.272,21.924 40.84,21.364C41.408,20.796 42.056,20.36 42.784,20.056C43.52,19.752 44.32,19.6 45.184,19.6C46.264,19.6 47.188,19.804 47.956,20.212C48.724,20.62 49.384,21.176 49.936,21.88L49.132,22.78C49.068,22.86 49,22.928 48.928,22.984C48.856,23.04 48.756,23.068 48.628,23.068C48.492,23.068 48.348,22.996 48.196,22.852C48.052,22.7 47.86,22.536 47.62,22.36C47.38,22.184 47.076,22.024 46.708,21.88C46.34,21.728 45.864,21.652 45.28,21.652C44.168,21.652 43.24,22.032 42.496,22.792C41.76,23.544 41.264,24.652 41.008,26.116L47.44,26.116L47.44,26.848C47.44,27 47.38,27.14 47.26,27.268C47.14,27.396 46.976,27.46 46.768,27.46L40.852,27.46C40.844,27.612 40.836,27.764 40.828,27.916L40.828,28.732C40.828,28.844 40.832,28.956 40.84,29.068L46.312,29.068L46.312,29.8C46.312,29.952 46.252,30.092 46.132,30.22C46.012,30.348 45.848,30.412 45.64,30.412L40.96,30.412C41.184,31.98 41.664,33.16 42.4,33.952C43.136,34.736 44.056,35.128 45.16,35.128C45.584,35.128 45.952,35.088 46.264,35.008C46.576,34.928 46.848,34.828 47.08,34.708C47.312,34.58 47.508,34.444 47.668,34.3C47.836,34.156 47.98,34.024 48.1,33.904C48.228,33.776 48.34,33.672 48.436,33.592C48.54,33.512 48.644,33.472 48.748,33.472C48.828,33.472 48.892,33.484 48.94,33.508C48.996,33.532 49.056,33.576 49.12,33.64L50.116,34.576C49.548,35.4 48.844,36.04 48.004,36.496C47.172,36.952 46.184,37.18 45.04,37.18C44.112,37.18 43.276,37.024 42.532,36.712C41.788,36.392 41.14,35.94 40.588,35.356C40.044,34.764 39.596,34.052 39.244,33.22C38.9,32.38 38.66,31.444 38.524,30.412L36.868,30.412L36.868,29.068L38.416,29.068C38.408,28.956 38.404,28.844 38.404,28.732L38.404,27.916C38.412,27.764 38.42,27.612 38.428,27.46L36.868,27.46L36.868,26.116Z" style="fill:rgb(58,173,149);fill-rule:nonzero;"/>
    </g>
    <g transform="matrix(1,0,0,1,2,2)">
        <path d="M30,2L44,2L44,-2L30,-2L30,2ZM44,58L30,58L30,62L44,62L44,58ZM30,58C14.536,58 2,45.464 2,30L-2,30C-2,47.673 12.327,62 30,62L30,58ZM72,30C72,45.464 59.464,58 44,58L44,62C61.673,62 76,47.673 76,30L72,30ZM44,2C59.464,2 72,14.536 72,30L76,30C76,12.327 61.673,-2 44,-2L44,2ZM30,-2C12.327,-2 -2,12.327 -2,30L2,30C2,14.536 14.536,2 30,2L30,-2Z" style="fill:rgb(58,173,149);fill-rule:nonzero;"/>
    </g>
</svg>
