<svg width="60" height="97" viewBox="0 0 60 97" fill="none" xmlns="http://www.w3.org/2000/svg">
<path d="M14.1324 83.576V85H9.10844V73.48H13.9724V74.84H10.5324L10.6764 75.24V77.688L10.5324 78.088H13.7804V79.512H10.5484L10.6764 79.88V83.176L10.5324 83.576H14.1324ZM17.0812 84.024C17.0812 84.5147 17.0332 84.8027 16.9372 84.888C16.8412 84.9627 16.5052 85 15.9292 85H15.5772V73.464L18.1692 73.288C19.2359 73.288 19.9719 73.4267 20.3772 73.704C20.5265 73.8107 20.6492 73.9067 20.7452 73.992C20.8519 74.0773 20.9372 74.2107 21.0012 74.392C21.0759 74.5627 21.1292 74.7067 21.1612 74.824C21.2039 74.9307 21.2305 75.1013 21.2412 75.336C21.2732 75.7413 21.2892 76.152 21.2892 76.568C21.2892 76.9733 21.2839 77.2827 21.2732 77.496C21.2625 77.6987 21.2252 77.9493 21.1612 78.248C21.1079 78.5467 21.0172 78.7707 20.8892 78.92C20.7612 79.0693 20.5852 79.2187 20.3612 79.368C19.9665 79.6453 19.2412 79.784 18.1852 79.784H17.0812V84.024ZM18.1852 78.36C18.7079 78.36 19.1132 78.2747 19.4012 78.104C19.5825 77.9973 19.6892 77.7147 19.7212 77.256C19.7319 77.1067 19.7372 76.872 19.7372 76.552C19.7372 76.2213 19.7319 75.9867 19.7212 75.848C19.7105 75.6987 19.6785 75.5333 19.6252 75.352C19.5825 75.16 19.5079 75.032 19.4012 74.968C19.1132 74.7973 18.7079 74.712 18.1852 74.712H16.9532L17.0812 75.112V77.992L16.9532 78.36H18.1852ZM23.0459 84.024V73.48H23.3819C23.9686 73.48 24.3099 73.5227 24.4059 73.608C24.5126 73.6827 24.5659 73.9653 24.5659 74.456V85H24.1979C23.6219 85 23.2859 84.9627 23.1899 84.888C23.0939 84.8027 23.0459 84.5147 23.0459 84.024ZM27.9074 77.416C27.8968 77.7893 27.8914 78.3653 27.8914 79.144C27.8914 79.9227 27.8968 80.4987 27.9074 80.872C27.9288 81.2453 27.9768 81.672 28.0514 82.152C28.1261 82.6213 28.2541 82.952 28.4354 83.144C28.6168 83.336 28.8621 83.432 29.1714 83.432C29.4808 83.432 29.9021 83.4107 30.4354 83.368C30.9688 83.3147 31.3154 83.2827 31.4754 83.272V84.824C31.3794 84.8347 31.0594 84.888 30.5154 84.984C29.9821 85.0693 29.5554 85.112 29.2354 85.112C28.9154 85.112 28.6274 85.0747 28.3714 85C28.1154 84.936 27.8914 84.856 27.6994 84.76C27.5074 84.6533 27.3368 84.4987 27.1874 84.296C27.0381 84.0827 26.9154 83.8907 26.8194 83.72C26.7234 83.5493 26.6434 83.304 26.5794 82.984C26.5154 82.6533 26.4674 82.3813 26.4354 82.168C26.4034 81.9547 26.3768 81.64 26.3554 81.224C26.3341 80.7973 26.3234 80.4667 26.3234 80.232V78.072C26.3234 77.304 26.3501 76.744 26.4034 76.392C26.4568 76.0293 26.5154 75.688 26.5794 75.368C26.6434 75.048 26.7234 74.808 26.8194 74.648C26.9154 74.4773 27.0381 74.2907 27.1874 74.088C27.3368 73.8853 27.5074 73.736 27.6994 73.64C28.1688 73.4053 28.6808 73.288 29.2354 73.288L31.4594 73.8C31.3741 74.4187 31.2141 74.8027 30.9794 74.952C30.8514 75.0267 30.6701 75.064 30.4354 75.064C30.2008 75.064 29.9234 75.032 29.6034 74.968L29.1554 74.856C28.8568 74.856 28.6168 74.952 28.4354 75.144C28.2541 75.336 28.1261 75.672 28.0514 76.152C27.9768 76.6213 27.9288 77.0427 27.9074 77.416ZM37.9449 83.576V85H32.9209V73.48H37.7849V74.84H34.3449L34.4889 75.24V77.688L34.3449 78.088H37.5929V79.512H34.3609L34.4889 79.88V83.176L34.3449 83.576H37.9449ZM39.7737 85H39.3897V73.464L41.6777 73.288C42.6377 73.288 43.299 73.4267 43.6617 73.704C43.8004 73.8107 43.9177 73.9067 44.0137 73.992C44.1097 74.0773 44.1897 74.2053 44.2537 74.376L44.3817 74.824C44.4564 75.0267 44.4937 75.2933 44.4937 75.624V76.552C44.4937 78.088 44.275 79.048 43.8377 79.432C43.6457 79.6027 43.395 79.704 43.0857 79.736L45.6297 85H45.1017C44.5684 85 44.2057 84.952 44.0137 84.856C43.8217 84.7493 43.6457 84.5147 43.4857 84.152L41.5177 79.784H40.7657L40.9097 80.184L40.9257 84.024C40.9257 84.5147 40.8777 84.8027 40.7817 84.888C40.6857 84.9627 40.3497 85 39.7737 85ZM41.7097 78.36C42.2857 78.36 42.6324 78.2427 42.7497 78.008C42.8777 77.7733 42.9417 77.3893 42.9417 76.856C42.9417 76.3227 42.9364 75.9867 42.9257 75.848C42.9257 75.6987 42.9044 75.5333 42.8617 75.352C42.819 75.16 42.755 75.032 42.6697 74.968C42.4457 74.7973 42.1257 74.712 41.7097 74.712H40.7657L40.9097 75.112V77.992L40.7817 78.36H41.7097ZM46.9053 84.024V73.48H47.2413C47.828 73.48 48.1693 73.5227 48.2653 73.608C48.372 73.6827 48.4253 73.9653 48.4253 74.456V85H48.0573C47.4813 85 47.1453 84.9627 47.0493 84.888C46.9533 84.8027 46.9053 84.5147 46.9053 84.024ZM55.3668 83.576V85H50.3428V73.48H55.2068V74.84H51.7668L51.9108 75.24V77.688L51.7668 78.088H55.0148V79.512H51.7828L51.9108 79.88V83.176L51.7668 83.576H55.3668Z" fill="#3AAD95"/>
<circle cx="30" cy="30" r="29" fill="#3AAD95" stroke="#3AAD95" stroke-width="2"/>
<path d="M16.5708 42.9422V43.9422H17.5708H42.1482H43.1482V42.9422V25.943V24.943H42.1482H17.5708H16.5708V25.943V42.9422ZM20.6957 29.0679H39.0233V37.6924H20.6957V29.0679Z" stroke="white" stroke-width="2"/>
<path d="M44.7176 21.2497L44.7176 20.8829L44.4804 20.6031L40.8769 16.3533L40.5774 16H40.1142H36.9717H35.3404L36.0805 17.4537L38.1355 21.4897V22.451C38.1355 24.2692 39.6098 25.7417 41.427 25.7417C43.2447 25.7417 44.7177 24.2687 44.7177 22.451V22.4509L44.7176 21.2497Z" stroke="white" stroke-width="2"/>
<path d="M33.15 21.2498V21.1656L33.1359 21.0826L32.4152 16.8328L32.274 16H31.4293H28.2877H27.443L27.3017 16.8328L26.581 21.0826L26.5669 21.1656V21.2498V22.451C26.5669 24.2695 28.0415 25.7416 29.8593 25.7416C31.6771 25.7416 33.15 24.2686 33.15 22.4509V21.2498Z" stroke="white" stroke-width="2"/>
<path d="M28.0725 17.167L28.2701 16H27.0865H23.9449H23.3316L23.0536 16.5467L20.8923 20.7965L20.7837 21.0101V21.2498V22.451C20.7837 24.2692 22.2578 25.7417 24.0751 25.7417C25.8924 25.7417 27.3667 24.2692 27.3667 22.451V21.3339L28.0725 17.167Z" stroke="white" stroke-width="2"/>
<path d="M38.9345 21.2498V21.0099L38.8257 20.7961L36.6619 16.5463L36.3837 16H35.7707H32.6299H31.446L31.644 17.1672L32.3506 21.334V22.451C32.3506 24.2697 33.8264 25.7417 35.643 25.7417C37.4615 25.7417 38.9345 24.2689 38.9345 22.451V21.2498Z" stroke="white" stroke-width="2"/>
<path d="M15.0009 21.2499V21.4511H15V22.4511C15 24.2693 16.4743 25.7418 18.2915 25.7418L18.2916 25.7418C20.1088 25.7417 21.5831 24.2694 21.5831 22.4511V21.4896L23.6357 17.4534L24.3748 16.0001H22.7443H19.6027H19.1394L18.8399 16.3536L15.238 20.6034L15.0009 20.8832V21.2499Z" stroke="white" stroke-width="2"/>
</svg>
