<svg width="21" height="20" viewBox="0 0 21 20" fill="none" xmlns="http://www.w3.org/2000/svg">
<path d="M1.19012 19.6545H19.8106V6.77539H1.19012V19.6545ZM2.80002 8.38529H18.2007V16.4347H2.80002V8.38529Z" fill="#414141"/>
<path d="M20.9999 3.21976L18.2699 0H15.889L17.5284 3.21976V4.12981C17.5284 5.08856 18.3058 5.86531 19.2645 5.86531C20.2232 5.86531 21 5.08856 21 4.12981V3.21976H20.9999Z" fill="#414141"/>
<path d="M10.5007 5.86527C11.4594 5.86527 12.2362 5.08848 12.2362 4.12977V3.21976L11.6902 0H9.30995L8.76389 3.21976V4.12981C8.76389 5.08856 9.54129 5.86527 10.5007 5.86527Z" fill="#414141"/>
<path d="M4.38228 4.12981C4.38228 5.08856 5.1596 5.86531 6.11835 5.86531C7.07709 5.86531 7.85446 5.08856 7.85446 4.12981V3.21976L8.39983 0H6.0197L4.38228 3.21976V4.12981Z" fill="#414141"/>
<path d="M13.1455 4.12981C13.1455 5.08856 13.9236 5.86531 14.8823 5.86531C15.8417 5.86531 16.6184 5.08856 16.6184 4.12981V3.21976L14.979 0H12.5995L13.1455 3.21976V4.12981Z" fill="#414141"/>
<path d="M3.47226 4.12981V3.21976L5.10968 0H2.72951L0.000656281 3.21976V4.12981H0C0 5.08856 0.777406 5.86531 1.73611 5.86531C2.6949 5.86527 3.47226 5.08856 3.47226 4.12981Z" fill="#414141"/>
</svg>
