<svg width="18" height="17" viewBox="0 0 18 17" fill="none" xmlns="http://www.w3.org/2000/svg">
<path d="M6.30199 5.55931L6.56235 5.523L6.68003 5.28793L8.72696 1.19911C8.91699 0.831438 9.46165 0.85312 9.62809 1.19286L9.62804 1.19288L9.63138 1.19946L11.711 5.29067L11.8291 5.52301L12.0872 5.55925L16.6849 6.20484C17.087 6.26673 17.2503 6.74272 16.945 7.04274C16.9445 7.04321 16.944 7.04369 16.9435 7.04416L13.6385 10.2092L13.4454 10.3941L13.4919 10.6573L14.2787 15.1122C14.3342 15.4846 13.8988 15.8237 13.5193 15.6317C13.5189 15.6314 13.5185 15.6312 13.518 15.631L9.42487 13.5101L9.19571 13.3914L8.96619 13.5094L4.84013 15.631C4.83986 15.6312 4.83959 15.6313 4.83932 15.6314C4.45977 15.824 4.02397 15.4848 4.07944 15.1122L4.86623 10.6573L4.91272 10.3941L4.71967 10.2092L1.41314 7.04272C1.10795 6.74276 1.27106 6.26688 1.67308 6.20487L6.30199 5.55931Z" stroke="#FBBC04"/>
</svg>
