<svg width="12" height="11" viewBox="0 0 12 11" fill="none" xmlns="http://www.w3.org/2000/svg">
<path d="M6.93386 8.642C7.52186 8.642 8.03519 8.52067 8.47386 8.278C8.92186 8.026 9.27186 7.65733 9.52386 7.172H11.4419C11.0779 8.10533 10.4945 8.824 9.69186 9.328C8.88919 9.832 7.96986 10.084 6.93386 10.084C5.84186 10.084 4.87119 9.79 4.02186 9.202C3.17252 8.60467 2.57986 7.81133 2.24386 6.822H0.955858V5.73H1.99186C1.97319 5.46867 1.96386 5.26333 1.96386 5.114C1.96386 4.96467 1.97319 4.75933 1.99186 4.498H0.955858V3.406H2.24386C2.57986 2.41667 3.17252 1.628 4.02186 1.04C4.87119 0.442666 5.84186 0.143999 6.93386 0.143999C7.96052 0.143999 8.87519 0.400666 9.67786 0.913999C10.4899 1.418 11.0779 2.13667 11.4419 3.07H9.52386C9.27186 2.58467 8.92186 2.22067 8.47386 1.978C8.03519 1.726 7.52186 1.6 6.93386 1.6C6.25252 1.6 5.65052 1.75867 5.12786 2.076C4.61452 2.39333 4.22252 2.83667 3.95186 3.406H6.93386V4.498H3.64386C3.61586 4.694 3.60186 4.89933 3.60186 5.114C3.60186 5.32867 3.61586 5.534 3.64386 5.73H6.93386V6.822H3.95186C4.22252 7.40067 4.61452 7.84867 5.12786 8.166C5.65052 8.48333 6.25252 8.642 6.93386 8.642Z" fill="white"/>
</svg>
