<svg width="60" height="98" viewBox="0 0 60 98" fill="none" xmlns="http://www.w3.org/2000/svg">
<path d="M14.1324 84.076V85.5H9.10844V73.98H13.9724V75.34H10.5324L10.6764 75.74V78.188L10.5324 78.588H13.7804V80.012H10.5484L10.6764 80.38V83.676L10.5324 84.076H14.1324ZM17.0812 84.524C17.0812 85.0147 17.0332 85.3027 16.9372 85.388C16.8412 85.4627 16.5052 85.5 15.9292 85.5H15.5772V73.964L18.1692 73.788C19.2359 73.788 19.9719 73.9267 20.3772 74.204C20.5265 74.3107 20.6492 74.4067 20.7452 74.492C20.8519 74.5773 20.9372 74.7107 21.0012 74.892C21.0759 75.0627 21.1292 75.2067 21.1612 75.324C21.2039 75.4307 21.2305 75.6013 21.2412 75.836C21.2732 76.2413 21.2892 76.652 21.2892 77.068C21.2892 77.4733 21.2839 77.7827 21.2732 77.996C21.2625 78.1987 21.2252 78.4493 21.1612 78.748C21.1079 79.0467 21.0172 79.2707 20.8892 79.42C20.7612 79.5693 20.5852 79.7187 20.3612 79.868C19.9665 80.1453 19.2412 80.284 18.1852 80.284H17.0812V84.524ZM18.1852 78.86C18.7079 78.86 19.1132 78.7747 19.4012 78.604C19.5825 78.4973 19.6892 78.2147 19.7212 77.756C19.7319 77.6067 19.7372 77.372 19.7372 77.052C19.7372 76.7213 19.7319 76.4867 19.7212 76.348C19.7105 76.1987 19.6785 76.0333 19.6252 75.852C19.5825 75.66 19.5079 75.532 19.4012 75.468C19.1132 75.2973 18.7079 75.212 18.1852 75.212H16.9532L17.0812 75.612V78.492L16.9532 78.86H18.1852ZM23.0459 84.524V73.98H23.3819C23.9686 73.98 24.3099 74.0227 24.4059 74.108C24.5126 74.1827 24.5659 74.4653 24.5659 74.956V85.5H24.1979C23.6219 85.5 23.2859 85.4627 23.1899 85.388C23.0939 85.3027 23.0459 85.0147 23.0459 84.524ZM27.9074 77.916C27.8968 78.2893 27.8914 78.8653 27.8914 79.644C27.8914 80.4227 27.8968 80.9987 27.9074 81.372C27.9288 81.7453 27.9768 82.172 28.0514 82.652C28.1261 83.1213 28.2541 83.452 28.4354 83.644C28.6168 83.836 28.8621 83.932 29.1714 83.932C29.4808 83.932 29.9021 83.9107 30.4354 83.868C30.9688 83.8147 31.3154 83.7827 31.4754 83.772V85.324C31.3794 85.3347 31.0594 85.388 30.5154 85.484C29.9821 85.5693 29.5554 85.612 29.2354 85.612C28.9154 85.612 28.6274 85.5747 28.3714 85.5C28.1154 85.436 27.8914 85.356 27.6994 85.26C27.5074 85.1533 27.3368 84.9987 27.1874 84.796C27.0381 84.5827 26.9154 84.3907 26.8194 84.22C26.7234 84.0493 26.6434 83.804 26.5794 83.484C26.5154 83.1533 26.4674 82.8813 26.4354 82.668C26.4034 82.4547 26.3768 82.14 26.3554 81.724C26.3341 81.2973 26.3234 80.9667 26.3234 80.732V78.572C26.3234 77.804 26.3501 77.244 26.4034 76.892C26.4568 76.5293 26.5154 76.188 26.5794 75.868C26.6434 75.548 26.7234 75.308 26.8194 75.148C26.9154 74.9773 27.0381 74.7907 27.1874 74.588C27.3368 74.3853 27.5074 74.236 27.6994 74.14C28.1688 73.9053 28.6808 73.788 29.2354 73.788L31.4594 74.3C31.3741 74.9187 31.2141 75.3027 30.9794 75.452C30.8514 75.5267 30.6701 75.564 30.4354 75.564C30.2008 75.564 29.9234 75.532 29.6034 75.468L29.1554 75.356C28.8568 75.356 28.6168 75.452 28.4354 75.644C28.2541 75.836 28.1261 76.172 28.0514 76.652C27.9768 77.1213 27.9288 77.5427 27.9074 77.916ZM37.9449 84.076V85.5H32.9209V73.98H37.7849V75.34H34.3449L34.4889 75.74V78.188L34.3449 78.588H37.5929V80.012H34.3609L34.4889 80.38V83.676L34.3449 84.076H37.9449ZM39.7737 85.5H39.3897V73.964L41.6777 73.788C42.6377 73.788 43.299 73.9267 43.6617 74.204C43.8004 74.3107 43.9177 74.4067 44.0137 74.492C44.1097 74.5773 44.1897 74.7053 44.2537 74.876L44.3817 75.324C44.4564 75.5267 44.4937 75.7933 44.4937 76.124V77.052C44.4937 78.588 44.275 79.548 43.8377 79.932C43.6457 80.1027 43.395 80.204 43.0857 80.236L45.6297 85.5H45.1017C44.5684 85.5 44.2057 85.452 44.0137 85.356C43.8217 85.2493 43.6457 85.0147 43.4857 84.652L41.5177 80.284H40.7657L40.9097 80.684L40.9257 84.524C40.9257 85.0147 40.8777 85.3027 40.7817 85.388C40.6857 85.4627 40.3497 85.5 39.7737 85.5ZM41.7097 78.86C42.2857 78.86 42.6324 78.7427 42.7497 78.508C42.8777 78.2733 42.9417 77.8893 42.9417 77.356C42.9417 76.8227 42.9364 76.4867 42.9257 76.348C42.9257 76.1987 42.9044 76.0333 42.8617 75.852C42.819 75.66 42.755 75.532 42.6697 75.468C42.4457 75.2973 42.1257 75.212 41.7097 75.212H40.7657L40.9097 75.612V78.492L40.7817 78.86H41.7097ZM46.9053 84.524V73.98H47.2413C47.828 73.98 48.1693 74.0227 48.2653 74.108C48.372 74.1827 48.4253 74.4653 48.4253 74.956V85.5H48.0573C47.4813 85.5 47.1453 85.4627 47.0493 85.388C46.9533 85.3027 46.9053 85.0147 46.9053 84.524ZM55.3668 84.076V85.5H50.3428V73.98H55.2068V75.34H51.7668L51.9108 75.74V78.188L51.7668 78.588H55.0148V80.012H51.7828L51.9108 80.38V83.676L51.7668 84.076H55.3668Z" fill="#3AAD95"/>
<circle cx="30" cy="30.5" r="29" fill="white" stroke="#3AAD95" stroke-width="2"/>
<path d="M16.5708 43.4426V44.4426H17.5708H42.1482H43.1482V43.4426V26.4434V25.4434H42.1482H17.5708H16.5708V26.4434V43.4426ZM20.6957 29.5683H39.0233V38.1927H20.6957V29.5683Z" stroke="#3AAD95" stroke-width="2"/>
<path d="M44.7176 21.7497L44.7176 21.3829L44.4804 21.1031L40.8769 16.8533L40.5774 16.5H40.1142H36.9717H35.3404L36.0805 17.9537L38.1355 21.9897V22.951C38.1355 24.7692 39.6098 26.2417 41.427 26.2417C43.2447 26.2417 44.7177 24.7687 44.7177 22.951V22.9509L44.7176 21.7497Z" stroke="#3AAD95" stroke-width="2"/>
<path d="M33.15 21.7498V21.6656L33.1359 21.5826L32.4152 17.3328L32.274 16.5H31.4293H28.2877H27.443L27.3017 17.3328L26.581 21.5826L26.5669 21.6656V21.7498V22.951C26.5669 24.7695 28.0415 26.2416 29.8593 26.2416C31.6771 26.2416 33.15 24.7686 33.15 22.9509V21.7498Z" stroke="#3AAD95" stroke-width="2"/>
<path d="M28.0725 17.667L28.2701 16.5H27.0865H23.9449H23.3316L23.0536 17.0467L20.8923 21.2965L20.7837 21.5101V21.7498V22.951C20.7837 24.7692 22.2578 26.2417 24.0751 26.2417C25.8924 26.2417 27.3667 24.7692 27.3667 22.951V21.8339L28.0725 17.667Z" stroke="#3AAD95" stroke-width="2"/>
<path d="M38.9345 21.7498V21.5099L38.8257 21.2961L36.6619 17.0463L36.3837 16.5H35.7707H32.6299H31.446L31.644 17.6672L32.3506 21.834V22.951C32.3506 24.7697 33.8264 26.2417 35.643 26.2417C37.4615 26.2417 38.9345 24.7689 38.9345 22.951V21.7498Z" stroke="#3AAD95" stroke-width="2"/>
<path d="M15.0009 21.7498V21.951H15V22.951C15 24.7692 16.4743 26.2417 18.2915 26.2417L18.2916 26.2417C20.1088 26.2416 21.5831 24.7692 21.5831 22.951V21.9895L23.6357 17.9533L24.3748 16.5H22.7443H19.6027H19.1394L18.8399 16.8534L15.238 21.1032L15.0009 21.383V21.7498Z" stroke="#3AAD95" stroke-width="2"/>
</svg>
