<svg width="60" height="98" viewBox="0 0 60 98" fill="none" xmlns="http://www.w3.org/2000/svg">
<path d="M26.7705 76.878V77.558C26.7705 78.17 26.7422 78.6233 26.6855 78.918C26.6288 79.2013 26.5042 79.479 26.3115 79.751C26.7195 80.1023 27.0028 80.5047 27.1615 80.958C27.3315 81.4 27.4165 82.0913 27.4165 83.032C27.4165 83.9953 27.3825 84.5847 27.3145 84.8C27.2578 85.0153 27.1898 85.2193 27.1105 85.412C27.0312 85.5933 26.9348 85.735 26.8215 85.837C26.7195 85.9277 26.5835 86.0353 26.4135 86.16C26.2435 86.2733 26.0508 86.3583 25.8355 86.415C25.3142 86.551 24.7305 86.619 24.0845 86.619L21.4155 86.483V74.243L23.7445 74.056C24.7645 74.056 25.4728 74.2033 25.8695 74.498C26.0282 74.6113 26.1528 74.7133 26.2435 74.804C26.3455 74.8947 26.4305 75.0363 26.4985 75.229C26.5665 75.4103 26.6175 75.5633 26.6515 75.688C26.7308 75.9147 26.7705 76.3113 26.7705 76.878ZM23.7275 79.224C24.4075 79.224 24.8325 79.1277 25.0025 78.935C25.1725 78.7423 25.2575 78.272 25.2575 77.524C25.2575 76.776 25.1612 76.2603 24.9685 75.977C24.7872 75.6823 24.3735 75.535 23.7275 75.535H22.9455L23.0645 75.892V78.884L22.9115 79.224H23.7275ZM24.0675 85.259C24.8722 85.259 25.3822 85.1117 25.5975 84.817C25.8242 84.511 25.9375 84.052 25.9375 83.44C25.9375 82.8167 25.9205 82.369 25.8865 82.097C25.8525 81.8137 25.7788 81.536 25.6655 81.264C25.4275 80.7087 24.8948 80.431 24.0675 80.431H22.8945L23.0475 80.788V84.902L22.8945 85.259H24.0675ZM34.7156 86.5C34.1376 86.5 33.7863 86.4547 33.6616 86.364C33.5483 86.2733 33.4406 85.973 33.3386 85.463L32.7606 82.59H30.6186L29.9216 86.5H29.5306C28.9866 86.5 28.641 86.4717 28.4936 86.415C28.3463 86.347 28.2726 86.1997 28.2726 85.973C28.2726 85.735 29.134 81.8307 30.8566 74.26H32.4886L35.2766 86.5H34.7156ZM31.5876 77.354L30.9586 80.669L30.8226 80.958H32.5736C32.5623 80.9467 32.534 80.8957 32.4886 80.805C32.4433 80.703 32.4206 80.6463 32.4206 80.635L31.7576 77.354H31.5876ZM37.0471 86.5H36.6391V74.243L39.0701 74.056C40.0901 74.056 40.7928 74.2033 41.1781 74.498C41.3255 74.6113 41.4501 74.7133 41.5521 74.804C41.6541 74.8947 41.7391 75.0307 41.8071 75.212L41.9431 75.688C42.0225 75.9033 42.0621 76.1867 42.0621 76.538V77.524C42.0621 79.156 41.8298 80.176 41.3651 80.584C41.1611 80.7653 40.8948 80.873 40.5661 80.907L43.2691 86.5H42.7081C42.1415 86.5 41.7561 86.449 41.5521 86.347C41.3481 86.2337 41.1611 85.9843 40.9911 85.599L38.9001 80.958H38.1011L38.2541 81.383L38.2711 85.463C38.2711 85.9843 38.2201 86.2903 38.1181 86.381C38.0161 86.4603 37.6591 86.5 37.0471 86.5ZM39.1041 79.445C39.7161 79.445 40.0845 79.3203 40.2091 79.071C40.3451 78.8217 40.4131 78.4137 40.4131 77.847C40.4131 77.2803 40.4075 76.9233 40.3961 76.776C40.3961 76.6173 40.3735 76.4417 40.3281 76.249C40.2828 76.045 40.2148 75.909 40.1241 75.841C39.8861 75.6597 39.5461 75.569 39.1041 75.569H38.1011L38.2541 75.994V79.054L38.1181 79.445H39.1041Z" fill="#3AAD95"/>
<circle cx="30" cy="30.5" r="29" fill="white" stroke="#3AAD95" stroke-width="2"/>
<path d="M31.5882 28.2059C31.5882 28.7903 31.1139 29.2647 30.5294 29.2647C29.9449 29.2647 29.4706 28.7903 29.4706 28.2059C29.4706 27.6214 29.9449 27.1471 30.5294 27.1471C31.1139 27.1471 31.5882 27.6214 31.5882 28.2059ZM34.7647 25.0294C34.7647 25.6139 34.2903 26.0882 33.7059 26.0882C33.1214 26.0882 32.6471 25.6139 32.6471 25.0294C32.6471 24.445 33.1214 23.9706 33.7059 23.9706C34.2903 23.9706 34.7647 24.445 34.7647 25.0294ZM29.4706 25.0294C28.8861 25.0294 28.4118 24.5551 28.4118 23.9706C28.4118 23.3861 28.8861 22.9118 29.4706 22.9118C30.0564 22.9118 30.5294 23.3861 30.5294 23.9706C30.5294 24.5551 30.0564 25.0294 29.4706 25.0294ZM30.0007 33.8697C26.7209 33.8697 24.1765 30.2569 24.1765 27.1471C24.1765 25.0566 24.6671 20.9205 25.1877 19.3928C25.3766 18.8396 25.9788 18.5433 26.532 18.7336C27.0852 18.9225 27.3815 19.5246 27.1926 20.0765C27.1314 20.2572 27.0675 20.5046 27.0036 20.7941H34.7647V21.8529H26.8038C26.5279 23.5207 26.2941 25.7824 26.2941 27.1471C26.2941 28.9589 27.8857 31.7521 30.0007 31.7521C30.5851 31.7521 31.0595 32.2264 31.0595 32.8109C31.0595 33.3967 30.5851 33.8697 30.0007 33.8697ZM35.0297 44.0882H24.977C25.7409 43.3665 27.0267 42.4898 28.7475 41.9149C29.1784 41.7721 29.4706 41.3671 29.4706 40.9104V34.8932C25.8551 34.5344 23.1176 30.5791 23.1176 27.1471C23.1176 24.3892 23.906 19.9038 24.7514 17.6176H35.2499C36.1076 19.9161 36.8824 24.3349 36.8824 27.1471C36.8824 30.5791 34.1463 34.5344 30.5294 34.8932V40.9104C30.5294 41.3671 30.8216 41.7721 31.2539 41.9149C32.9773 42.4898 34.2672 43.3706 35.0297 44.0882ZM32.6471 40.171V36.5637C36.4148 35.1705 39 30.976 39 27.1471C39 23.6987 38.0064 18.4372 36.915 16.1089C36.7396 15.7365 36.3659 15.5 35.9567 15.5H24.0446C23.6341 15.5 23.2604 15.7365 23.0864 16.1089C22.033 18.3543 21 23.8224 21 27.1471C21 30.976 23.5866 35.1705 27.3529 36.5637V40.171C24.3749 41.3576 22.0588 43.4956 22.0588 45.1471C22.0588 45.7315 22.5332 46.2045 23.1176 46.2045H36.8824C37.4682 46.2045 37.9412 45.7315 37.9412 45.1471C37.9412 43.4956 35.6251 41.3576 32.6471 40.171Z" fill="#3AAD95"/>
</svg>
