<svg width="71" height="98" viewBox="0 0 71 98" fill="none" xmlns="http://www.w3.org/2000/svg">
<path d="M0.850852 86.5H0.442852V74.243L2.87385 74.056C3.89385 74.056 4.59652 74.2033 4.98185 74.498C5.12919 74.6113 5.25385 74.7133 5.35585 74.804C5.45785 74.8947 5.54285 75.0307 5.61085 75.212L5.74685 75.688C5.82619 75.9033 5.86585 76.1867 5.86585 76.538V77.524C5.86585 79.156 5.63352 80.176 5.16885 80.584C4.96485 80.7653 4.69852 80.873 4.36985 80.907L7.07285 86.5H6.51185C5.94519 86.5 5.55985 86.449 5.35585 86.347C5.15185 86.2337 4.96485 85.9843 4.79485 85.599L2.70385 80.958H1.90485L2.05785 81.383L2.07485 85.463C2.07485 85.9843 2.02385 86.2903 1.92185 86.381C1.81985 86.4603 1.46285 86.5 0.850852 86.5ZM2.90785 79.445C3.51985 79.445 3.88818 79.3203 4.01285 79.071C4.14885 78.8217 4.21685 78.4137 4.21685 77.847C4.21685 77.2803 4.21119 76.9233 4.19985 76.776C4.19985 76.6173 4.17719 76.4417 4.13185 76.249C4.08652 76.045 4.01852 75.909 3.92785 75.841C3.68985 75.6597 3.34985 75.569 2.90785 75.569H1.90485L2.05785 75.994V79.054L1.92185 79.445H2.90785ZM16.5372 84.987C17.0812 84.987 17.4779 84.8567 17.7272 84.596C17.9085 84.4033 18.0049 84.0577 18.0162 83.559C18.0275 83.4117 18.0332 83.202 18.0332 82.93C18.0332 82.6467 17.9369 82.3577 17.7442 82.063C17.5515 81.7683 17.3702 81.5473 17.2002 81.4C17.0415 81.2527 16.7469 80.992 16.3162 80.618C15.8855 80.244 15.5795 79.9777 15.3982 79.819C15.2282 79.649 14.9845 79.3883 14.6672 79.037C14.0892 78.4023 13.8002 77.7393 13.8002 77.048C13.8002 75.8467 13.9249 75.11 14.1742 74.838C14.5595 74.4413 14.9732 74.2147 15.4152 74.158C15.8572 74.09 16.3275 74.056 16.8262 74.056L19.1382 74.549C19.0475 75.195 18.9172 75.5747 18.7472 75.688C18.6679 75.756 18.5262 75.79 18.3222 75.79C18.1295 75.79 17.8745 75.756 17.5572 75.688L16.9112 75.569C16.2425 75.569 15.8289 75.705 15.6702 75.977C15.5909 76.1243 15.5399 76.2603 15.5172 76.385C15.5059 76.5097 15.5002 76.6967 15.5002 76.946C15.5002 77.4107 16.0725 78.1247 17.2172 79.088C17.7612 79.5187 18.1862 79.8813 18.4922 80.176C18.7982 80.4707 19.0872 80.8277 19.3592 81.247C19.6312 81.6663 19.7672 82.063 19.7672 82.437C19.7672 82.811 19.7615 83.1 19.7502 83.304C19.7502 83.4967 19.7275 83.7687 19.6822 84.12C19.6482 84.46 19.5915 84.7263 19.5122 84.919C19.4329 85.1117 19.3139 85.3327 19.1552 85.582C18.9965 85.8313 18.8039 86.0183 18.5772 86.143C17.9992 86.4603 17.3079 86.619 16.5032 86.619L8.4282 86.5V74.26H13.2562V75.705H9.9412L10.0942 76.13V78.731L9.9412 79.156H13.0522V80.669H9.9582L10.0942 81.06V84.562L9.9412 84.987H16.5372ZM26.0888 75.705H24.0148L24.1678 76.13V85.463C24.1678 85.9843 24.1111 86.2903 23.9978 86.381C23.8958 86.4603 23.5388 86.5 22.9268 86.5H22.5188V76.13L22.6378 75.705H20.5978V74.26H26.0888V75.705ZM32.785 86.5C32.207 86.5 31.8556 86.4547 31.731 86.364C31.6176 86.2733 31.51 85.973 31.408 85.463L30.83 82.59H28.688L27.991 86.5H27.6C27.056 86.5 26.7103 86.4717 26.563 86.415C26.4156 86.347 26.342 86.1997 26.342 85.973C26.342 85.735 27.2033 81.8307 28.926 74.26H30.558L33.346 86.5H32.785ZM29.657 77.354L29.028 80.669L28.892 80.958H30.643C30.6316 80.9467 30.6033 80.8957 30.558 80.805C30.5126 80.703 30.49 80.6463 30.49 80.635L29.827 77.354H29.657ZM39.1965 81.4V74.26H39.6215C40.2221 74.26 40.5735 74.3053 40.6755 74.396C40.7888 74.4753 40.8455 74.7757 40.8455 75.297V81.4C40.8455 83.1453 40.8001 84.171 40.7095 84.477C40.6301 84.7717 40.5395 85.055 40.4375 85.327C40.3468 85.599 40.2278 85.7973 40.0805 85.922C39.9331 86.0353 39.7518 86.16 39.5365 86.296C39.1738 86.5113 38.5788 86.619 37.7515 86.619C37.0828 86.619 36.6181 86.5623 36.3575 86.449C36.1081 86.3357 35.9098 86.245 35.7625 86.177C35.6151 86.0977 35.4848 85.9673 35.3715 85.786C35.2581 85.6047 35.1618 85.4573 35.0825 85.344C35.0145 85.2307 34.9578 85.038 34.9125 84.766C34.8671 84.4827 34.8275 84.2617 34.7935 84.103C34.7708 83.9443 34.7538 83.678 34.7425 83.304C34.7311 82.9187 34.7255 82.624 34.7255 82.42V74.26H35.1335C35.7455 74.26 36.1025 74.3053 36.2045 74.396C36.3065 74.4753 36.3575 74.7757 36.3575 75.297V81.944C36.3575 83.1793 36.4311 84.018 36.5785 84.46C36.7371 84.8907 37.1281 85.106 37.7515 85.106C37.9895 85.106 38.1878 85.0833 38.3465 85.038C38.5165 84.9813 38.6525 84.868 38.7545 84.698C38.8678 84.528 38.9528 84.375 39.0095 84.239C39.0775 84.0917 39.1228 83.8367 39.1455 83.474C39.1795 82.9413 39.1965 82.25 39.1965 81.4ZM43.1184 86.5H42.7104V74.243L45.1414 74.056C46.1614 74.056 46.8641 74.2033 47.2494 74.498C47.3968 74.6113 47.5214 74.7133 47.6234 74.804C47.7254 74.8947 47.8104 75.0307 47.8784 75.212L48.0144 75.688C48.0938 75.9033 48.1334 76.1867 48.1334 76.538V77.524C48.1334 79.156 47.9011 80.176 47.4364 80.584C47.2324 80.7653 46.9661 80.873 46.6374 80.907L49.3404 86.5H48.7794C48.2128 86.5 47.8274 86.449 47.6234 86.347C47.4194 86.2337 47.2324 85.9843 47.0624 85.599L44.9714 80.958H44.1724L44.3254 81.383L44.3424 85.463C44.3424 85.9843 44.2914 86.2903 44.1894 86.381C44.0874 86.4603 43.7304 86.5 43.1184 86.5ZM45.1754 79.445C45.7874 79.445 46.1558 79.3203 46.2804 79.071C46.4164 78.8217 46.4844 78.4137 46.4844 77.847C46.4844 77.2803 46.4788 76.9233 46.4674 76.776C46.4674 76.6173 46.4448 76.4417 46.3994 76.249C46.3541 76.045 46.2861 75.909 46.1954 75.841C45.9574 75.6597 45.6174 75.569 45.1754 75.569H44.1724L44.3254 75.994V79.054L44.1894 79.445H45.1754ZM56.0935 86.5C55.5155 86.5 55.1642 86.4547 55.0395 86.364C54.9262 86.2733 54.8185 85.973 54.7165 85.463L54.1385 82.59H51.9965L51.2995 86.5H50.9085C50.3645 86.5 50.0189 86.4717 49.8715 86.415C49.7242 86.347 49.6505 86.1997 49.6505 85.973C49.6505 85.735 50.5119 81.8307 52.2345 74.26H53.8665L56.6545 86.5H56.0935ZM52.9655 77.354L52.3365 80.669L52.2005 80.958H53.9515C53.9402 80.9467 53.9119 80.8957 53.8665 80.805C53.8212 80.703 53.7985 80.6463 53.7985 80.635L53.1355 77.354H52.9655ZM62.0291 82.76V74.26H62.4031C63.0151 74.26 63.3721 74.3053 63.4741 74.396C63.5761 74.4753 63.6271 74.7757 63.6271 75.297V86.5H63.1171C62.5504 86.5 62.1991 86.4603 62.0631 86.381C61.9271 86.2903 61.7797 86.0127 61.6211 85.548L59.4281 78.204H59.3431V85.463C59.3431 85.9843 59.2921 86.2903 59.1901 86.381C59.0881 86.4603 58.7311 86.5 58.1191 86.5H57.7621V74.26H58.1361C58.6914 74.26 59.0314 74.2997 59.1561 74.379C59.2807 74.4583 59.4337 74.736 59.6151 75.212L61.9441 82.76H62.0291ZM70.2324 75.705H68.1584L68.3114 76.13V85.463C68.3114 85.9843 68.2547 86.2903 68.1414 86.381C68.0394 86.4603 67.6824 86.5 67.0704 86.5H66.6624V76.13L66.7814 75.705H64.7414V74.26H70.2324V75.705Z" fill="#3AAD95"/>
<circle cx="33" cy="30.5" r="29" fill="white" stroke="#3AAD95" stroke-width="2"/>
<mask id="path-3-outside-1" maskUnits="userSpaceOnUse" x="22" y="15.5" width="22" height="31" fill="black">
<rect fill="white" x="22" y="15.5" width="22" height="31"/>
<path d="M24.0014 28.4491L24.3132 18.3271C24.3235 18.1042 24.4165 17.894 24.5728 17.74C24.7291 17.5861 24.9368 17.5004 25.1527 17.5006C25.3685 17.5004 25.5762 17.5861 25.7325 17.74C25.8889 17.894 25.9818 18.1042 25.9921 18.3271L26.2133 24.9392C26.2154 25.1121 26.2773 25.2785 26.3878 25.4084C26.4982 25.5382 26.65 25.623 26.8156 25.6473C26.9075 25.6575 27.0006 25.6481 27.0889 25.6196C27.1772 25.5912 27.2589 25.5442 27.3289 25.4816C27.3988 25.4191 27.4556 25.3423 27.4957 25.2561C27.5358 25.1699 27.5582 25.0761 27.5617 24.9806L27.7802 18.3685C27.7833 18.1689 27.8512 17.9761 27.973 17.8212C28.0948 17.6663 28.2634 17.5583 28.4518 17.5144C28.5629 17.4952 28.6764 17.4952 28.7876 17.5144C28.9759 17.5583 29.1446 17.6663 29.2664 17.8212C29.3882 17.9761 29.4561 18.1689 29.4591 18.3685L29.6776 24.9806C29.6811 25.0761 29.7036 25.1699 29.7436 25.2561C29.7837 25.3423 29.8405 25.4191 29.9105 25.4816C29.9805 25.5442 30.0622 25.5912 30.1505 25.6196C30.2388 25.6481 30.3318 25.6575 30.4238 25.6473C30.5894 25.623 30.7411 25.5382 30.8516 25.4084C30.962 25.2785 31.0239 25.1121 31.0261 24.9392L31.2446 18.3271C31.2549 18.1042 31.3478 17.894 31.5041 17.74C31.6605 17.5861 31.8681 17.5004 32.084 17.5006C32.2999 17.5004 32.5076 17.5861 32.6639 17.74C32.8202 17.894 32.9132 18.1042 32.9234 18.3271L33.2352 28.4381C33.2514 28.9187 33.143 29.3951 32.9214 29.8179C32.6998 30.2408 32.373 30.5948 31.9747 30.8433L30.4265 31.8268V43.5467C30.4265 43.7995 30.3293 44.042 30.1564 44.2208C29.9835 44.3995 29.749 44.5 29.5044 44.5H27.711C27.4664 44.5 27.2319 44.3995 27.059 44.2208C26.886 44.042 26.7889 43.7995 26.7889 43.5467V31.8075L25.2726 30.857C24.872 30.6097 24.5427 30.2559 24.3192 29.8324C24.0956 29.409 23.9859 28.9313 24.0014 28.4491ZM36.2226 34.7857H38.3545V43.5467C38.3544 43.6726 38.3786 43.7972 38.4254 43.9134C38.4722 44.0296 38.5409 44.1351 38.6273 44.2237C38.7138 44.3123 38.8164 44.3824 38.9292 44.4298C39.042 44.4772 39.1627 44.5011 39.2845 44.5H41.078C41.5869 44.5 42 44.0729 42 42.6348V18.1729C41.9914 18.0507 41.9523 17.933 41.8867 17.831C41.8211 17.729 41.7311 17.6463 41.6255 17.5909C41.5199 17.5355 41.4022 17.5092 41.2838 17.5146C41.1655 17.52 41.0505 17.557 40.95 17.6219C39.2981 18.69 37.9359 20.1748 36.9914 21.9367C36.047 23.6986 35.5513 25.6799 35.551 27.6943V34.1052C35.551 34.2894 35.6218 34.4659 35.7477 34.5961C35.8736 34.7263 36.0444 34.7995 36.2226 34.7995V34.7857Z"/>
</mask>
<path d="M24.3132 18.3271L22.5151 18.2442L22.5145 18.258L22.5141 18.2717L24.3132 18.3271ZM25.9921 18.3271L27.7911 18.267L27.7907 18.2556L27.7902 18.2442L25.9921 18.3271ZM26.2133 24.9392L28.0132 24.9168L28.0129 24.8979L28.0123 24.879L26.2133 24.9392ZM26.8156 25.6473L26.5541 27.4282L26.5848 27.4327L26.6157 27.4361L26.8156 25.6473ZM27.3289 25.4816L28.5282 26.8239L27.3289 25.4816ZM27.5617 24.9806L29.3605 25.0462L29.3607 25.04L27.5617 24.9806ZM27.7802 18.3685L29.5793 18.4279L29.5798 18.412L29.58 18.396L27.7802 18.3685ZM28.4518 17.5144L28.1452 15.7407L28.0941 15.7495L28.0436 15.7613L28.4518 17.5144ZM28.7876 17.5144L29.1957 15.7613L29.1452 15.7495L29.0942 15.7407L28.7876 17.5144ZM29.4591 18.3685L27.6593 18.396L27.6596 18.412L27.6601 18.4279L29.4591 18.3685ZM29.6776 24.9806L27.8786 25.04L27.8788 25.0462L29.6776 24.9806ZM29.9105 25.4816L28.7112 26.8239L29.9105 25.4816ZM30.4238 25.6473L30.6236 27.4361L30.6545 27.4327L30.6853 27.4282L30.4238 25.6473ZM31.0261 24.9392L29.227 24.8798L29.2264 24.8983L29.2262 24.9168L31.0261 24.9392ZM31.2446 18.3271L29.4465 18.2442L29.4459 18.256L29.4456 18.2677L31.2446 18.3271ZM32.9234 18.3271L34.7226 18.2717L34.7222 18.2579L34.7215 18.2442L32.9234 18.3271ZM33.2352 28.4381L31.4361 28.4936L31.4362 28.4985L33.2352 28.4381ZM31.9747 30.8433L31.0219 29.3162L31.0157 29.32L31.0096 29.3239L31.9747 30.8433ZM30.4265 31.8268L29.4613 30.3075L28.6265 30.8378V31.8268H30.4265ZM30.4265 43.5467H28.6265H30.4265ZM29.5044 44.5V46.3V44.5ZM27.711 44.5V42.7V44.5ZM26.7889 31.8075H28.5889V30.8114L27.7449 30.2824L26.7889 31.8075ZM25.2726 30.857L26.2286 29.3319L26.2182 29.3254L25.2726 30.857ZM36.2226 34.7857V32.9857H34.4226V34.7857H36.2226ZM38.3545 34.7857H40.1545V32.9857H38.3545V34.7857ZM38.3545 43.5467L40.1545 43.5468V43.5467H38.3545ZM39.2845 44.5V42.7H39.2764L39.2684 42.7L39.2845 44.5ZM42 18.1729H43.8V18.1093L43.7955 18.0459L42 18.1729ZM35.551 27.6943L33.751 27.694V27.6943H35.551ZM35.551 34.1052H33.751H35.551ZM36.2226 34.7995V36.5995H38.0226V34.7995H36.2226ZM25.8006 28.5046L26.1124 18.3826L22.5141 18.2717L22.2023 28.3937L25.8006 28.5046ZM26.1113 18.4101C26.1011 18.6315 26.0087 18.8524 25.8357 19.0227L23.3099 16.4574C22.8243 16.9356 22.5459 17.5769 22.5151 18.2442L26.1113 18.4101ZM25.8357 19.0227C25.6609 19.1948 25.4165 19.3009 25.1506 19.3006L25.1548 15.7006C24.4571 15.6998 23.7974 15.9775 23.3099 16.4574L25.8357 19.0227ZM25.1548 19.3006C24.8888 19.3009 24.6445 19.1948 24.4697 19.0227L26.9954 16.4574C26.508 15.9775 25.8483 15.6998 25.1506 15.7006L25.1548 19.3006ZM24.4697 19.0227C24.2967 18.8524 24.2042 18.6315 24.194 18.4101L27.7902 18.2442C27.7594 17.5769 27.481 16.9356 26.9954 16.4574L24.4697 19.0227ZM24.1931 18.3873L24.4143 24.9994L28.0123 24.879L27.7911 18.267L24.1931 18.3873ZM24.4134 24.9617C24.4207 25.5476 24.6301 26.1202 25.0167 26.5746L27.7589 24.2421C27.9245 24.4369 28.0102 24.6767 28.0132 24.9168L24.4134 24.9617ZM25.0167 26.5746C25.4044 27.0304 25.9476 27.3391 26.5541 27.4282L27.077 23.8664C27.3524 23.9068 27.5921 24.046 27.7589 24.2421L25.0167 26.5746ZM26.6157 27.4361C26.9618 27.4748 27.3113 27.4393 27.6416 27.3327L26.5361 23.9066C26.6898 23.857 26.8533 23.8403 27.0154 23.8584L26.6157 27.4361ZM27.6416 27.3327C27.9718 27.2261 28.2731 27.0518 28.5282 26.8239L26.1295 24.1394C26.2446 24.0366 26.3826 23.9562 26.5361 23.9066L27.6416 27.3327ZM28.5282 26.8239C28.7831 26.5961 28.9862 26.32 29.128 26.0147L25.8634 24.4975C25.9251 24.3647 26.0146 24.2421 26.1295 24.1394L28.5282 26.8239ZM29.128 26.0147C29.2698 25.7096 29.3483 25.38 29.3605 25.0462L25.7629 24.9149C25.7681 24.7722 25.8017 24.6303 25.8634 24.4975L29.128 26.0147ZM29.3607 25.04L29.5793 18.4279L25.9812 18.309L25.7627 24.9211L29.3607 25.04ZM29.58 18.396C29.5771 18.5849 29.5132 18.7746 29.3879 18.9338L26.558 16.7086C26.1892 17.1777 25.9894 17.7528 25.9804 18.3409L29.58 18.396ZM29.3879 18.9338C29.2619 19.0941 29.0783 19.2167 28.8599 19.2675L28.0436 15.7613C27.4485 15.8998 26.9276 16.2385 26.558 16.7086L29.3879 18.9338ZM28.7584 19.2881C28.6666 19.304 28.5727 19.304 28.4809 19.2881L29.0942 15.7407C28.7801 15.6864 28.4592 15.6864 28.1452 15.7407L28.7584 19.2881ZM28.3794 19.2675C28.161 19.2167 27.9774 19.0941 27.8514 18.9338L30.6813 16.7086C30.3117 16.2385 29.7908 15.8998 29.1957 15.7613L28.3794 19.2675ZM27.8514 18.9338C27.7262 18.7746 27.6622 18.5849 27.6593 18.396L31.2589 18.3409C31.2499 17.7528 31.0502 17.1777 30.6813 16.7086L27.8514 18.9338ZM27.6601 18.4279L27.8786 25.04L31.4766 24.9211L31.2581 18.309L27.6601 18.4279ZM27.8788 25.0462C27.891 25.38 27.9695 25.7096 28.1113 26.0147L31.376 24.4975C31.4377 24.6303 31.4712 24.7722 31.4764 24.9149L27.8788 25.0462ZM28.1113 26.0147C28.2532 26.32 28.4563 26.5961 28.7112 26.8239L31.1098 24.1394C31.2247 24.2421 31.3143 24.3647 31.376 24.4975L28.1113 26.0147ZM28.7112 26.8239C28.9662 27.0518 29.2676 27.2261 29.5977 27.3327L30.7032 23.9066C30.8568 23.9562 30.9947 24.0366 31.1098 24.1394L28.7112 26.8239ZM29.5977 27.3327C29.928 27.4393 30.2776 27.4748 30.6236 27.4361L30.224 23.8584C30.3861 23.8403 30.5496 23.857 30.7032 23.9066L29.5977 27.3327ZM30.6853 27.4282C31.2918 27.3391 31.8349 27.0304 32.2226 26.5746L29.4805 24.2421C29.6473 24.046 29.887 23.9068 30.1623 23.8664L30.6853 27.4282ZM32.2226 26.5746C32.6092 26.1202 32.8186 25.5476 32.8259 24.9617L29.2262 24.9168C29.2292 24.6767 29.3148 24.4369 29.4805 24.2421L32.2226 26.5746ZM32.8251 24.9987L33.0436 18.3866L29.4456 18.2677L29.227 24.8798L32.8251 24.9987ZM33.0427 18.4101C33.0324 18.6315 32.94 18.8524 32.767 19.0227L30.2413 16.4574C29.7556 16.9356 29.4773 17.5769 29.4465 18.2442L33.0427 18.4101ZM32.767 19.0227C32.5922 19.1948 32.3478 19.3009 32.0819 19.3006L32.0861 15.7006C31.3884 15.6998 30.7287 15.9775 30.2413 16.4574L32.767 19.0227ZM32.0861 19.3006C31.8202 19.3009 31.5758 19.1948 31.401 19.0227L33.9268 16.4574C33.4393 15.9775 32.7796 15.6998 32.0819 15.7006L32.0861 19.3006ZM31.401 19.0227C31.228 18.8524 31.1356 18.6315 31.1254 18.4101L34.7215 18.2442C34.6908 17.5769 34.4124 16.9356 33.9268 16.4574L31.401 19.0227ZM31.1243 18.3826L31.4361 28.4936L35.0344 28.3826L34.7226 18.2717L31.1243 18.3826ZM31.4362 28.4985C31.442 28.6702 31.403 28.8376 31.3271 28.9824L34.5157 30.6535C34.8831 29.9526 35.0607 29.1673 35.0342 28.3777L31.4362 28.4985ZM31.3271 28.9824C31.2514 29.1268 31.1438 29.2401 31.0219 29.3162L32.9276 32.3703C33.6022 31.9494 34.1483 31.3547 34.5157 30.6535L31.3271 28.9824ZM31.0096 29.3239L29.4613 30.3075L31.3916 33.3462L32.9399 32.3626L31.0096 29.3239ZM28.6265 31.8268V43.5467H32.2265V31.8268H28.6265ZM28.6265 43.5467C28.6265 43.3411 28.7049 43.1324 28.8626 42.9693L31.4502 45.4722C31.9537 44.9516 32.2265 44.258 32.2265 43.5467H28.6265ZM28.8626 42.9693C29.0223 42.8042 29.2519 42.7 29.5044 42.7V46.3C30.246 46.3 30.9447 45.9948 31.4502 45.4722L28.8626 42.9693ZM29.5044 42.7H27.711V46.3H29.5044V42.7ZM27.711 42.7C27.9635 42.7 28.1931 42.8042 28.3528 42.9693L25.7652 45.4722C26.2707 45.9948 26.9693 46.3 27.711 46.3V42.7ZM28.3528 42.9693C28.5105 43.1324 28.5889 43.3411 28.5889 43.5467H24.9889C24.9889 44.258 25.2616 44.9516 25.7652 45.4722L28.3528 42.9693ZM28.5889 43.5467V31.8075H24.9889V43.5467H28.5889ZM27.7449 30.2824L26.2286 29.3319L24.3166 32.3822L25.8329 33.3327L27.7449 30.2824ZM26.2182 29.3254C26.0956 29.2497 25.9873 29.1367 25.911 28.9921L22.7274 30.6727C23.0981 31.3751 23.6483 31.9696 24.327 32.3887L26.2182 29.3254ZM25.911 28.9921C25.8345 28.8471 25.795 28.6793 25.8005 28.5071L22.2024 28.3912C22.1769 29.1833 22.3568 29.9708 22.7274 30.6727L25.911 28.9921ZM36.2226 36.5857H38.3545V32.9857H36.2226V36.5857ZM36.5545 34.7857V43.5467H40.1545V34.7857H36.5545ZM36.5545 43.5467C36.5544 43.902 36.6224 44.2552 36.7559 44.5864L40.0949 43.2405C40.1347 43.3392 40.1545 43.4432 40.1545 43.5468L36.5545 43.5467ZM36.7559 44.5864C36.8894 44.9176 37.0866 45.2221 37.339 45.4807L39.9157 42.9667C39.9951 43.0481 40.055 43.1417 40.0949 43.2405L36.7559 44.5864ZM37.339 45.4807C37.5914 45.7395 37.8943 45.9473 38.2316 46.0891L39.6267 42.7704C39.7385 42.8174 39.8362 42.8852 39.9157 42.9667L37.339 45.4807ZM38.2316 46.0891C38.5691 46.231 38.9327 46.3032 39.3006 46.2999L39.2684 42.7C39.3928 42.6989 39.5148 42.7234 39.6267 42.7704L38.2316 46.0891ZM39.2845 46.3H41.078V42.7H39.2845V46.3ZM41.078 46.3C41.956 46.3 42.7874 45.8673 43.2852 45.0126C43.6916 44.315 43.8 43.4651 43.8 42.6348H40.2C40.2 42.9137 40.1795 43.0911 40.16 43.1924C40.1399 43.2969 40.1286 43.2795 40.1745 43.2007C40.2274 43.1098 40.3439 42.9611 40.5493 42.8447C40.753 42.7293 40.9481 42.7 41.078 42.7V46.3ZM43.8 42.6348V18.1729H40.2V42.6348H43.8ZM43.7955 18.0459C43.7658 17.6253 43.6313 17.2157 43.4004 16.8569L40.3731 18.805C40.2734 18.6502 40.217 18.4762 40.2045 18.2999L43.7955 18.0459ZM43.4004 16.8569C43.1693 16.4978 42.8478 16.1995 42.4619 15.997L40.7891 19.1847C40.6145 19.0931 40.4729 18.9602 40.3731 18.805L43.4004 16.8569ZM42.4619 15.997C42.0756 15.7943 41.6411 15.6963 41.2014 15.7165L41.3663 19.3127C41.1633 19.322 40.9641 19.2766 40.7891 19.1847L42.4619 15.997ZM41.2014 15.7165C40.7618 15.7366 40.3388 15.8739 39.9735 16.1098L41.9266 19.134C41.7622 19.2401 41.5692 19.3034 41.3663 19.3127L41.2014 15.7165ZM39.9727 16.1103C38.0607 17.3465 36.4908 19.0606 35.405 21.0863L38.5779 22.7871C39.3809 21.289 40.5354 20.0334 41.9274 19.1334L39.9727 16.1103ZM35.405 21.0863C34.3193 23.1118 33.7514 25.3853 33.751 27.694L37.351 27.6945C37.3513 25.9744 37.7747 24.2855 38.5779 22.7871L35.405 21.0863ZM33.751 27.6943V34.1052H37.351V27.6943H33.751ZM33.751 34.1052C33.751 34.7478 33.9973 35.3756 34.4539 35.8476L37.0415 33.3447C37.2462 33.5563 37.351 33.8309 37.351 34.1052H33.751ZM34.4539 35.8476C34.9125 36.3216 35.5474 36.5995 36.2226 36.5995V32.9995C36.5415 32.9995 36.8348 33.131 37.0415 33.3447L34.4539 35.8476ZM38.0226 34.7995V34.7857H34.4226V34.7995H38.0226Z" fill="#3AAD95" mask="url(#path-3-outside-1)"/>
</svg>
