<svg width="26" height="26" viewBox="0 0 26 26" fill="none" xmlns="http://www.w3.org/2000/svg">
<path d="M6.5 4.875C5.63805 4.875 4.8114 5.21741 4.2019 5.8269C3.59241 6.4364 3.25 7.26305 3.25 8.125V8.45163L13 13.702L22.75 8.45325V8.125C22.75 7.26305 22.4076 6.4364 21.7981 5.8269C21.1886 5.21741 20.362 4.875 19.5 4.875H6.5Z" fill="white"/>
<path d="M22.75 10.2979L13.3851 15.3402C13.2668 15.4039 13.1344 15.4373 13 15.4373C12.8656 15.4373 12.7332 15.4039 12.6149 15.3402L3.25 10.2979V17.8752C3.25 18.7372 3.59241 19.5638 4.2019 20.1733C4.8114 20.7828 5.63805 21.1252 6.5 21.1252H19.5C20.362 21.1252 21.1886 20.7828 21.7981 20.1733C22.4076 19.5638 22.75 18.7372 22.75 17.8752V10.2979Z" fill="white"/>
</svg>
