<svg width="19" height="20" viewBox="0 0 19 20" fill="none" xmlns="http://www.w3.org/2000/svg">
<path d="M18.4923 1.63684C18.5965 1.47831 18.6563 1.29405 18.6654 1.1037C18.6746 0.913355 18.6326 0.724068 18.544 0.556037C18.4554 0.388005 18.3236 0.247533 18.1625 0.149606C18.0014 0.051679 17.8172 -2.85092e-05 17.6295 1.17924e-08H1.03652C0.848935 9.83706e-05 0.664886 0.0518398 0.503979 0.149714C0.343072 0.247587 0.211332 0.387928 0.12279 0.555788C0.0342484 0.723649 -0.00777869 0.912742 0.00118481 1.10293C0.0101483 1.29312 0.0697666 1.47727 0.17369 1.63579L8.29593 14.0032V17.8947H5.18476V20H13.4812V17.8947H10.37V14.0032L18.4923 1.63684V1.63684ZM15.6922 2.10526L13.6181 5.26316H5.04786L2.97375 2.10526H15.6922V2.10526Z" fill="#414141"/>
</svg>
