<?xml version="1.0" encoding="UTF-8" standalone="no"?>
<!DOCTYPE svg PUBLIC "-//W3C//DTD SVG 1.1//EN" "http://www.w3.org/Graphics/SVG/1.1/DTD/svg11.dtd">
<svg width="100%" height="100%" viewBox="0 0 19 21" version="1.1" xmlns="http://www.w3.org/2000/svg" xmlns:xlink="http://www.w3.org/1999/xlink" xml:space="preserve" xmlns:serif="http://www.serif.com/" style="fill-rule:evenodd;clip-rule:evenodd;stroke-linecap:round;stroke-linejoin:round;">
    <path d="M15.309,20.077L15.309,12.923" style="fill:none;fill-rule:nonzero;stroke:white;stroke-width:1px;"/>
    <path d="M15.309,4.974L15.309,1" style="fill:none;fill-rule:nonzero;stroke:white;stroke-width:1px;"/>
    <path d="M15.309,9.744L15.309,1" style="fill:none;fill-rule:nonzero;stroke:white;stroke-width:1px;"/>
    <path d="M5.77,17.295C5.77,17.611 5.644,17.914 5.42,18.138C5.197,18.362 4.893,18.487 4.577,18.487L2.192,18.487C1.876,18.487 1.573,18.362 1.349,18.138C1.126,17.914 1,17.611 1,17.295C1,16.979 1.126,16.675 1.349,16.452C1.573,16.228 1.876,16.102 2.192,16.102L4.577,16.102C4.893,16.102 5.197,16.228 5.42,16.452C5.644,16.675 5.77,16.979 5.77,17.295Z" style="fill:none;stroke:white;stroke-width:1px;"/>
    <g transform="matrix(1,0,0,1,5.55725,-12.3969)">
        <path d="M5.77,17.295C5.77,17.611 5.644,17.914 5.42,18.138C5.197,18.362 4.893,18.487 4.577,18.487L2.192,18.487C1.876,18.487 1.573,18.362 1.349,18.138C1.126,17.914 1,17.611 1,17.295C1,16.979 1.126,16.675 1.349,16.452C1.573,16.228 1.876,16.102 2.192,16.102L4.577,16.102C4.893,16.102 5.197,16.228 5.42,16.452C5.644,16.675 5.77,16.979 5.77,17.295Z" style="fill:none;stroke:white;stroke-width:1px;"/>
    </g>
    <g transform="matrix(1,0,0,1,11.8626,-5.9313)">
        <path d="M5.77,17.295C5.77,17.611 5.644,17.914 5.42,18.138C5.197,18.362 4.893,18.487 4.577,18.487L2.192,18.487C1.876,18.487 1.573,18.362 1.349,18.138C1.126,17.914 1,17.611 1,17.295C1,16.979 1.126,16.675 1.349,16.452C1.573,16.228 1.876,16.102 2.192,16.102L4.577,16.102C4.893,16.102 5.197,16.228 5.42,16.452C5.644,16.675 5.77,16.979 5.77,17.295Z" style="fill:none;stroke:white;stroke-width:1px;"/>
    </g>
    <path d="M3.385,20.077L3.385,18.487" style="fill:none;fill-rule:nonzero;stroke:white;stroke-width:1px;"/>
    <path d="M3.385,16.103L3.385,1" style="fill:none;fill-rule:nonzero;stroke:white;stroke-width:1px;"/>
    <path d="M8.949,3.385L8.949,1" style="fill:none;fill-rule:nonzero;stroke:white;stroke-width:1px;"/>
    <path d="M8.949,20.077L8.949,6.563" style="fill:none;fill-rule:nonzero;stroke:white;stroke-width:1px;"/>
</svg>
