<svg width="61" height="44" viewBox="0 0 61 44" fill="none" xmlns="http://www.w3.org/2000/svg">
<path d="M29.4253 25C31.0821 25 32.4253 23.6569 32.4253 22C32.4253 20.3431 31.0821 19 29.4253 19C27.7684 19 26.4253 20.3431 26.4253 22C26.4253 23.6569 27.7684 25 29.4253 25Z" fill="#066EBF"/>
<path d="M30.4253 14.069V12H28.4253V14.069C26.6655 14.2934 25.0299 15.0957 23.7755 16.3502C22.521 17.6047 21.7186 19.2402 21.4943 21H19.4253V23H21.4943C21.7185 24.7599 22.5208 26.3955 23.7753 27.65C25.0298 28.9045 26.6654 29.7068 28.4253 29.931V32H30.4253V29.931C32.1852 29.7068 33.8208 28.9045 35.0753 27.65C36.3298 26.3955 37.1321 24.7599 37.3563 23H39.4253V21H37.3563C37.1319 19.2402 36.3296 17.6047 35.0751 16.3502C33.8206 15.0957 32.1851 14.2934 30.4253 14.069ZM29.4253 28C26.1163 28 23.4253 25.309 23.4253 22C23.4253 18.691 26.1163 16 29.4253 16C32.7343 16 35.4253 18.691 35.4253 22C35.4253 25.309 32.7343 28 29.4253 28Z" fill="#066EBF"/>
</svg>
