<svg width="18" height="16" viewBox="0 0 18 16" fill="none" xmlns="http://www.w3.org/2000/svg">
<path d="M2.91074 0.928711H15.0893C15.7416 0.928668 16.3691 1.17822 16.8432 1.62617C17.3173 2.07412 17.602 2.68651 17.639 3.33771L17.6429 3.48228V12.518C17.6429 13.1702 17.3934 13.7978 16.9454 14.2719C16.4975 14.746 15.8851 15.0307 15.2339 15.0676L15.0893 15.0716H2.91074C2.25849 15.0716 1.63095 14.8221 1.15685 14.3741C0.682744 13.9262 0.398026 13.3138 0.361099 12.6626L0.35717 12.518V3.48228C0.357127 2.83003 0.606677 2.20249 1.05463 1.72839C1.50258 1.25429 2.11497 0.969567 2.76617 0.93264L2.91074 0.928711H15.0893H2.91074ZM16.4643 5.56835L9.27188 9.30835C9.20221 9.34456 9.12601 9.36648 9.04775 9.37282C8.9695 9.37916 8.89076 9.3698 8.81617 9.34528L8.72817 9.30835L1.53574 5.56835V12.518C1.53575 12.8631 1.66552 13.1955 1.89928 13.4494C2.13303 13.7032 2.45369 13.8599 2.7976 13.8883L2.91074 13.893H15.0893C15.4345 13.893 15.7671 13.7631 16.0209 13.5292C16.2748 13.2953 16.4314 12.9744 16.4596 12.6304L16.4643 12.518V5.56835V5.56835ZM15.0893 2.10728H2.91074C2.56566 2.1073 2.23321 2.23706 1.97936 2.47082C1.72552 2.70457 1.56885 3.02523 1.54046 3.36914L1.53574 3.48228V4.23971L9.00003 8.12114L16.4643 4.23971V3.48228C16.4643 3.13708 16.3344 2.80452 16.1005 2.55065C15.8666 2.29679 15.5457 2.1402 15.2017 2.112L15.0893 2.10728Z" fill="#1C9DC6"/>
</svg>
