<svg width="30" height="30" viewBox="0 0 30 30" fill="none" xmlns="http://www.w3.org/2000/svg">
<path d="M15 6.42857C13.9405 6.42857 12.9047 6.74276 12.0237 7.33141C11.1428 7.92006 10.4561 8.75673 10.0506 9.73562C9.64518 10.7145 9.53909 11.7917 9.7458 12.8308C9.9525 13.87 10.4627 14.8246 11.2119 15.5738C11.9611 16.323 12.9157 16.8332 13.9549 17.0399C14.9941 17.2466 16.0712 17.1405 17.0501 16.7351C18.029 16.3296 18.8657 15.643 19.4543 14.762C20.043 13.881 20.3571 12.8453 20.3571 11.7857C20.3571 10.3649 19.7927 9.0023 18.7881 7.99764C17.7834 6.99298 16.4208 6.42857 15 6.42857Z" fill="white"/>
<path d="M15 0C12.0333 0 9.13319 0.879735 6.66645 2.52796C4.19972 4.17618 2.27713 6.51886 1.14181 9.25975C0.00649923 12.0006 -0.290551 15.0166 0.288227 17.9264C0.867006 20.8361 2.29562 23.5088 4.3934 25.6066C6.49119 27.7044 9.16394 29.133 12.0737 29.7118C14.9834 30.2906 17.9994 29.9935 20.7403 28.8582C23.4811 27.7229 25.8238 25.8003 27.472 23.3335C29.1203 20.8668 30 17.9667 30 15C29.9955 11.0231 28.4137 7.21047 25.6016 4.39841C22.7895 1.58635 18.9769 0.0045372 15 0ZM23.5629 24.5636C23.5415 23.1582 22.9689 21.8175 21.9685 20.8303C20.968 19.843 19.6198 19.2884 18.2143 19.2857H11.7857C10.3802 19.2884 9.03197 19.843 8.03153 20.8303C7.03108 21.8175 6.4585 23.1582 6.43715 24.5636C4.49418 22.8287 3.124 20.5445 2.50804 18.0136C1.89208 15.4826 2.0594 12.8243 2.98783 10.3906C3.91627 7.95683 5.56203 5.8625 7.70719 4.38489C9.85235 2.90728 12.3957 2.1161 15.0005 2.1161C17.6054 2.1161 20.1487 2.90728 22.2939 4.38489C24.4391 5.8625 26.0848 7.95683 27.0132 10.3906C27.9417 12.8243 28.109 15.4826 27.493 18.0136C26.8771 20.5445 25.5069 22.8287 23.5639 24.5636H23.5629Z" fill="white"/>
<g clip-path="url(#clip0)">
<path d="M16.0874 15.0813V14.9997V14.9171L16.2935 14.7368C16.3315 14.7033 16.3564 14.6574 16.3638 14.6074C16.3713 14.5573 16.3608 14.5062 16.3343 14.4631L16.081 14.0338C16.0622 14.0012 16.0351 13.9741 16.0025 13.9553C15.9699 13.9365 15.933 13.9265 15.8953 13.9265C15.872 13.9263 15.8488 13.9299 15.8266 13.9372L15.5658 14.0252C15.5208 13.9953 15.4739 13.9684 15.4253 13.9447L15.3705 13.6743C15.3607 13.6249 15.3338 13.5805 15.2946 13.5489C15.2553 13.5173 15.2062 13.5005 15.1559 13.5015H14.6536C14.6033 13.5005 14.5542 13.5173 14.5149 13.5489C14.4757 13.5805 14.4488 13.6249 14.439 13.6743L14.3843 13.9447C14.3353 13.9684 14.288 13.9953 14.2426 14.0252L13.9872 13.9329C13.9648 13.9271 13.9416 13.9249 13.9185 13.9265C13.8808 13.9265 13.8439 13.9365 13.8113 13.9553C13.7787 13.9741 13.7516 14.0012 13.7328 14.0338L13.4795 14.4631C13.4545 14.5061 13.4452 14.5565 13.4532 14.6057C13.4612 14.6548 13.4861 14.6996 13.5236 14.7325L13.7264 14.9181V15.0823L13.5236 15.2626C13.4851 15.2957 13.4595 15.3413 13.4515 15.3914C13.4434 15.4415 13.4534 15.4928 13.4795 15.5363L13.7328 15.9656C13.7516 15.9982 13.7787 16.0252 13.8113 16.0441C13.8439 16.0629 13.8808 16.0728 13.9185 16.0729C13.9418 16.0731 13.965 16.0694 13.9872 16.0622L14.248 15.9742C14.293 16.0041 14.34 16.031 14.3885 16.0546L14.4433 16.3251C14.4531 16.3745 14.48 16.4189 14.5192 16.4505C14.5585 16.4821 14.6076 16.4988 14.6579 16.4979H15.1645C15.2148 16.4988 15.2639 16.4821 15.3032 16.4505C15.3424 16.4189 15.3693 16.3745 15.3791 16.3251L15.4338 16.0546C15.4828 16.031 15.5301 16.0041 15.5755 15.9742L15.8352 16.0622C15.8574 16.0694 15.8806 16.0731 15.9039 16.0729C15.9415 16.0728 15.9785 16.0629 16.0111 16.0441C16.0437 16.0252 16.0707 15.9982 16.0896 15.9656L16.3343 15.5363C16.3593 15.4933 16.3686 15.4428 16.3606 15.3937C16.3526 15.3446 16.3277 15.2997 16.2903 15.2669L16.0874 15.0813ZM15.8953 15.8582L15.5272 15.7338C15.441 15.8067 15.3426 15.8638 15.2364 15.9022L15.1602 16.2875H14.6536L14.5774 15.9065C14.4721 15.867 14.3741 15.81 14.2877 15.738L13.9185 15.8582L13.6652 15.429L13.9571 15.1714C13.9373 15.0603 13.9373 14.9466 13.9571 14.8355L13.6652 14.5704L13.9185 14.1411L14.2866 14.2656C14.3728 14.1926 14.4712 14.1356 14.5774 14.0971L14.6536 13.7119H15.1602L15.2364 14.0928C15.3417 14.1324 15.4397 14.1893 15.5261 14.2613L15.8953 14.1411L16.1486 14.5704L15.8567 14.828C15.8765 14.9391 15.8765 15.0528 15.8567 15.1639L16.1486 15.429L15.8953 15.8582Z" fill="white"/>
<path d="M14.9071 15.6438C14.7797 15.6438 14.6553 15.606 14.5494 15.5353C14.4435 15.4645 14.3609 15.364 14.3122 15.2463C14.2635 15.1286 14.2507 14.9992 14.2756 14.8743C14.3004 14.7493 14.3617 14.6346 14.4518 14.5446C14.5418 14.4545 14.6566 14.3932 14.7815 14.3683C14.9064 14.3435 15.0359 14.3562 15.1535 14.405C15.2712 14.4537 15.3717 14.5362 15.4425 14.6421C15.5133 14.748 15.551 14.8725 15.551 14.9999C15.5519 15.0847 15.5358 15.1688 15.5038 15.2473C15.4717 15.3258 15.4243 15.3971 15.3643 15.4571C15.3044 15.5171 15.233 15.5645 15.1545 15.5965C15.076 15.6286 14.9919 15.6447 14.9071 15.6438ZM14.9071 14.5706C14.8504 14.5693 14.794 14.5795 14.7413 14.6006C14.6886 14.6217 14.6407 14.6533 14.6006 14.6934C14.5605 14.7335 14.5289 14.7814 14.5078 14.834C14.4867 14.8867 14.4765 14.9431 14.4778 14.9999C14.4765 15.0566 14.4867 15.113 14.5078 15.1657C14.5289 15.2184 14.5605 15.2662 14.6006 15.3064C14.6407 15.3465 14.6886 15.3781 14.7413 15.3992C14.794 15.4203 14.8504 15.4305 14.9071 15.4292C14.9638 15.4305 15.0203 15.4203 15.0729 15.3992C15.1256 15.3781 15.1735 15.3465 15.2136 15.3064C15.2537 15.2662 15.2853 15.2184 15.3064 15.1657C15.3275 15.113 15.3377 15.0566 15.3364 14.9999C15.3377 14.9431 15.3275 14.8867 15.3064 14.834C15.2853 14.7814 15.2537 14.7335 15.2136 14.6934C15.1735 14.6533 15.1256 14.6217 15.0729 14.6006C15.0203 14.5795 14.9638 14.5693 14.9071 14.5706Z" fill="white"/>
</g>
<defs>
<clipPath id="clip0">
<rect width="3.43423" height="3.43423" fill="white" transform="translate(13.1899 13.2827)"/>
</clipPath>
</defs>
</svg>
