<svg width="93" height="60" viewBox="0 0 93 60" fill="none" xmlns="http://www.w3.org/2000/svg">
<path d="M0 30C0 13.4315 13.4315 0 30 0H63C79.5685 0 93 13.4315 93 30C93 46.5685 79.5685 60 63 60H30C13.4315 60 0 46.5685 0 30Z" fill="#3AAD95"/>
<path d="M20.2043 26.116H21.9203C22.0883 25.116 22.3643 24.216 22.7483 23.416C23.1323 22.608 23.6083 21.924 24.1763 21.364C24.7443 20.796 25.3923 20.36 26.1203 20.056C26.8563 19.752 27.6563 19.6 28.5203 19.6C29.6003 19.6 30.5243 19.804 31.2923 20.212C32.0603 20.62 32.7203 21.176 33.2723 21.88L32.4683 22.78C32.4043 22.86 32.3363 22.928 32.2643 22.984C32.1923 23.04 32.0923 23.068 31.9643 23.068C31.8283 23.068 31.6843 22.996 31.5323 22.852C31.3883 22.7 31.1963 22.536 30.9563 22.36C30.7163 22.184 30.4123 22.024 30.0443 21.88C29.6763 21.728 29.2003 21.652 28.6163 21.652C27.5043 21.652 26.5763 22.032 25.8323 22.792C25.0963 23.544 24.6003 24.652 24.3443 26.116H30.7763V26.848C30.7763 27 30.7163 27.14 30.5963 27.268C30.4763 27.396 30.3123 27.46 30.1043 27.46H24.1883C24.1803 27.612 24.1723 27.764 24.1643 27.916C24.1643 28.068 24.1643 28.224 24.1643 28.384C24.1643 28.504 24.1643 28.62 24.1643 28.732C24.1643 28.844 24.1683 28.956 24.1763 29.068H29.6483V29.8C29.6483 29.952 29.5883 30.092 29.4683 30.22C29.3483 30.348 29.1843 30.412 28.9763 30.412H24.2963C24.5203 31.98 25.0003 33.16 25.7363 33.952C26.4723 34.736 27.3923 35.128 28.4963 35.128C28.9203 35.128 29.2883 35.088 29.6003 35.008C29.9123 34.928 30.1843 34.828 30.4163 34.708C30.6483 34.58 30.8443 34.444 31.0043 34.3C31.1723 34.156 31.3163 34.024 31.4363 33.904C31.5643 33.776 31.6763 33.672 31.7723 33.592C31.8763 33.512 31.9803 33.472 32.0843 33.472C32.1643 33.472 32.2283 33.484 32.2763 33.508C32.3323 33.532 32.3923 33.576 32.4563 33.64L33.4523 34.576C32.8843 35.4 32.1803 36.04 31.3403 36.496C30.5083 36.952 29.5203 37.18 28.3763 37.18C27.4483 37.18 26.6123 37.024 25.8683 36.712C25.1243 36.392 24.4763 35.94 23.9243 35.356C23.3803 34.764 22.9323 34.052 22.5803 33.22C22.2363 32.38 21.9963 31.444 21.8603 30.412H20.2043V29.068H21.7523C21.7443 28.956 21.7403 28.844 21.7403 28.732C21.7403 28.62 21.7403 28.504 21.7403 28.384C21.7403 28.224 21.7403 28.068 21.7403 27.916C21.7483 27.764 21.7563 27.612 21.7643 27.46H20.2043V26.116ZM33.2861 26.116H35.0021C35.1701 25.116 35.4461 24.216 35.8301 23.416C36.2141 22.608 36.6901 21.924 37.2581 21.364C37.8261 20.796 38.4741 20.36 39.2021 20.056C39.9381 19.752 40.7381 19.6 41.6021 19.6C42.6821 19.6 43.6061 19.804 44.3741 20.212C45.1421 20.62 45.8021 21.176 46.3541 21.88L45.5501 22.78C45.4861 22.86 45.4181 22.928 45.3461 22.984C45.2741 23.04 45.1741 23.068 45.0461 23.068C44.9101 23.068 44.7661 22.996 44.6141 22.852C44.4701 22.7 44.2781 22.536 44.0381 22.36C43.7981 22.184 43.4941 22.024 43.1261 21.88C42.7581 21.728 42.2821 21.652 41.6981 21.652C40.5861 21.652 39.6581 22.032 38.9141 22.792C38.1781 23.544 37.6821 24.652 37.4261 26.116H43.8581V26.848C43.8581 27 43.7981 27.14 43.6781 27.268C43.5581 27.396 43.3941 27.46 43.1861 27.46H37.2701C37.2621 27.612 37.2541 27.764 37.2461 27.916C37.2461 28.068 37.2461 28.224 37.2461 28.384C37.2461 28.504 37.2461 28.62 37.2461 28.732C37.2461 28.844 37.2501 28.956 37.2581 29.068H42.7301V29.8C42.7301 29.952 42.6701 30.092 42.5501 30.22C42.4301 30.348 42.2661 30.412 42.0581 30.412H37.3781C37.6021 31.98 38.0821 33.16 38.8181 33.952C39.5541 34.736 40.4741 35.128 41.5781 35.128C42.0021 35.128 42.3701 35.088 42.6821 35.008C42.9941 34.928 43.2661 34.828 43.4981 34.708C43.7301 34.58 43.9261 34.444 44.0861 34.3C44.2541 34.156 44.3981 34.024 44.5181 33.904C44.6461 33.776 44.7581 33.672 44.8541 33.592C44.9581 33.512 45.0621 33.472 45.1661 33.472C45.2461 33.472 45.3101 33.484 45.3581 33.508C45.4141 33.532 45.4741 33.576 45.5381 33.64L46.5341 34.576C45.9661 35.4 45.2621 36.04 44.4221 36.496C43.5901 36.952 42.6021 37.18 41.4581 37.18C40.5301 37.18 39.6941 37.024 38.9501 36.712C38.2061 36.392 37.5581 35.94 37.0061 35.356C36.4621 34.764 36.0141 34.052 35.6621 33.22C35.3181 32.38 35.0781 31.444 34.9421 30.412H33.2861V29.068H34.8341C34.8261 28.956 34.8221 28.844 34.8221 28.732C34.8221 28.62 34.8221 28.504 34.8221 28.384C34.8221 28.224 34.8221 28.068 34.8221 27.916C34.8301 27.764 34.8381 27.612 34.8461 27.46H33.2861V26.116ZM46.368 26.116H48.084C48.252 25.116 48.528 24.216 48.912 23.416C49.296 22.608 49.772 21.924 50.34 21.364C50.908 20.796 51.556 20.36 52.284 20.056C53.02 19.752 53.82 19.6 54.684 19.6C55.764 19.6 56.688 19.804 57.456 20.212C58.224 20.62 58.884 21.176 59.436 21.88L58.632 22.78C58.568 22.86 58.5 22.928 58.428 22.984C58.356 23.04 58.256 23.068 58.128 23.068C57.992 23.068 57.848 22.996 57.696 22.852C57.552 22.7 57.36 22.536 57.12 22.36C56.88 22.184 56.576 22.024 56.208 21.88C55.84 21.728 55.364 21.652 54.78 21.652C53.668 21.652 52.74 22.032 51.996 22.792C51.26 23.544 50.764 24.652 50.508 26.116H56.94V26.848C56.94 27 56.88 27.14 56.76 27.268C56.64 27.396 56.476 27.46 56.268 27.46H50.352C50.344 27.612 50.336 27.764 50.328 27.916C50.328 28.068 50.328 28.224 50.328 28.384C50.328 28.504 50.328 28.62 50.328 28.732C50.328 28.844 50.332 28.956 50.34 29.068H55.812V29.8C55.812 29.952 55.752 30.092 55.632 30.22C55.512 30.348 55.348 30.412 55.14 30.412H50.46C50.684 31.98 51.164 33.16 51.9 33.952C52.636 34.736 53.556 35.128 54.66 35.128C55.084 35.128 55.452 35.088 55.764 35.008C56.076 34.928 56.348 34.828 56.58 34.708C56.812 34.58 57.008 34.444 57.168 34.3C57.336 34.156 57.48 34.024 57.6 33.904C57.728 33.776 57.84 33.672 57.936 33.592C58.04 33.512 58.144 33.472 58.248 33.472C58.328 33.472 58.392 33.484 58.44 33.508C58.496 33.532 58.556 33.576 58.62 33.64L59.616 34.576C59.048 35.4 58.344 36.04 57.504 36.496C56.672 36.952 55.684 37.18 54.54 37.18C53.612 37.18 52.776 37.024 52.032 36.712C51.288 36.392 50.64 35.94 50.088 35.356C49.544 34.764 49.096 34.052 48.744 33.22C48.4 32.38 48.16 31.444 48.024 30.412H46.368V29.068H47.916C47.908 28.956 47.904 28.844 47.904 28.732C47.904 28.62 47.904 28.504 47.904 28.384C47.904 28.224 47.904 28.068 47.904 27.916C47.912 27.764 47.92 27.612 47.928 27.46H46.368V26.116ZM59.4499 26.116H61.1659C61.3339 25.116 61.6099 24.216 61.9939 23.416C62.3779 22.608 62.8539 21.924 63.4219 21.364C63.9899 20.796 64.6379 20.36 65.3659 20.056C66.1019 19.752 66.9019 19.6 67.7659 19.6C68.8459 19.6 69.7699 19.804 70.5379 20.212C71.3059 20.62 71.9659 21.176 72.5179 21.88L71.7139 22.78C71.6499 22.86 71.5819 22.928 71.5099 22.984C71.4379 23.04 71.3379 23.068 71.2099 23.068C71.0739 23.068 70.9299 22.996 70.7779 22.852C70.6339 22.7 70.4419 22.536 70.2019 22.36C69.9619 22.184 69.6579 22.024 69.2899 21.88C68.9219 21.728 68.4459 21.652 67.8619 21.652C66.7499 21.652 65.8219 22.032 65.0779 22.792C64.3419 23.544 63.8459 24.652 63.5899 26.116H70.0219V26.848C70.0219 27 69.9619 27.14 69.8419 27.268C69.7219 27.396 69.5579 27.46 69.3499 27.46H63.4339C63.4259 27.612 63.4179 27.764 63.4099 27.916C63.4099 28.068 63.4099 28.224 63.4099 28.384C63.4099 28.504 63.4099 28.62 63.4099 28.732C63.4099 28.844 63.4139 28.956 63.4219 29.068H68.8939V29.8C68.8939 29.952 68.8339 30.092 68.7139 30.22C68.5939 30.348 68.4299 30.412 68.2219 30.412H63.5419C63.7659 31.98 64.2459 33.16 64.9819 33.952C65.7179 34.736 66.6379 35.128 67.7419 35.128C68.1659 35.128 68.5339 35.088 68.8459 35.008C69.1579 34.928 69.4299 34.828 69.6619 34.708C69.8939 34.58 70.0899 34.444 70.2499 34.3C70.4179 34.156 70.5619 34.024 70.6819 33.904C70.8099 33.776 70.9219 33.672 71.0179 33.592C71.1219 33.512 71.2259 33.472 71.3299 33.472C71.4099 33.472 71.4739 33.484 71.5219 33.508C71.5779 33.532 71.6379 33.576 71.7019 33.64L72.6979 34.576C72.1299 35.4 71.4259 36.04 70.5859 36.496C69.7539 36.952 68.7659 37.18 67.6219 37.18C66.6939 37.18 65.8579 37.024 65.1139 36.712C64.3699 36.392 63.7219 35.94 63.1699 35.356C62.6259 34.764 62.1779 34.052 61.8259 33.22C61.4819 32.38 61.2419 31.444 61.1059 30.412H59.4499V29.068H60.9979C60.9899 28.956 60.9859 28.844 60.9859 28.732C60.9859 28.62 60.9859 28.504 60.9859 28.384C60.9859 28.224 60.9859 28.068 60.9859 27.916C60.9939 27.764 61.0019 27.612 61.0099 27.46H59.4499V26.116Z" fill="white"/>
</svg>
