<?xml version="1.0" encoding="UTF-8" standalone="no"?>
<!DOCTYPE svg PUBLIC "-//W3C//DTD SVG 1.1//EN" "http://www.w3.org/Graphics/SVG/1.1/DTD/svg11.dtd">
<svg width="100%" height="100%" viewBox="0 0 97 64" version="1.1" xmlns="http://www.w3.org/2000/svg" xmlns:xlink="http://www.w3.org/1999/xlink" xml:space="preserve" xmlns:serif="http://www.serif.com/" style="fill-rule:evenodd;clip-rule:evenodd;stroke-linejoin:round;stroke-miterlimit:2;">
    <g transform="matrix(1,0,0,1,2,2)">
        <path d="M0,30C0,13.432 13.432,0 30,0L63,0C79.569,0 93,13.432 93,30C93,46.569 79.569,60 63,60L30,60C13.432,60 0,46.569 0,30Z" style="fill:white;fill-rule:nonzero;"/>
    </g>
    <g transform="matrix(1,0,0,1,2,2)">
        <path d="M19.704,26.116L21.42,26.116C21.588,25.116 21.864,24.216 22.248,23.416C22.632,22.608 23.108,21.924 23.676,21.364C24.244,20.796 24.892,20.36 25.62,20.056C26.356,19.752 27.156,19.6 28.02,19.6C29.1,19.6 30.024,19.804 30.792,20.212C31.56,20.62 32.22,21.176 32.772,21.88L31.968,22.78C31.904,22.86 31.836,22.928 31.764,22.984C31.692,23.04 31.592,23.068 31.464,23.068C31.328,23.068 31.184,22.996 31.032,22.852C30.888,22.7 30.696,22.536 30.456,22.36C30.216,22.184 29.912,22.024 29.544,21.88C29.176,21.728 28.7,21.652 28.116,21.652C27.004,21.652 26.076,22.032 25.332,22.792C24.596,23.544 24.1,24.652 23.844,26.116L30.276,26.116L30.276,26.848C30.276,27 30.216,27.14 30.096,27.268C29.976,27.396 29.812,27.46 29.604,27.46L23.688,27.46C23.68,27.612 23.672,27.764 23.664,27.916L23.664,28.732C23.664,28.844 23.668,28.956 23.676,29.068L29.148,29.068L29.148,29.8C29.148,29.952 29.088,30.092 28.968,30.22C28.848,30.348 28.684,30.412 28.476,30.412L23.796,30.412C24.02,31.98 24.5,33.16 25.236,33.952C25.972,34.736 26.892,35.128 27.996,35.128C28.42,35.128 28.788,35.088 29.1,35.008C29.412,34.928 29.684,34.828 29.916,34.708C30.148,34.58 30.344,34.444 30.504,34.3C30.672,34.156 30.816,34.024 30.936,33.904C31.064,33.776 31.176,33.672 31.272,33.592C31.376,33.512 31.48,33.472 31.584,33.472C31.664,33.472 31.728,33.484 31.776,33.508C31.832,33.532 31.892,33.576 31.956,33.64L32.952,34.576C32.384,35.4 31.68,36.04 30.84,36.496C30.008,36.952 29.02,37.18 27.876,37.18C26.948,37.18 26.112,37.024 25.368,36.712C24.624,36.392 23.976,35.94 23.424,35.356C22.88,34.764 22.432,34.052 22.08,33.22C21.736,32.38 21.496,31.444 21.36,30.412L19.704,30.412L19.704,29.068L21.252,29.068C21.244,28.956 21.24,28.844 21.24,28.732L21.24,27.916C21.248,27.764 21.256,27.612 21.264,27.46L19.704,27.46L19.704,26.116ZM32.786,26.116L34.502,26.116C34.67,25.116 34.946,24.216 35.33,23.416C35.714,22.608 36.19,21.924 36.758,21.364C37.326,20.796 37.974,20.36 38.702,20.056C39.438,19.752 40.238,19.6 41.102,19.6C42.182,19.6 43.106,19.804 43.874,20.212C44.642,20.62 45.302,21.176 45.854,21.88L45.05,22.78C44.986,22.86 44.918,22.928 44.846,22.984C44.774,23.04 44.674,23.068 44.546,23.068C44.41,23.068 44.266,22.996 44.114,22.852C43.97,22.7 43.778,22.536 43.538,22.36C43.298,22.184 42.994,22.024 42.626,21.88C42.258,21.728 41.782,21.652 41.198,21.652C40.086,21.652 39.158,22.032 38.414,22.792C37.678,23.544 37.182,24.652 36.926,26.116L43.358,26.116L43.358,26.848C43.358,27 43.298,27.14 43.178,27.268C43.058,27.396 42.894,27.46 42.686,27.46L36.77,27.46C36.762,27.612 36.754,27.764 36.746,27.916L36.746,28.732C36.746,28.844 36.75,28.956 36.758,29.068L42.23,29.068L42.23,29.8C42.23,29.952 42.17,30.092 42.05,30.22C41.93,30.348 41.766,30.412 41.558,30.412L36.878,30.412C37.102,31.98 37.582,33.16 38.318,33.952C39.054,34.736 39.974,35.128 41.078,35.128C41.502,35.128 41.87,35.088 42.182,35.008C42.494,34.928 42.766,34.828 42.998,34.708C43.23,34.58 43.426,34.444 43.586,34.3C43.754,34.156 43.898,34.024 44.018,33.904C44.146,33.776 44.258,33.672 44.354,33.592C44.458,33.512 44.562,33.472 44.666,33.472C44.746,33.472 44.81,33.484 44.858,33.508C44.914,33.532 44.974,33.576 45.038,33.64L46.034,34.576C45.466,35.4 44.762,36.04 43.922,36.496C43.09,36.952 42.102,37.18 40.958,37.18C40.03,37.18 39.194,37.024 38.45,36.712C37.706,36.392 37.058,35.94 36.506,35.356C35.962,34.764 35.514,34.052 35.162,33.22C34.818,32.38 34.578,31.444 34.442,30.412L32.786,30.412L32.786,29.068L34.334,29.068C34.326,28.956 34.322,28.844 34.322,28.732L34.322,27.916C34.33,27.764 34.338,27.612 34.346,27.46L32.786,27.46L32.786,26.116ZM45.868,26.116L47.584,26.116C47.752,25.116 48.028,24.216 48.412,23.416C48.796,22.608 49.272,21.924 49.84,21.364C50.408,20.796 51.056,20.36 51.784,20.056C52.52,19.752 53.32,19.6 54.184,19.6C55.264,19.6 56.188,19.804 56.956,20.212C57.724,20.62 58.384,21.176 58.936,21.88L58.132,22.78C58.068,22.86 58,22.928 57.928,22.984C57.856,23.04 57.756,23.068 57.628,23.068C57.492,23.068 57.348,22.996 57.196,22.852C57.052,22.7 56.86,22.536 56.62,22.36C56.38,22.184 56.076,22.024 55.708,21.88C55.34,21.728 54.864,21.652 54.28,21.652C53.168,21.652 52.24,22.032 51.496,22.792C50.76,23.544 50.264,24.652 50.008,26.116L56.44,26.116L56.44,26.848C56.44,27 56.38,27.14 56.26,27.268C56.14,27.396 55.976,27.46 55.768,27.46L49.852,27.46C49.844,27.612 49.836,27.764 49.828,27.916L49.828,28.732C49.828,28.844 49.832,28.956 49.84,29.068L55.312,29.068L55.312,29.8C55.312,29.952 55.252,30.092 55.132,30.22C55.012,30.348 54.848,30.412 54.64,30.412L49.96,30.412C50.184,31.98 50.664,33.16 51.4,33.952C52.136,34.736 53.056,35.128 54.16,35.128C54.584,35.128 54.952,35.088 55.264,35.008C55.576,34.928 55.848,34.828 56.08,34.708C56.312,34.58 56.508,34.444 56.668,34.3C56.836,34.156 56.98,34.024 57.1,33.904C57.228,33.776 57.34,33.672 57.436,33.592C57.54,33.512 57.644,33.472 57.748,33.472C57.828,33.472 57.892,33.484 57.94,33.508C57.996,33.532 58.056,33.576 58.12,33.64L59.116,34.576C58.548,35.4 57.844,36.04 57.004,36.496C56.172,36.952 55.184,37.18 54.04,37.18C53.112,37.18 52.276,37.024 51.532,36.712C50.788,36.392 50.14,35.94 49.588,35.356C49.044,34.764 48.596,34.052 48.244,33.22C47.9,32.38 47.66,31.444 47.524,30.412L45.868,30.412L45.868,29.068L47.416,29.068C47.408,28.956 47.404,28.844 47.404,28.732L47.404,27.916C47.412,27.764 47.42,27.612 47.428,27.46L45.868,27.46L45.868,26.116ZM58.95,26.116L60.666,26.116C60.834,25.116 61.11,24.216 61.494,23.416C61.878,22.608 62.354,21.924 62.922,21.364C63.49,20.796 64.138,20.36 64.866,20.056C65.602,19.752 66.402,19.6 67.266,19.6C68.346,19.6 69.27,19.804 70.038,20.212C70.806,20.62 71.466,21.176 72.018,21.88L71.214,22.78C71.15,22.86 71.082,22.928 71.01,22.984C70.938,23.04 70.838,23.068 70.71,23.068C70.574,23.068 70.43,22.996 70.278,22.852C70.134,22.7 69.942,22.536 69.702,22.36C69.462,22.184 69.158,22.024 68.79,21.88C68.422,21.728 67.946,21.652 67.362,21.652C66.25,21.652 65.322,22.032 64.578,22.792C63.842,23.544 63.346,24.652 63.09,26.116L69.522,26.116L69.522,26.848C69.522,27 69.462,27.14 69.342,27.268C69.222,27.396 69.058,27.46 68.85,27.46L62.934,27.46C62.926,27.612 62.918,27.764 62.91,27.916L62.91,28.732C62.91,28.844 62.914,28.956 62.922,29.068L68.394,29.068L68.394,29.8C68.394,29.952 68.334,30.092 68.214,30.22C68.094,30.348 67.93,30.412 67.722,30.412L63.042,30.412C63.266,31.98 63.746,33.16 64.482,33.952C65.218,34.736 66.138,35.128 67.242,35.128C67.666,35.128 68.034,35.088 68.346,35.008C68.658,34.928 68.93,34.828 69.162,34.708C69.394,34.58 69.59,34.444 69.75,34.3C69.918,34.156 70.062,34.024 70.182,33.904C70.31,33.776 70.422,33.672 70.518,33.592C70.622,33.512 70.726,33.472 70.83,33.472C70.91,33.472 70.974,33.484 71.022,33.508C71.078,33.532 71.138,33.576 71.202,33.64L72.198,34.576C71.63,35.4 70.926,36.04 70.086,36.496C69.254,36.952 68.266,37.18 67.122,37.18C66.194,37.18 65.358,37.024 64.614,36.712C63.87,36.392 63.222,35.94 62.67,35.356C62.126,34.764 61.678,34.052 61.326,33.22C60.982,32.38 60.742,31.444 60.606,30.412L58.95,30.412L58.95,29.068L60.498,29.068C60.49,28.956 60.486,28.844 60.486,28.732L60.486,27.916C60.494,27.764 60.502,27.612 60.51,27.46L58.95,27.46L58.95,26.116Z" style="fill:rgb(58,173,149);fill-rule:nonzero;"/>
    </g>
    <g transform="matrix(1,0,0,1,2,2)">
        <path d="M30,2L63,2L63,-2L30,-2L30,2ZM63,58L30,58L30,62L63,62L63,58ZM30,58C14.536,58 2,45.464 2,30L-2,30C-2,47.673 12.327,62 30,62L30,58ZM91,30C91,45.464 78.464,58 63,58L63,62C80.673,62 95,47.673 95,30L91,30ZM63,2C78.464,2 91,14.536 91,30L95,30C95,12.327 80.673,-2 63,-2L63,2ZM30,-2C12.327,-2 -2,12.327 -2,30L2,30C2,14.536 14.536,2 30,2L30,-2Z" style="fill:rgb(58,173,149);fill-rule:nonzero;"/>
    </g>
</svg>
