<svg width="93" height="61" viewBox="0 0 93 61" fill="none" xmlns="http://www.w3.org/2000/svg">
<path d="M0 30.5C0 13.9315 13.4315 0.5 30 0.5H63C79.5685 0.5 93 13.9315 93 30.5C93 47.0685 79.5685 60.5 63 60.5H30C13.4315 60.5 0 47.0685 0 30.5Z" fill="white"/>
<path d="M19.7043 26.616H21.4203C21.5883 25.616 21.8643 24.716 22.2483 23.916C22.6323 23.108 23.1083 22.424 23.6763 21.864C24.2443 21.296 24.8923 20.86 25.6203 20.556C26.3563 20.252 27.1563 20.1 28.0203 20.1C29.1003 20.1 30.0243 20.304 30.7923 20.712C31.5603 21.12 32.2203 21.676 32.7723 22.38L31.9683 23.28C31.9043 23.36 31.8363 23.428 31.7643 23.484C31.6923 23.54 31.5923 23.568 31.4643 23.568C31.3283 23.568 31.1843 23.496 31.0323 23.352C30.8883 23.2 30.6963 23.036 30.4563 22.86C30.2163 22.684 29.9123 22.524 29.5443 22.38C29.1763 22.228 28.7003 22.152 28.1163 22.152C27.0043 22.152 26.0763 22.532 25.3323 23.292C24.5963 24.044 24.1003 25.152 23.8443 26.616H30.2763V27.348C30.2763 27.5 30.2163 27.64 30.0963 27.768C29.9763 27.896 29.8123 27.96 29.6043 27.96H23.6883C23.6803 28.112 23.6723 28.264 23.6643 28.416C23.6643 28.568 23.6643 28.724 23.6643 28.884C23.6643 29.004 23.6643 29.12 23.6643 29.232C23.6643 29.344 23.6683 29.456 23.6763 29.568H29.1483V30.3C29.1483 30.452 29.0883 30.592 28.9683 30.72C28.8483 30.848 28.6843 30.912 28.4763 30.912H23.7963C24.0203 32.48 24.5003 33.66 25.2363 34.452C25.9723 35.236 26.8923 35.628 27.9963 35.628C28.4203 35.628 28.7883 35.588 29.1003 35.508C29.4123 35.428 29.6843 35.328 29.9163 35.208C30.1483 35.08 30.3443 34.944 30.5043 34.8C30.6723 34.656 30.8163 34.524 30.9363 34.404C31.0643 34.276 31.1763 34.172 31.2723 34.092C31.3763 34.012 31.4803 33.972 31.5843 33.972C31.6643 33.972 31.7283 33.984 31.7763 34.008C31.8323 34.032 31.8923 34.076 31.9563 34.14L32.9523 35.076C32.3843 35.9 31.6803 36.54 30.8403 36.996C30.0083 37.452 29.0203 37.68 27.8763 37.68C26.9483 37.68 26.1123 37.524 25.3683 37.212C24.6243 36.892 23.9763 36.44 23.4243 35.856C22.8803 35.264 22.4323 34.552 22.0803 33.72C21.7363 32.88 21.4963 31.944 21.3603 30.912H19.7043V29.568H21.2523C21.2443 29.456 21.2403 29.344 21.2403 29.232C21.2403 29.12 21.2403 29.004 21.2403 28.884C21.2403 28.724 21.2403 28.568 21.2403 28.416C21.2483 28.264 21.2563 28.112 21.2643 27.96H19.7043V26.616ZM32.7861 26.616H34.5021C34.6701 25.616 34.9461 24.716 35.3301 23.916C35.7141 23.108 36.1901 22.424 36.7581 21.864C37.3261 21.296 37.9741 20.86 38.7021 20.556C39.4381 20.252 40.2381 20.1 41.1021 20.1C42.1821 20.1 43.1061 20.304 43.8741 20.712C44.6421 21.12 45.3021 21.676 45.8541 22.38L45.0501 23.28C44.9861 23.36 44.9181 23.428 44.8461 23.484C44.7741 23.54 44.6741 23.568 44.5461 23.568C44.4101 23.568 44.2661 23.496 44.1141 23.352C43.9701 23.2 43.7781 23.036 43.5381 22.86C43.2981 22.684 42.9941 22.524 42.6261 22.38C42.2581 22.228 41.7821 22.152 41.1981 22.152C40.0861 22.152 39.1581 22.532 38.4141 23.292C37.6781 24.044 37.1821 25.152 36.9261 26.616H43.3581V27.348C43.3581 27.5 43.2981 27.64 43.1781 27.768C43.0581 27.896 42.8941 27.96 42.6861 27.96H36.7701C36.7621 28.112 36.7541 28.264 36.7461 28.416C36.7461 28.568 36.7461 28.724 36.7461 28.884C36.7461 29.004 36.7461 29.12 36.7461 29.232C36.7461 29.344 36.7501 29.456 36.7581 29.568H42.2301V30.3C42.2301 30.452 42.1701 30.592 42.0501 30.72C41.9301 30.848 41.7661 30.912 41.5581 30.912H36.8781C37.1021 32.48 37.5821 33.66 38.3181 34.452C39.0541 35.236 39.9741 35.628 41.0781 35.628C41.5021 35.628 41.8701 35.588 42.1821 35.508C42.4941 35.428 42.7661 35.328 42.9981 35.208C43.2301 35.08 43.4261 34.944 43.5861 34.8C43.7541 34.656 43.8981 34.524 44.0181 34.404C44.1461 34.276 44.2581 34.172 44.3541 34.092C44.4581 34.012 44.5621 33.972 44.6661 33.972C44.7461 33.972 44.8101 33.984 44.8581 34.008C44.9141 34.032 44.9741 34.076 45.0381 34.14L46.0341 35.076C45.4661 35.9 44.7621 36.54 43.9221 36.996C43.0901 37.452 42.1021 37.68 40.9581 37.68C40.0301 37.68 39.1941 37.524 38.4501 37.212C37.7061 36.892 37.0581 36.44 36.5061 35.856C35.9621 35.264 35.5141 34.552 35.1621 33.72C34.8181 32.88 34.5781 31.944 34.4421 30.912H32.7861V29.568H34.3341C34.3261 29.456 34.3221 29.344 34.3221 29.232C34.3221 29.12 34.3221 29.004 34.3221 28.884C34.3221 28.724 34.3221 28.568 34.3221 28.416C34.3301 28.264 34.3381 28.112 34.3461 27.96H32.7861V26.616ZM45.868 26.616H47.584C47.752 25.616 48.028 24.716 48.412 23.916C48.796 23.108 49.272 22.424 49.84 21.864C50.408 21.296 51.056 20.86 51.784 20.556C52.52 20.252 53.32 20.1 54.184 20.1C55.264 20.1 56.188 20.304 56.956 20.712C57.724 21.12 58.384 21.676 58.936 22.38L58.132 23.28C58.068 23.36 58 23.428 57.928 23.484C57.856 23.54 57.756 23.568 57.628 23.568C57.492 23.568 57.348 23.496 57.196 23.352C57.052 23.2 56.86 23.036 56.62 22.86C56.38 22.684 56.076 22.524 55.708 22.38C55.34 22.228 54.864 22.152 54.28 22.152C53.168 22.152 52.24 22.532 51.496 23.292C50.76 24.044 50.264 25.152 50.008 26.616H56.44V27.348C56.44 27.5 56.38 27.64 56.26 27.768C56.14 27.896 55.976 27.96 55.768 27.96H49.852C49.844 28.112 49.836 28.264 49.828 28.416C49.828 28.568 49.828 28.724 49.828 28.884C49.828 29.004 49.828 29.12 49.828 29.232C49.828 29.344 49.832 29.456 49.84 29.568H55.312V30.3C55.312 30.452 55.252 30.592 55.132 30.72C55.012 30.848 54.848 30.912 54.64 30.912H49.96C50.184 32.48 50.664 33.66 51.4 34.452C52.136 35.236 53.056 35.628 54.16 35.628C54.584 35.628 54.952 35.588 55.264 35.508C55.576 35.428 55.848 35.328 56.08 35.208C56.312 35.08 56.508 34.944 56.668 34.8C56.836 34.656 56.98 34.524 57.1 34.404C57.228 34.276 57.34 34.172 57.436 34.092C57.54 34.012 57.644 33.972 57.748 33.972C57.828 33.972 57.892 33.984 57.94 34.008C57.996 34.032 58.056 34.076 58.12 34.14L59.116 35.076C58.548 35.9 57.844 36.54 57.004 36.996C56.172 37.452 55.184 37.68 54.04 37.68C53.112 37.68 52.276 37.524 51.532 37.212C50.788 36.892 50.14 36.44 49.588 35.856C49.044 35.264 48.596 34.552 48.244 33.72C47.9 32.88 47.66 31.944 47.524 30.912H45.868V29.568H47.416C47.408 29.456 47.404 29.344 47.404 29.232C47.404 29.12 47.404 29.004 47.404 28.884C47.404 28.724 47.404 28.568 47.404 28.416C47.412 28.264 47.42 28.112 47.428 27.96H45.868V26.616ZM58.9499 26.616H60.6659C60.8339 25.616 61.1099 24.716 61.4939 23.916C61.8779 23.108 62.3539 22.424 62.9219 21.864C63.4899 21.296 64.1379 20.86 64.8659 20.556C65.6019 20.252 66.4019 20.1 67.2659 20.1C68.3459 20.1 69.2699 20.304 70.0379 20.712C70.8059 21.12 71.4659 21.676 72.0179 22.38L71.2139 23.28C71.1499 23.36 71.0819 23.428 71.0099 23.484C70.9379 23.54 70.8379 23.568 70.7099 23.568C70.5739 23.568 70.4299 23.496 70.2779 23.352C70.1339 23.2 69.9419 23.036 69.7019 22.86C69.4619 22.684 69.1579 22.524 68.7899 22.38C68.4219 22.228 67.9459 22.152 67.3619 22.152C66.2499 22.152 65.3219 22.532 64.5779 23.292C63.8419 24.044 63.3459 25.152 63.0899 26.616H69.5219V27.348C69.5219 27.5 69.4619 27.64 69.3419 27.768C69.2219 27.896 69.0579 27.96 68.8499 27.96H62.9339C62.9259 28.112 62.9179 28.264 62.9099 28.416C62.9099 28.568 62.9099 28.724 62.9099 28.884C62.9099 29.004 62.9099 29.12 62.9099 29.232C62.9099 29.344 62.9139 29.456 62.9219 29.568H68.3939V30.3C68.3939 30.452 68.3339 30.592 68.2139 30.72C68.0939 30.848 67.9299 30.912 67.7219 30.912H63.0419C63.2659 32.48 63.7459 33.66 64.4819 34.452C65.2179 35.236 66.1379 35.628 67.2419 35.628C67.6659 35.628 68.0339 35.588 68.3459 35.508C68.6579 35.428 68.9299 35.328 69.1619 35.208C69.3939 35.08 69.5899 34.944 69.7499 34.8C69.9179 34.656 70.0619 34.524 70.1819 34.404C70.3099 34.276 70.4219 34.172 70.5179 34.092C70.6219 34.012 70.7259 33.972 70.8299 33.972C70.9099 33.972 70.9739 33.984 71.0219 34.008C71.0779 34.032 71.1379 34.076 71.2019 34.14L72.1979 35.076C71.6299 35.9 70.9259 36.54 70.0859 36.996C69.2539 37.452 68.2659 37.68 67.1219 37.68C66.1939 37.68 65.3579 37.524 64.6139 37.212C63.8699 36.892 63.2219 36.44 62.6699 35.856C62.1259 35.264 61.6779 34.552 61.3259 33.72C60.9819 32.88 60.7419 31.944 60.6059 30.912H58.9499V29.568H60.4979C60.4899 29.456 60.4859 29.344 60.4859 29.232C60.4859 29.12 60.4859 29.004 60.4859 28.884C60.4859 28.724 60.4859 28.568 60.4859 28.416C60.4939 28.264 60.5019 28.112 60.5099 27.96H58.9499V26.616Z" fill="#3AAD95"/>
<path d="M30 2.5H63V-1.5H30V2.5ZM63 58.5H30V62.5H63V58.5ZM30 58.5C14.536 58.5 2 45.964 2 30.5H-2C-2 48.1731 12.3269 62.5 30 62.5V58.5ZM91 30.5C91 45.964 78.464 58.5 63 58.5V62.5C80.6731 62.5 95 48.1731 95 30.5H91ZM63 2.5C78.464 2.5 91 15.036 91 30.5H95C95 12.8269 80.6731 -1.5 63 -1.5V2.5ZM30 -1.5C12.3269 -1.5 -2 12.8269 -2 30.5H2C2 15.036 14.536 2.5 30 2.5V-1.5Z" fill="#3AAD95"/>
</svg>
