<svg width="71" height="97" viewBox="0 0 71 97" fill="none" xmlns="http://www.w3.org/2000/svg">
<path d="M0.850852 86H0.442852V73.743L2.87385 73.556C3.89385 73.556 4.59652 73.7033 4.98185 73.998C5.12919 74.1113 5.25385 74.2133 5.35585 74.304C5.45785 74.3947 5.54285 74.5307 5.61085 74.712L5.74685 75.188C5.82619 75.4033 5.86585 75.6867 5.86585 76.038V77.024C5.86585 78.656 5.63352 79.676 5.16885 80.084C4.96485 80.2653 4.69852 80.373 4.36985 80.407L7.07285 86H6.51185C5.94519 86 5.55985 85.949 5.35585 85.847C5.15185 85.7337 4.96485 85.4843 4.79485 85.099L2.70385 80.458H1.90485L2.05785 80.883L2.07485 84.963C2.07485 85.4843 2.02385 85.7903 1.92185 85.881C1.81985 85.9603 1.46285 86 0.850852 86ZM2.90785 78.945C3.51985 78.945 3.88818 78.8203 4.01285 78.571C4.14885 78.3217 4.21685 77.9137 4.21685 77.347C4.21685 76.7803 4.21119 76.4233 4.19985 76.276C4.19985 76.1173 4.17719 75.9417 4.13185 75.749C4.08652 75.545 4.01852 75.409 3.92785 75.341C3.68985 75.1597 3.34985 75.069 2.90785 75.069H1.90485L2.05785 75.494V78.554L1.92185 78.945H2.90785ZM16.5372 84.487C17.0812 84.487 17.4779 84.3567 17.7272 84.096C17.9085 83.9033 18.0049 83.5577 18.0162 83.059C18.0275 82.9117 18.0332 82.702 18.0332 82.43C18.0332 82.1467 17.9369 81.8577 17.7442 81.563C17.5515 81.2683 17.3702 81.0473 17.2002 80.9C17.0415 80.7527 16.7469 80.492 16.3162 80.118C15.8855 79.744 15.5795 79.4777 15.3982 79.319C15.2282 79.149 14.9845 78.8883 14.6672 78.537C14.0892 77.9023 13.8002 77.2393 13.8002 76.548C13.8002 75.3467 13.9249 74.61 14.1742 74.338C14.5595 73.9413 14.9732 73.7147 15.4152 73.658C15.8572 73.59 16.3275 73.556 16.8262 73.556L19.1382 74.049C19.0475 74.695 18.9172 75.0747 18.7472 75.188C18.6679 75.256 18.5262 75.29 18.3222 75.29C18.1295 75.29 17.8745 75.256 17.5572 75.188L16.9112 75.069C16.2425 75.069 15.8289 75.205 15.6702 75.477C15.5909 75.6243 15.5399 75.7603 15.5172 75.885C15.5059 76.0097 15.5002 76.1967 15.5002 76.446C15.5002 76.9107 16.0725 77.6247 17.2172 78.588C17.7612 79.0187 18.1862 79.3813 18.4922 79.676C18.7982 79.9707 19.0872 80.3277 19.3592 80.747C19.6312 81.1663 19.7672 81.563 19.7672 81.937C19.7672 82.311 19.7615 82.6 19.7502 82.804C19.7502 82.9967 19.7275 83.2687 19.6822 83.62C19.6482 83.96 19.5915 84.2263 19.5122 84.419C19.4329 84.6117 19.3139 84.8327 19.1552 85.082C18.9965 85.3313 18.8039 85.5183 18.5772 85.643C17.9992 85.9603 17.3079 86.119 16.5032 86.119L8.4282 86V73.76H13.2562V75.205H9.9412L10.0942 75.63V78.231L9.9412 78.656H13.0522V80.169H9.9582L10.0942 80.56V84.062L9.9412 84.487H16.5372ZM26.0888 75.205H24.0148L24.1678 75.63V84.963C24.1678 85.4843 24.1111 85.7903 23.9978 85.881C23.8958 85.9603 23.5388 86 22.9268 86H22.5188V75.63L22.6378 75.205H20.5978V73.76H26.0888V75.205ZM32.785 86C32.207 86 31.8556 85.9547 31.731 85.864C31.6176 85.7733 31.51 85.473 31.408 84.963L30.83 82.09H28.688L27.991 86H27.6C27.056 86 26.7103 85.9717 26.563 85.915C26.4156 85.847 26.342 85.6997 26.342 85.473C26.342 85.235 27.2033 81.3307 28.926 73.76H30.558L33.346 86H32.785ZM29.657 76.854L29.028 80.169L28.892 80.458H30.643C30.6316 80.4467 30.6033 80.3957 30.558 80.305C30.5126 80.203 30.49 80.1463 30.49 80.135L29.827 76.854H29.657ZM39.1965 80.9V73.76H39.6215C40.2221 73.76 40.5735 73.8053 40.6755 73.896C40.7888 73.9753 40.8455 74.2757 40.8455 74.797V80.9C40.8455 82.6453 40.8001 83.671 40.7095 83.977C40.6301 84.2717 40.5395 84.555 40.4375 84.827C40.3468 85.099 40.2278 85.2973 40.0805 85.422C39.9331 85.5353 39.7518 85.66 39.5365 85.796C39.1738 86.0113 38.5788 86.119 37.7515 86.119C37.0828 86.119 36.6181 86.0623 36.3575 85.949C36.1081 85.8357 35.9098 85.745 35.7625 85.677C35.6151 85.5977 35.4848 85.4673 35.3715 85.286C35.2581 85.1047 35.1618 84.9573 35.0825 84.844C35.0145 84.7307 34.9578 84.538 34.9125 84.266C34.8671 83.9827 34.8275 83.7617 34.7935 83.603C34.7708 83.4443 34.7538 83.178 34.7425 82.804C34.7311 82.4187 34.7255 82.124 34.7255 81.92V73.76H35.1335C35.7455 73.76 36.1025 73.8053 36.2045 73.896C36.3065 73.9753 36.3575 74.2757 36.3575 74.797V81.444C36.3575 82.6793 36.4311 83.518 36.5785 83.96C36.7371 84.3907 37.1281 84.606 37.7515 84.606C37.9895 84.606 38.1878 84.5833 38.3465 84.538C38.5165 84.4813 38.6525 84.368 38.7545 84.198C38.8678 84.028 38.9528 83.875 39.0095 83.739C39.0775 83.5917 39.1228 83.3367 39.1455 82.974C39.1795 82.4413 39.1965 81.75 39.1965 80.9ZM43.1184 86H42.7104V73.743L45.1414 73.556C46.1614 73.556 46.8641 73.7033 47.2494 73.998C47.3968 74.1113 47.5214 74.2133 47.6234 74.304C47.7254 74.3947 47.8104 74.5307 47.8784 74.712L48.0144 75.188C48.0938 75.4033 48.1334 75.6867 48.1334 76.038V77.024C48.1334 78.656 47.9011 79.676 47.4364 80.084C47.2324 80.2653 46.9661 80.373 46.6374 80.407L49.3404 86H48.7794C48.2128 86 47.8274 85.949 47.6234 85.847C47.4194 85.7337 47.2324 85.4843 47.0624 85.099L44.9714 80.458H44.1724L44.3254 80.883L44.3424 84.963C44.3424 85.4843 44.2914 85.7903 44.1894 85.881C44.0874 85.9603 43.7304 86 43.1184 86ZM45.1754 78.945C45.7874 78.945 46.1558 78.8203 46.2804 78.571C46.4164 78.3217 46.4844 77.9137 46.4844 77.347C46.4844 76.7803 46.4788 76.4233 46.4674 76.276C46.4674 76.1173 46.4448 75.9417 46.3994 75.749C46.3541 75.545 46.2861 75.409 46.1954 75.341C45.9574 75.1597 45.6174 75.069 45.1754 75.069H44.1724L44.3254 75.494V78.554L44.1894 78.945H45.1754ZM56.0935 86C55.5155 86 55.1642 85.9547 55.0395 85.864C54.9262 85.7733 54.8185 85.473 54.7165 84.963L54.1385 82.09H51.9965L51.2995 86H50.9085C50.3645 86 50.0189 85.9717 49.8715 85.915C49.7242 85.847 49.6505 85.6997 49.6505 85.473C49.6505 85.235 50.5119 81.3307 52.2345 73.76H53.8665L56.6545 86H56.0935ZM52.9655 76.854L52.3365 80.169L52.2005 80.458H53.9515C53.9402 80.4467 53.9119 80.3957 53.8665 80.305C53.8212 80.203 53.7985 80.1463 53.7985 80.135L53.1355 76.854H52.9655ZM62.0291 82.26V73.76H62.4031C63.0151 73.76 63.3721 73.8053 63.4741 73.896C63.5761 73.9753 63.6271 74.2757 63.6271 74.797V86H63.1171C62.5504 86 62.1991 85.9603 62.0631 85.881C61.9271 85.7903 61.7797 85.5127 61.6211 85.048L59.4281 77.704H59.3431V84.963C59.3431 85.4843 59.2921 85.7903 59.1901 85.881C59.0881 85.9603 58.7311 86 58.1191 86H57.7621V73.76H58.1361C58.6914 73.76 59.0314 73.7997 59.1561 73.879C59.2807 73.9583 59.4337 74.236 59.6151 74.712L61.9441 82.26H62.0291ZM70.2324 75.205H68.1584L68.3114 75.63V84.963C68.3114 85.4843 68.2547 85.7903 68.1414 85.881C68.0394 85.9603 67.6824 86 67.0704 86H66.6624V75.63L66.7814 75.205H64.7414V73.76H70.2324V75.205Z" fill="#3AAD95"/>
<circle cx="33" cy="30" r="29" fill="#3AAD95" stroke="#3AAD95" stroke-width="2"/>
<mask id="path-3-outside-1" maskUnits="userSpaceOnUse" x="22" y="15" width="22" height="31" fill="black">
<rect fill="white" x="22" y="15" width="22" height="31"/>
<path d="M24.0014 27.9491L24.3132 17.8271C24.3235 17.6042 24.4165 17.394 24.5728 17.24C24.7291 17.0861 24.9368 17.0004 25.1527 17.0006C25.3685 17.0004 25.5762 17.0861 25.7325 17.24C25.8889 17.394 25.9818 17.6042 25.9921 17.8271L26.2133 24.4392C26.2154 24.6121 26.2773 24.7785 26.3878 24.9084C26.4982 25.0382 26.65 25.123 26.8156 25.1473C26.9075 25.1575 27.0006 25.1481 27.0889 25.1196C27.1772 25.0912 27.2589 25.0442 27.3289 24.9816C27.3988 24.9191 27.4556 24.8423 27.4957 24.7561C27.5358 24.6699 27.5582 24.5761 27.5617 24.4806L27.7802 17.8685C27.7833 17.6689 27.8512 17.4761 27.973 17.3212C28.0948 17.1663 28.2634 17.0583 28.4518 17.0144C28.5629 16.9952 28.6764 16.9952 28.7876 17.0144C28.9759 17.0583 29.1446 17.1663 29.2664 17.3212C29.3882 17.4761 29.4561 17.6689 29.4591 17.8685L29.6776 24.4806C29.6811 24.5761 29.7036 24.6699 29.7436 24.7561C29.7837 24.8423 29.8405 24.9191 29.9105 24.9816C29.9805 25.0442 30.0622 25.0912 30.1505 25.1196C30.2388 25.1481 30.3318 25.1575 30.4238 25.1473C30.5894 25.123 30.7411 25.0382 30.8516 24.9084C30.962 24.7785 31.0239 24.6121 31.0261 24.4392L31.2446 17.8271C31.2549 17.6042 31.3478 17.394 31.5041 17.24C31.6605 17.0861 31.8681 17.0004 32.084 17.0006C32.2999 17.0004 32.5076 17.0861 32.6639 17.24C32.8202 17.394 32.9132 17.6042 32.9234 17.8271L33.2352 27.9381C33.2514 28.4187 33.143 28.8951 32.9214 29.3179C32.6998 29.7408 32.373 30.0948 31.9747 30.3433L30.4265 31.3268V43.0467C30.4265 43.2995 30.3293 43.542 30.1564 43.7208C29.9835 43.8995 29.749 44 29.5044 44H27.711C27.4664 44 27.2319 43.8995 27.059 43.7208C26.886 43.542 26.7889 43.2995 26.7889 43.0467V31.3075L25.2726 30.357C24.872 30.1097 24.5427 29.7559 24.3192 29.3324C24.0956 28.909 23.9859 28.4313 24.0014 27.9491ZM36.2226 34.2857H38.3545V43.0467C38.3544 43.1726 38.3786 43.2972 38.4254 43.4134C38.4722 43.5296 38.5409 43.6351 38.6273 43.7237C38.7138 43.8123 38.8164 43.8824 38.9292 43.9298C39.042 43.9772 39.1627 44.0011 39.2845 44H41.078C41.5869 44 42 43.5729 42 42.1348V17.6729C41.9914 17.5507 41.9523 17.433 41.8867 17.331C41.8211 17.229 41.7311 17.1463 41.6255 17.0909C41.5199 17.0355 41.4022 17.0092 41.2838 17.0146C41.1655 17.02 41.0505 17.057 40.95 17.1219C39.2981 18.19 37.9359 19.6748 36.9914 21.4367C36.047 23.1986 35.5513 25.1799 35.551 27.1943V33.6052C35.551 33.7894 35.6218 33.9659 35.7477 34.0961C35.8736 34.2263 36.0444 34.2995 36.2226 34.2995V34.2857Z"/>
</mask>
<path d="M24.3132 17.8271L22.5151 17.7442L22.5145 17.758L22.5141 17.7717L24.3132 17.8271ZM25.9921 17.8271L27.7911 17.767L27.7907 17.7556L27.7902 17.7442L25.9921 17.8271ZM26.2133 24.4392L28.0132 24.4168L28.0129 24.3979L28.0123 24.379L26.2133 24.4392ZM26.8156 25.1473L26.5541 26.9282L26.5848 26.9327L26.6157 26.9361L26.8156 25.1473ZM27.3289 24.9816L28.5282 26.3239L27.3289 24.9816ZM27.5617 24.4806L29.3605 24.5462L29.3607 24.54L27.5617 24.4806ZM27.7802 17.8685L29.5793 17.9279L29.5798 17.912L29.58 17.896L27.7802 17.8685ZM28.4518 17.0144L28.1452 15.2407L28.0941 15.2495L28.0436 15.2613L28.4518 17.0144ZM28.7876 17.0144L29.1957 15.2613L29.1452 15.2495L29.0942 15.2407L28.7876 17.0144ZM29.4591 17.8685L27.6593 17.896L27.6596 17.912L27.6601 17.9279L29.4591 17.8685ZM29.6776 24.4806L27.8786 24.54L27.8788 24.5462L29.6776 24.4806ZM29.9105 24.9816L28.7112 26.3239L29.9105 24.9816ZM30.4238 25.1473L30.6236 26.9361L30.6545 26.9327L30.6853 26.9282L30.4238 25.1473ZM31.0261 24.4392L29.227 24.3798L29.2264 24.3983L29.2262 24.4168L31.0261 24.4392ZM31.2446 17.8271L29.4465 17.7442L29.4459 17.756L29.4456 17.7677L31.2446 17.8271ZM32.9234 17.8271L34.7226 17.7717L34.7222 17.7579L34.7215 17.7442L32.9234 17.8271ZM33.2352 27.9381L31.4361 27.9936L31.4362 27.9985L33.2352 27.9381ZM31.9747 30.3433L31.0219 28.8162L31.0157 28.82L31.0096 28.8239L31.9747 30.3433ZM30.4265 31.3268L29.4613 29.8075L28.6265 30.3378V31.3268H30.4265ZM30.4265 43.0467H28.6265H30.4265ZM29.5044 44V45.8V44ZM27.711 44V42.2V44ZM26.7889 31.3075H28.5889V30.3114L27.7449 29.7824L26.7889 31.3075ZM25.2726 30.357L26.2286 28.8319L26.2182 28.8254L25.2726 30.357ZM36.2226 34.2857V32.4857H34.4226V34.2857H36.2226ZM38.3545 34.2857H40.1545V32.4857H38.3545V34.2857ZM38.3545 43.0467L40.1545 43.0468V43.0467H38.3545ZM39.2845 44V42.2H39.2764L39.2684 42.2L39.2845 44ZM42 17.6729H43.8V17.6093L43.7955 17.5459L42 17.6729ZM35.551 27.1943L33.751 27.194V27.1943H35.551ZM35.551 33.6052H33.751H35.551ZM36.2226 34.2995V36.0995H38.0226V34.2995H36.2226ZM25.8006 28.0046L26.1124 17.8826L22.5141 17.7717L22.2023 27.8937L25.8006 28.0046ZM26.1113 17.9101C26.1011 18.1315 26.0087 18.3524 25.8357 18.5227L23.3099 15.9574C22.8243 16.4356 22.5459 17.0769 22.5151 17.7442L26.1113 17.9101ZM25.8357 18.5227C25.6609 18.6948 25.4165 18.8009 25.1506 18.8006L25.1548 15.2006C24.4571 15.1998 23.7974 15.4775 23.3099 15.9574L25.8357 18.5227ZM25.1548 18.8006C24.8888 18.8009 24.6445 18.6948 24.4697 18.5227L26.9954 15.9574C26.508 15.4775 25.8483 15.1998 25.1506 15.2006L25.1548 18.8006ZM24.4697 18.5227C24.2967 18.3524 24.2042 18.1315 24.194 17.9101L27.7902 17.7442C27.7594 17.0769 27.481 16.4356 26.9954 15.9574L24.4697 18.5227ZM24.1931 17.8873L24.4143 24.4994L28.0123 24.379L27.7911 17.767L24.1931 17.8873ZM24.4134 24.4617C24.4207 25.0476 24.6301 25.6202 25.0167 26.0746L27.7589 23.7421C27.9245 23.9369 28.0102 24.1767 28.0132 24.4168L24.4134 24.4617ZM25.0167 26.0746C25.4044 26.5304 25.9476 26.8391 26.5541 26.9282L27.077 23.3664C27.3524 23.4068 27.5921 23.546 27.7589 23.7421L25.0167 26.0746ZM26.6157 26.9361C26.9618 26.9748 27.3113 26.9393 27.6416 26.8327L26.5361 23.4066C26.6898 23.357 26.8533 23.3403 27.0154 23.3584L26.6157 26.9361ZM27.6416 26.8327C27.9718 26.7261 28.2731 26.5518 28.5282 26.3239L26.1295 23.6394C26.2446 23.5366 26.3826 23.4562 26.5361 23.4066L27.6416 26.8327ZM28.5282 26.3239C28.7831 26.0961 28.9862 25.82 29.128 25.5147L25.8634 23.9975C25.9251 23.8647 26.0146 23.7421 26.1295 23.6394L28.5282 26.3239ZM29.128 25.5147C29.2698 25.2096 29.3483 24.88 29.3605 24.5462L25.7629 24.4149C25.7681 24.2722 25.8017 24.1303 25.8634 23.9975L29.128 25.5147ZM29.3607 24.54L29.5793 17.9279L25.9812 17.809L25.7627 24.4211L29.3607 24.54ZM29.58 17.896C29.5771 18.0849 29.5132 18.2746 29.3879 18.4338L26.558 16.2086C26.1892 16.6777 25.9894 17.2528 25.9804 17.8409L29.58 17.896ZM29.3879 18.4338C29.2619 18.5941 29.0783 18.7167 28.8599 18.7675L28.0436 15.2613C27.4485 15.3998 26.9276 15.7385 26.558 16.2086L29.3879 18.4338ZM28.7584 18.7881C28.6666 18.804 28.5727 18.804 28.4809 18.7881L29.0942 15.2407C28.7801 15.1864 28.4592 15.1864 28.1452 15.2407L28.7584 18.7881ZM28.3794 18.7675C28.161 18.7167 27.9774 18.5941 27.8514 18.4338L30.6813 16.2086C30.3117 15.7385 29.7908 15.3998 29.1957 15.2613L28.3794 18.7675ZM27.8514 18.4338C27.7262 18.2746 27.6622 18.0849 27.6593 17.896L31.2589 17.8409C31.2499 17.2528 31.0502 16.6777 30.6813 16.2086L27.8514 18.4338ZM27.6601 17.9279L27.8786 24.54L31.4766 24.4211L31.2581 17.809L27.6601 17.9279ZM27.8788 24.5462C27.891 24.88 27.9695 25.2096 28.1113 25.5147L31.376 23.9975C31.4377 24.1303 31.4712 24.2722 31.4764 24.4149L27.8788 24.5462ZM28.1113 25.5147C28.2532 25.82 28.4563 26.0961 28.7112 26.3239L31.1098 23.6394C31.2247 23.7421 31.3143 23.8647 31.376 23.9975L28.1113 25.5147ZM28.7112 26.3239C28.9662 26.5518 29.2676 26.7261 29.5977 26.8327L30.7032 23.4066C30.8568 23.4562 30.9947 23.5366 31.1098 23.6394L28.7112 26.3239ZM29.5977 26.8327C29.928 26.9393 30.2776 26.9748 30.6236 26.9361L30.224 23.3584C30.3861 23.3403 30.5496 23.357 30.7032 23.4066L29.5977 26.8327ZM30.6853 26.9282C31.2918 26.8391 31.8349 26.5304 32.2226 26.0746L29.4805 23.7421C29.6473 23.546 29.887 23.4068 30.1623 23.3664L30.6853 26.9282ZM32.2226 26.0746C32.6092 25.6202 32.8186 25.0476 32.8259 24.4617L29.2262 24.4168C29.2292 24.1767 29.3148 23.9369 29.4805 23.7421L32.2226 26.0746ZM32.8251 24.4987L33.0436 17.8866L29.4456 17.7677L29.227 24.3798L32.8251 24.4987ZM33.0427 17.9101C33.0324 18.1315 32.94 18.3524 32.767 18.5227L30.2413 15.9574C29.7556 16.4356 29.4773 17.0769 29.4465 17.7442L33.0427 17.9101ZM32.767 18.5227C32.5922 18.6948 32.3478 18.8009 32.0819 18.8006L32.0861 15.2006C31.3884 15.1998 30.7287 15.4775 30.2413 15.9574L32.767 18.5227ZM32.0861 18.8006C31.8202 18.8009 31.5758 18.6948 31.401 18.5227L33.9268 15.9574C33.4393 15.4775 32.7796 15.1998 32.0819 15.2006L32.0861 18.8006ZM31.401 18.5227C31.228 18.3524 31.1356 18.1315 31.1254 17.9101L34.7215 17.7442C34.6908 17.0769 34.4124 16.4356 33.9268 15.9574L31.401 18.5227ZM31.1243 17.8826L31.4361 27.9936L35.0344 27.8826L34.7226 17.7717L31.1243 17.8826ZM31.4362 27.9985C31.442 28.1702 31.403 28.3376 31.3271 28.4824L34.5157 30.1535C34.8831 29.4526 35.0607 28.6673 35.0342 27.8777L31.4362 27.9985ZM31.3271 28.4824C31.2514 28.6268 31.1438 28.7401 31.0219 28.8162L32.9276 31.8703C33.6022 31.4494 34.1483 30.8547 34.5157 30.1535L31.3271 28.4824ZM31.0096 28.8239L29.4613 29.8075L31.3916 32.8462L32.9399 31.8626L31.0096 28.8239ZM28.6265 31.3268V43.0467H32.2265V31.3268H28.6265ZM28.6265 43.0467C28.6265 42.8411 28.7049 42.6324 28.8626 42.4693L31.4502 44.9722C31.9537 44.4516 32.2265 43.758 32.2265 43.0467H28.6265ZM28.8626 42.4693C29.0223 42.3042 29.2519 42.2 29.5044 42.2V45.8C30.246 45.8 30.9447 45.4948 31.4502 44.9722L28.8626 42.4693ZM29.5044 42.2H27.711V45.8H29.5044V42.2ZM27.711 42.2C27.9635 42.2 28.1931 42.3042 28.3528 42.4693L25.7652 44.9722C26.2707 45.4948 26.9693 45.8 27.711 45.8V42.2ZM28.3528 42.4693C28.5105 42.6324 28.5889 42.8411 28.5889 43.0467H24.9889C24.9889 43.758 25.2616 44.4516 25.7652 44.9722L28.3528 42.4693ZM28.5889 43.0467V31.3075H24.9889V43.0467H28.5889ZM27.7449 29.7824L26.2286 28.8319L24.3166 31.8822L25.8329 32.8327L27.7449 29.7824ZM26.2182 28.8254C26.0956 28.7497 25.9873 28.6367 25.911 28.4921L22.7274 30.1727C23.0981 30.8751 23.6483 31.4696 24.327 31.8887L26.2182 28.8254ZM25.911 28.4921C25.8345 28.3471 25.795 28.1793 25.8005 28.0071L22.2024 27.8912C22.1769 28.6833 22.3568 29.4708 22.7274 30.1727L25.911 28.4921ZM36.2226 36.0857H38.3545V32.4857H36.2226V36.0857ZM36.5545 34.2857V43.0467H40.1545V34.2857H36.5545ZM36.5545 43.0467C36.5544 43.402 36.6224 43.7552 36.7559 44.0864L40.0949 42.7405C40.1347 42.8392 40.1545 42.9432 40.1545 43.0468L36.5545 43.0467ZM36.7559 44.0864C36.8894 44.4176 37.0866 44.7221 37.339 44.9807L39.9157 42.4667C39.9951 42.5481 40.055 42.6417 40.0949 42.7405L36.7559 44.0864ZM37.339 44.9807C37.5914 45.2395 37.8943 45.4473 38.2316 45.5891L39.6267 42.2704C39.7385 42.3174 39.8362 42.3852 39.9157 42.4667L37.339 44.9807ZM38.2316 45.5891C38.5691 45.731 38.9327 45.8032 39.3006 45.7999L39.2684 42.2C39.3928 42.1989 39.5148 42.2234 39.6267 42.2704L38.2316 45.5891ZM39.2845 45.8H41.078V42.2H39.2845V45.8ZM41.078 45.8C41.956 45.8 42.7874 45.3673 43.2852 44.5126C43.6916 43.815 43.8 42.9651 43.8 42.1348H40.2C40.2 42.4137 40.1795 42.5911 40.16 42.6924C40.1399 42.7969 40.1286 42.7795 40.1745 42.7007C40.2274 42.6098 40.3439 42.4611 40.5493 42.3447C40.753 42.2293 40.9481 42.2 41.078 42.2V45.8ZM43.8 42.1348V17.6729H40.2V42.1348H43.8ZM43.7955 17.5459C43.7658 17.1253 43.6313 16.7157 43.4004 16.3569L40.3731 18.305C40.2734 18.1502 40.217 17.9762 40.2045 17.7999L43.7955 17.5459ZM43.4004 16.3569C43.1693 15.9978 42.8478 15.6995 42.4619 15.497L40.7891 18.6847C40.6145 18.5931 40.4729 18.4602 40.3731 18.305L43.4004 16.3569ZM42.4619 15.497C42.0756 15.2943 41.6411 15.1963 41.2014 15.2165L41.3663 18.8127C41.1633 18.822 40.9641 18.7766 40.7891 18.6847L42.4619 15.497ZM41.2014 15.2165C40.7618 15.2366 40.3388 15.3739 39.9735 15.6098L41.9266 18.634C41.7622 18.7401 41.5692 18.8034 41.3663 18.8127L41.2014 15.2165ZM39.9727 15.6103C38.0607 16.8465 36.4908 18.5606 35.405 20.5863L38.5779 22.2871C39.3809 20.789 40.5354 19.5334 41.9274 18.6334L39.9727 15.6103ZM35.405 20.5863C34.3193 22.6118 33.7514 24.8853 33.751 27.194L37.351 27.1945C37.3513 25.4744 37.7747 23.7855 38.5779 22.2871L35.405 20.5863ZM33.751 27.1943V33.6052H37.351V27.1943H33.751ZM33.751 33.6052C33.751 34.2478 33.9973 34.8756 34.4539 35.3476L37.0415 32.8447C37.2462 33.0563 37.351 33.3309 37.351 33.6052H33.751ZM34.4539 35.3476C34.9125 35.8216 35.5474 36.0995 36.2226 36.0995V32.4995C36.5415 32.4995 36.8348 32.631 37.0415 32.8447L34.4539 35.3476ZM38.0226 34.2995V34.2857H34.4226V34.2995H38.0226Z" fill="white" mask="url(#path-3-outside-1)"/>
</svg>
