<svg width="26" height="26" viewBox="0 0 26 26" fill="none" xmlns="http://www.w3.org/2000/svg">
<path d="M6.75442 6.99059C5.37322 8.42415 4.52763 10.2895 4.35979 12.2731C4.19195 14.2567 4.71209 16.2376 5.83278 17.8829C6.95348 19.5281 8.6064 20.7374 10.5137 21.3075C12.421 21.8776 14.4664 21.7737 16.3062 21.0133C16.4308 20.2008 16.1578 19.4208 16.0462 19.1478C15.797 18.5411 14.9758 17.5043 13.6054 16.0668C13.2393 15.6822 13.2631 15.3864 13.3942 14.51L13.4083 14.4114C13.4971 13.8113 13.6466 13.4559 15.667 13.1353C16.694 12.9728 16.9638 13.3823 17.3375 13.951L17.4632 14.1373C17.8185 14.6573 18.0818 14.7765 18.4793 14.9563C18.6581 15.0376 18.8802 15.1405 19.1781 15.3084C19.8844 15.7125 19.8844 16.1686 19.8844 17.1674V17.2812C19.8844 17.7048 19.8433 18.0774 19.7783 18.4013C20.6096 17.358 21.1889 16.1369 21.4711 14.833C21.7533 13.5292 21.7307 12.1778 21.4052 10.8841C21.0797 9.59042 20.46 8.38928 19.5944 7.37424C18.7288 6.35919 17.6406 5.55762 16.4145 5.03192C15.8154 5.436 14.9932 6.00909 14.7061 6.40234C14.5598 6.60275 14.3518 7.62867 13.6769 7.71317C13.5014 7.73484 13.2642 7.71967 13.0128 7.70342C12.339 7.66009 11.4182 7.6005 11.1235 8.40109C10.9361 8.90809 10.9036 10.2861 11.5092 11.0011C11.6067 11.1148 11.6251 11.3261 11.559 11.5633C11.4723 11.8743 11.2979 12.0638 11.2427 12.1028C11.1387 12.0422 10.9307 11.8006 10.7888 11.637C10.4497 11.2416 10.025 10.7487 9.47684 10.597C9.2775 10.5418 9.05867 10.4963 8.84525 10.4508C8.2505 10.3262 7.57775 10.1843 7.42067 9.85059C7.30584 9.60575 7.30692 9.26884 7.30692 8.9135C7.30692 8.46175 7.30692 7.9515 7.08592 7.45642C7.00909 7.27974 6.89618 7.12107 6.75442 6.99059ZM12.9998 23.8332C7.01659 23.8332 2.1665 18.9831 2.1665 12.9998C2.1665 7.01659 7.01659 2.1665 12.9998 2.1665C18.9831 2.1665 23.8332 7.01659 23.8332 12.9998C23.8332 18.9831 18.9831 23.8332 12.9998 23.8332Z" fill="white"/>
</svg>
