<svg width="17" height="17" viewBox="0 0 17 17" fill="none" xmlns="http://www.w3.org/2000/svg">
<path d="M3.8824 1.41131C3.81968 1.33063 3.74051 1.26421 3.65014 1.21648C3.55978 1.16874 3.46029 1.14078 3.35829 1.13445C3.25629 1.12812 3.15411 1.14356 3.05854 1.17976C2.96296 1.21595 2.87618 1.27207 2.80397 1.34438L1.70534 2.44406C1.19215 2.95831 1.00303 3.68613 1.22721 4.32469C2.15769 6.96775 3.67128 9.36741 5.65572 11.3457C7.63401 13.3301 10.0337 14.8437 12.6767 15.7742C13.3153 15.9984 14.0431 15.8092 14.5573 15.2961L15.656 14.1974C15.7283 14.1252 15.7844 14.0384 15.8206 13.9429C15.8568 13.8473 15.8722 13.7451 15.8659 13.6431C15.8596 13.5411 15.8316 13.4416 15.7839 13.3513C15.7361 13.2609 15.6697 13.1817 15.589 13.119L13.1378 11.2129C13.0516 11.146 12.9514 11.0996 12.8446 11.0772C12.7379 11.0547 12.6274 11.0568 12.5216 11.0832L10.1947 11.6644C9.88413 11.7421 9.55873 11.7379 9.2502 11.6525C8.94167 11.567 8.66053 11.4031 8.43415 11.1767L5.82465 8.56619C5.5981 8.33991 5.434 8.05882 5.34835 7.75029C5.2627 7.44176 5.25841 7.11631 5.3359 6.80563L5.91815 4.47875C5.94462 4.37292 5.9467 4.26246 5.92425 4.15571C5.90179 4.04896 5.85538 3.9487 5.78853 3.8625L3.8824 1.41131ZM2.00178 0.543251C2.18771 0.35726 2.41108 0.212952 2.65706 0.11991C2.90304 0.0268675 3.166 -0.01278 3.42848 0.00359979C3.69096 0.0199796 3.94695 0.0920119 4.17946 0.214914C4.41196 0.337815 4.61566 0.508774 4.77703 0.716438L6.68315 3.16656C7.03272 3.616 7.15597 4.20144 7.01784 4.75394L6.43665 7.08081C6.4066 7.20133 6.40823 7.32757 6.44137 7.44728C6.4745 7.56699 6.53803 7.67609 6.62578 7.764L9.23634 10.3746C9.32436 10.4625 9.43364 10.5261 9.55355 10.5593C9.67346 10.5924 9.79992 10.5939 9.92059 10.5637L12.2464 9.9825C12.5191 9.91433 12.8036 9.90903 13.0786 9.96702C13.3536 10.025 13.6119 10.1447 13.8338 10.3172L16.2839 12.2233C17.1647 12.9086 17.2455 14.2102 16.4571 14.9975L15.3585 16.0961C14.5722 16.8824 13.3971 17.2277 12.3017 16.842C9.49791 15.8555 6.95226 14.2504 4.85353 12.1457C2.74902 10.0473 1.14392 7.50205 0.157277 4.69869C-0.227348 3.60431 0.117965 2.42813 0.904215 1.64188L2.00284 0.543251H2.00178Z" fill="#1C9DC6"/>
</svg>
