<svg width="25" height="26" viewBox="0 0 25 26" fill="none" xmlns="http://www.w3.org/2000/svg">
<path d="M12.5001 2.59961C6.75634 2.59961 2.08342 7.27253 2.08342 13.0163C2.08342 18.76 6.75634 23.4329 12.5001 23.4329C18.2438 23.4329 22.9168 18.76 22.9168 13.0163C22.9168 7.27253 18.2438 2.59961 12.5001 2.59961ZM12.5001 21.3496C7.9053 21.3496 4.16675 17.6111 4.16675 13.0163C4.16675 8.42149 7.9053 4.68294 12.5001 4.68294C17.0949 4.68294 20.8334 8.42149 20.8334 13.0163C20.8334 17.6111 17.0949 21.3496 12.5001 21.3496Z" fill="#1C9DC6"/>
<path d="M13.5418 7.80859H11.4584V13.4482L14.8886 16.8784L16.3615 15.4055L13.5418 12.5857V7.80859Z" fill="#1C9DC6"/>
</svg>
