<svg width="80" height="61" viewBox="0 0 80 61" fill="none" xmlns="http://www.w3.org/2000/svg">
<path d="M0 30.5C0 13.9315 13.4315 0.5 30 0.5H50C66.5685 0.5 80 13.9315 80 30.5C80 47.0685 66.5685 60.5 50 60.5H30C13.4315 60.5 0 47.0685 0 30.5Z" fill="white"/>
<path d="M21.2452 26.616H22.9612C23.1292 25.616 23.4052 24.716 23.7892 23.916C24.1732 23.108 24.6492 22.424 25.2172 21.864C25.7852 21.296 26.4332 20.86 27.1612 20.556C27.8972 20.252 28.6972 20.1 29.5612 20.1C30.6412 20.1 31.5652 20.304 32.3332 20.712C33.1012 21.12 33.7612 21.676 34.3132 22.38L33.5092 23.28C33.4452 23.36 33.3772 23.428 33.3052 23.484C33.2332 23.54 33.1332 23.568 33.0052 23.568C32.8692 23.568 32.7252 23.496 32.5732 23.352C32.4292 23.2 32.2372 23.036 31.9972 22.86C31.7572 22.684 31.4532 22.524 31.0852 22.38C30.7172 22.228 30.2412 22.152 29.6572 22.152C28.5452 22.152 27.6172 22.532 26.8732 23.292C26.1372 24.044 25.6412 25.152 25.3852 26.616H31.8172V27.348C31.8172 27.5 31.7572 27.64 31.6372 27.768C31.5172 27.896 31.3532 27.96 31.1452 27.96H25.2292C25.2212 28.112 25.2132 28.264 25.2052 28.416C25.2052 28.568 25.2052 28.724 25.2052 28.884C25.2052 29.004 25.2052 29.12 25.2052 29.232C25.2052 29.344 25.2092 29.456 25.2172 29.568H30.6892V30.3C30.6892 30.452 30.6292 30.592 30.5092 30.72C30.3892 30.848 30.2252 30.912 30.0172 30.912H25.3372C25.5612 32.48 26.0412 33.66 26.7772 34.452C27.5132 35.236 28.4332 35.628 29.5372 35.628C29.9612 35.628 30.3292 35.588 30.6412 35.508C30.9532 35.428 31.2252 35.328 31.4572 35.208C31.6892 35.08 31.8852 34.944 32.0452 34.8C32.2132 34.656 32.3572 34.524 32.4772 34.404C32.6052 34.276 32.7172 34.172 32.8132 34.092C32.9172 34.012 33.0212 33.972 33.1252 33.972C33.2052 33.972 33.2692 33.984 33.3172 34.008C33.3732 34.032 33.4332 34.076 33.4972 34.14L34.4932 35.076C33.9252 35.9 33.2212 36.54 32.3812 36.996C31.5492 37.452 30.5612 37.68 29.4172 37.68C28.4892 37.68 27.6532 37.524 26.9092 37.212C26.1652 36.892 25.5172 36.44 24.9652 35.856C24.4212 35.264 23.9732 34.552 23.6212 33.72C23.2772 32.88 23.0372 31.944 22.9012 30.912H21.2452V29.568H22.7932C22.7852 29.456 22.7812 29.344 22.7812 29.232C22.7812 29.12 22.7812 29.004 22.7812 28.884C22.7812 28.724 22.7812 28.568 22.7812 28.416C22.7892 28.264 22.7972 28.112 22.8052 27.96H21.2452V26.616ZM34.3271 26.616H36.0431C36.2111 25.616 36.4871 24.716 36.8711 23.916C37.2551 23.108 37.7311 22.424 38.2991 21.864C38.8671 21.296 39.5151 20.86 40.2431 20.556C40.9791 20.252 41.7791 20.1 42.6431 20.1C43.7231 20.1 44.6471 20.304 45.4151 20.712C46.1831 21.12 46.8431 21.676 47.3951 22.38L46.5911 23.28C46.5271 23.36 46.4591 23.428 46.3871 23.484C46.3151 23.54 46.2151 23.568 46.0871 23.568C45.9511 23.568 45.8071 23.496 45.6551 23.352C45.5111 23.2 45.3191 23.036 45.0791 22.86C44.8391 22.684 44.5351 22.524 44.1671 22.38C43.7991 22.228 43.3231 22.152 42.7391 22.152C41.6271 22.152 40.6991 22.532 39.9551 23.292C39.2191 24.044 38.7231 25.152 38.4671 26.616H44.8991V27.348C44.8991 27.5 44.8391 27.64 44.7191 27.768C44.5991 27.896 44.4351 27.96 44.2271 27.96H38.3111C38.3031 28.112 38.2951 28.264 38.2871 28.416C38.2871 28.568 38.2871 28.724 38.2871 28.884C38.2871 29.004 38.2871 29.12 38.2871 29.232C38.2871 29.344 38.2911 29.456 38.2991 29.568H43.7711V30.3C43.7711 30.452 43.7111 30.592 43.5911 30.72C43.4711 30.848 43.3071 30.912 43.0991 30.912H38.4191C38.6431 32.48 39.1231 33.66 39.8591 34.452C40.5951 35.236 41.5151 35.628 42.6191 35.628C43.0431 35.628 43.4111 35.588 43.7231 35.508C44.0351 35.428 44.3071 35.328 44.5391 35.208C44.7711 35.08 44.9671 34.944 45.1271 34.8C45.2951 34.656 45.4391 34.524 45.5591 34.404C45.6871 34.276 45.7991 34.172 45.8951 34.092C45.9991 34.012 46.1031 33.972 46.2071 33.972C46.2871 33.972 46.3511 33.984 46.3991 34.008C46.4551 34.032 46.5151 34.076 46.5791 34.14L47.5751 35.076C47.0071 35.9 46.3031 36.54 45.4631 36.996C44.6311 37.452 43.6431 37.68 42.4991 37.68C41.5711 37.68 40.7351 37.524 39.9911 37.212C39.2471 36.892 38.5991 36.44 38.0471 35.856C37.5031 35.264 37.0551 34.552 36.7031 33.72C36.3591 32.88 36.1191 31.944 35.9831 30.912H34.3271V29.568H35.8751C35.8671 29.456 35.8631 29.344 35.8631 29.232C35.8631 29.12 35.8631 29.004 35.8631 28.884C35.8631 28.724 35.8631 28.568 35.8631 28.416C35.8711 28.264 35.8791 28.112 35.8871 27.96H34.3271V26.616ZM47.4089 26.616H49.1249C49.2929 25.616 49.5689 24.716 49.9529 23.916C50.3369 23.108 50.8129 22.424 51.3809 21.864C51.9489 21.296 52.5969 20.86 53.3249 20.556C54.0609 20.252 54.8609 20.1 55.7249 20.1C56.8049 20.1 57.7289 20.304 58.4969 20.712C59.2649 21.12 59.9249 21.676 60.4769 22.38L59.6729 23.28C59.6089 23.36 59.5409 23.428 59.4689 23.484C59.3969 23.54 59.2969 23.568 59.1689 23.568C59.0329 23.568 58.8889 23.496 58.7369 23.352C58.5929 23.2 58.4009 23.036 58.1609 22.86C57.9209 22.684 57.6169 22.524 57.2489 22.38C56.8809 22.228 56.4049 22.152 55.8209 22.152C54.7089 22.152 53.7809 22.532 53.0369 23.292C52.3009 24.044 51.8049 25.152 51.5489 26.616H57.9809V27.348C57.9809 27.5 57.9209 27.64 57.8009 27.768C57.6809 27.896 57.5169 27.96 57.3089 27.96H51.3929C51.3849 28.112 51.3769 28.264 51.3689 28.416C51.3689 28.568 51.3689 28.724 51.3689 28.884C51.3689 29.004 51.3689 29.12 51.3689 29.232C51.3689 29.344 51.3729 29.456 51.3809 29.568H56.8529V30.3C56.8529 30.452 56.7929 30.592 56.6729 30.72C56.5529 30.848 56.3889 30.912 56.1809 30.912H51.5009C51.7249 32.48 52.2049 33.66 52.9409 34.452C53.6769 35.236 54.5969 35.628 55.7009 35.628C56.1249 35.628 56.4929 35.588 56.8049 35.508C57.1169 35.428 57.3889 35.328 57.6209 35.208C57.8529 35.08 58.0489 34.944 58.2089 34.8C58.3769 34.656 58.5209 34.524 58.6409 34.404C58.7689 34.276 58.8809 34.172 58.9769 34.092C59.0809 34.012 59.1849 33.972 59.2889 33.972C59.3689 33.972 59.4329 33.984 59.4809 34.008C59.5369 34.032 59.5969 34.076 59.6609 34.14L60.6569 35.076C60.0889 35.9 59.3849 36.54 58.5449 36.996C57.7129 37.452 56.7249 37.68 55.5809 37.68C54.6529 37.68 53.8169 37.524 53.0729 37.212C52.3289 36.892 51.6809 36.44 51.1289 35.856C50.5849 35.264 50.1369 34.552 49.7849 33.72C49.4409 32.88 49.2009 31.944 49.0649 30.912H47.4089V29.568H48.9569C48.9489 29.456 48.9449 29.344 48.9449 29.232C48.9449 29.12 48.9449 29.004 48.9449 28.884C48.9449 28.724 48.9449 28.568 48.9449 28.416C48.9529 28.264 48.9609 28.112 48.9689 27.96H47.4089V26.616Z" fill="#3AAD95"/>
<path d="M30 2.5H50V-1.5H30V2.5ZM50 58.5H30V62.5H50V58.5ZM30 58.5C14.536 58.5 2 45.964 2 30.5H-2C-2 48.1731 12.3269 62.5 30 62.5V58.5ZM78 30.5C78 45.964 65.464 58.5 50 58.5V62.5C67.6731 62.5 82 48.1731 82 30.5H78ZM50 2.5C65.464 2.5 78 15.036 78 30.5H82C82 12.8269 67.6731 -1.5 50 -1.5V2.5ZM30 -1.5C12.3269 -1.5 -2 12.8269 -2 30.5H2C2 15.036 14.536 2.5 30 2.5V-1.5Z" fill="#3AAD95"/>
</svg>
