<?xml version="1.0" encoding="UTF-8" standalone="no"?>
<!DOCTYPE svg PUBLIC "-//W3C//DTD SVG 1.1//EN" "http://www.w3.org/Graphics/SVG/1.1/DTD/svg11.dtd">
<svg width="100%" height="100%" viewBox="0 0 84 64" version="1.1" xmlns="http://www.w3.org/2000/svg" xmlns:xlink="http://www.w3.org/1999/xlink" xml:space="preserve" xmlns:serif="http://www.serif.com/" style="fill-rule:evenodd;clip-rule:evenodd;stroke-linejoin:round;stroke-miterlimit:2;">
    <g transform="matrix(1,0,0,1,2,2)">
        <path d="M0,30C0,13.432 13.432,0 30,0L50,0C66.569,0 80,13.432 80,30C80,46.569 66.569,60 50,60L30,60C13.432,60 0,46.569 0,30Z" style="fill:white;fill-rule:nonzero;"/>
    </g>
    <g transform="matrix(1,0,0,1,2,2)">
        <path d="M21.245,26.116L22.961,26.116C23.129,25.116 23.405,24.216 23.789,23.416C24.173,22.608 24.649,21.924 25.217,21.364C25.785,20.796 26.433,20.36 27.161,20.056C27.897,19.752 28.697,19.6 29.561,19.6C30.641,19.6 31.565,19.804 32.333,20.212C33.101,20.62 33.761,21.176 34.313,21.88L33.509,22.78C33.445,22.86 33.377,22.928 33.305,22.984C33.233,23.04 33.133,23.068 33.005,23.068C32.869,23.068 32.725,22.996 32.573,22.852C32.429,22.7 32.237,22.536 31.997,22.36C31.757,22.184 31.453,22.024 31.085,21.88C30.717,21.728 30.241,21.652 29.657,21.652C28.545,21.652 27.617,22.032 26.873,22.792C26.137,23.544 25.641,24.652 25.385,26.116L31.817,26.116L31.817,26.848C31.817,27 31.757,27.14 31.637,27.268C31.517,27.396 31.353,27.46 31.145,27.46L25.229,27.46C25.221,27.612 25.213,27.764 25.205,27.916L25.205,28.732C25.205,28.844 25.209,28.956 25.217,29.068L30.689,29.068L30.689,29.8C30.689,29.952 30.629,30.092 30.509,30.22C30.389,30.348 30.225,30.412 30.017,30.412L25.337,30.412C25.561,31.98 26.041,33.16 26.777,33.952C27.513,34.736 28.433,35.128 29.537,35.128C29.961,35.128 30.329,35.088 30.641,35.008C30.953,34.928 31.225,34.828 31.457,34.708C31.689,34.58 31.885,34.444 32.045,34.3C32.213,34.156 32.357,34.024 32.477,33.904C32.605,33.776 32.717,33.672 32.813,33.592C32.917,33.512 33.021,33.472 33.125,33.472C33.205,33.472 33.269,33.484 33.317,33.508C33.373,33.532 33.433,33.576 33.497,33.64L34.493,34.576C33.925,35.4 33.221,36.04 32.381,36.496C31.549,36.952 30.561,37.18 29.417,37.18C28.489,37.18 27.653,37.024 26.909,36.712C26.165,36.392 25.517,35.94 24.965,35.356C24.421,34.764 23.973,34.052 23.621,33.22C23.277,32.38 23.037,31.444 22.901,30.412L21.245,30.412L21.245,29.068L22.793,29.068C22.785,28.956 22.781,28.844 22.781,28.732L22.781,27.916C22.789,27.764 22.797,27.612 22.805,27.46L21.245,27.46L21.245,26.116ZM34.327,26.116L36.043,26.116C36.211,25.116 36.487,24.216 36.871,23.416C37.255,22.608 37.731,21.924 38.299,21.364C38.867,20.796 39.515,20.36 40.243,20.056C40.979,19.752 41.779,19.6 42.643,19.6C43.723,19.6 44.647,19.804 45.415,20.212C46.183,20.62 46.843,21.176 47.395,21.88L46.591,22.78C46.527,22.86 46.459,22.928 46.387,22.984C46.315,23.04 46.215,23.068 46.087,23.068C45.951,23.068 45.807,22.996 45.655,22.852C45.511,22.7 45.319,22.536 45.079,22.36C44.839,22.184 44.535,22.024 44.167,21.88C43.799,21.728 43.323,21.652 42.739,21.652C41.627,21.652 40.699,22.032 39.955,22.792C39.219,23.544 38.723,24.652 38.467,26.116L44.899,26.116L44.899,26.848C44.899,27 44.839,27.14 44.719,27.268C44.599,27.396 44.435,27.46 44.227,27.46L38.311,27.46C38.303,27.612 38.295,27.764 38.287,27.916L38.287,28.732C38.287,28.844 38.291,28.956 38.299,29.068L43.771,29.068L43.771,29.8C43.771,29.952 43.711,30.092 43.591,30.22C43.471,30.348 43.307,30.412 43.099,30.412L38.419,30.412C38.643,31.98 39.123,33.16 39.859,33.952C40.595,34.736 41.515,35.128 42.619,35.128C43.043,35.128 43.411,35.088 43.723,35.008C44.035,34.928 44.307,34.828 44.539,34.708C44.771,34.58 44.967,34.444 45.127,34.3C45.295,34.156 45.439,34.024 45.559,33.904C45.687,33.776 45.799,33.672 45.895,33.592C45.999,33.512 46.103,33.472 46.207,33.472C46.287,33.472 46.351,33.484 46.399,33.508C46.455,33.532 46.515,33.576 46.579,33.64L47.575,34.576C47.007,35.4 46.303,36.04 45.463,36.496C44.631,36.952 43.643,37.18 42.499,37.18C41.571,37.18 40.735,37.024 39.991,36.712C39.247,36.392 38.599,35.94 38.047,35.356C37.503,34.764 37.055,34.052 36.703,33.22C36.359,32.38 36.119,31.444 35.983,30.412L34.327,30.412L34.327,29.068L35.875,29.068C35.867,28.956 35.863,28.844 35.863,28.732L35.863,27.916C35.871,27.764 35.879,27.612 35.887,27.46L34.327,27.46L34.327,26.116ZM47.409,26.116L49.125,26.116C49.293,25.116 49.569,24.216 49.953,23.416C50.337,22.608 50.813,21.924 51.381,21.364C51.949,20.796 52.597,20.36 53.325,20.056C54.061,19.752 54.861,19.6 55.725,19.6C56.805,19.6 57.729,19.804 58.497,20.212C59.265,20.62 59.925,21.176 60.477,21.88L59.673,22.78C59.609,22.86 59.541,22.928 59.469,22.984C59.397,23.04 59.297,23.068 59.169,23.068C59.033,23.068 58.889,22.996 58.737,22.852C58.593,22.7 58.401,22.536 58.161,22.36C57.921,22.184 57.617,22.024 57.249,21.88C56.881,21.728 56.405,21.652 55.821,21.652C54.709,21.652 53.781,22.032 53.037,22.792C52.301,23.544 51.805,24.652 51.549,26.116L57.981,26.116L57.981,26.848C57.981,27 57.921,27.14 57.801,27.268C57.681,27.396 57.517,27.46 57.309,27.46L51.393,27.46C51.385,27.612 51.377,27.764 51.369,27.916L51.369,28.732C51.369,28.844 51.373,28.956 51.381,29.068L56.853,29.068L56.853,29.8C56.853,29.952 56.793,30.092 56.673,30.22C56.553,30.348 56.389,30.412 56.181,30.412L51.501,30.412C51.725,31.98 52.205,33.16 52.941,33.952C53.677,34.736 54.597,35.128 55.701,35.128C56.125,35.128 56.493,35.088 56.805,35.008C57.117,34.928 57.389,34.828 57.621,34.708C57.853,34.58 58.049,34.444 58.209,34.3C58.377,34.156 58.521,34.024 58.641,33.904C58.769,33.776 58.881,33.672 58.977,33.592C59.081,33.512 59.185,33.472 59.289,33.472C59.369,33.472 59.433,33.484 59.481,33.508C59.537,33.532 59.597,33.576 59.661,33.64L60.657,34.576C60.089,35.4 59.385,36.04 58.545,36.496C57.713,36.952 56.725,37.18 55.581,37.18C54.653,37.18 53.817,37.024 53.073,36.712C52.329,36.392 51.681,35.94 51.129,35.356C50.585,34.764 50.137,34.052 49.785,33.22C49.441,32.38 49.201,31.444 49.065,30.412L47.409,30.412L47.409,29.068L48.957,29.068C48.949,28.956 48.945,28.844 48.945,28.732L48.945,27.916C48.953,27.764 48.961,27.612 48.969,27.46L47.409,27.46L47.409,26.116Z" style="fill:rgb(58,173,149);fill-rule:nonzero;"/>
    </g>
    <g transform="matrix(1,0,0,1,2,2)">
        <path d="M30,2L50,2L50,-2L30,-2L30,2ZM50,58L30,58L30,62L50,62L50,58ZM30,58C14.536,58 2,45.464 2,30L-2,30C-2,47.673 12.327,62 30,62L30,58ZM78,30C78,45.464 65.464,58 50,58L50,62C67.673,62 82,47.673 82,30L78,30ZM50,2C65.464,2 78,14.536 78,30L82,30C82,12.327 67.673,-2 50,-2L50,2ZM30,-2C12.327,-2 -2,12.327 -2,30L2,30C2,14.536 14.536,2 30,2L30,-2Z" style="fill:rgb(58,173,149);fill-rule:nonzero;"/>
    </g>
</svg>
