<svg width="80" height="60" viewBox="0 0 80 60" fill="none" xmlns="http://www.w3.org/2000/svg">
<path d="M0 30C0 13.4315 13.4315 0 30 0H50C66.5685 0 80 13.4315 80 30C80 46.5685 66.5685 60 50 60H30C13.4315 60 0 46.5685 0 30Z" fill="#3AAD95"/>
<path d="M20.2452 26.116H21.9612C22.1292 25.116 22.4052 24.216 22.7892 23.416C23.1732 22.608 23.6492 21.924 24.2172 21.364C24.7852 20.796 25.4332 20.36 26.1612 20.056C26.8972 19.752 27.6972 19.6 28.5612 19.6C29.6412 19.6 30.5652 19.804 31.3332 20.212C32.1012 20.62 32.7612 21.176 33.3132 21.88L32.5092 22.78C32.4452 22.86 32.3772 22.928 32.3052 22.984C32.2332 23.04 32.1332 23.068 32.0052 23.068C31.8692 23.068 31.7252 22.996 31.5732 22.852C31.4292 22.7 31.2372 22.536 30.9972 22.36C30.7572 22.184 30.4532 22.024 30.0852 21.88C29.7172 21.728 29.2412 21.652 28.6572 21.652C27.5452 21.652 26.6172 22.032 25.8732 22.792C25.1372 23.544 24.6412 24.652 24.3852 26.116H30.8172V26.848C30.8172 27 30.7572 27.14 30.6372 27.268C30.5172 27.396 30.3532 27.46 30.1452 27.46H24.2292C24.2212 27.612 24.2132 27.764 24.2052 27.916C24.2052 28.068 24.2052 28.224 24.2052 28.384C24.2052 28.504 24.2052 28.62 24.2052 28.732C24.2052 28.844 24.2092 28.956 24.2172 29.068H29.6892V29.8C29.6892 29.952 29.6292 30.092 29.5092 30.22C29.3892 30.348 29.2252 30.412 29.0172 30.412H24.3372C24.5612 31.98 25.0412 33.16 25.7772 33.952C26.5132 34.736 27.4332 35.128 28.5372 35.128C28.9612 35.128 29.3292 35.088 29.6412 35.008C29.9532 34.928 30.2252 34.828 30.4572 34.708C30.6892 34.58 30.8852 34.444 31.0452 34.3C31.2132 34.156 31.3572 34.024 31.4772 33.904C31.6052 33.776 31.7172 33.672 31.8132 33.592C31.9172 33.512 32.0212 33.472 32.1252 33.472C32.2052 33.472 32.2692 33.484 32.3172 33.508C32.3732 33.532 32.4332 33.576 32.4972 33.64L33.4932 34.576C32.9252 35.4 32.2212 36.04 31.3812 36.496C30.5492 36.952 29.5612 37.18 28.4172 37.18C27.4892 37.18 26.6532 37.024 25.9092 36.712C25.1652 36.392 24.5172 35.94 23.9652 35.356C23.4212 34.764 22.9732 34.052 22.6212 33.22C22.2772 32.38 22.0372 31.444 21.9012 30.412H20.2452V29.068H21.7932C21.7852 28.956 21.7812 28.844 21.7812 28.732C21.7812 28.62 21.7812 28.504 21.7812 28.384C21.7812 28.224 21.7812 28.068 21.7812 27.916C21.7892 27.764 21.7972 27.612 21.8052 27.46H20.2452V26.116ZM33.3271 26.116H35.0431C35.2111 25.116 35.4871 24.216 35.8711 23.416C36.2551 22.608 36.7311 21.924 37.2991 21.364C37.8671 20.796 38.5151 20.36 39.2431 20.056C39.9791 19.752 40.7791 19.6 41.6431 19.6C42.7231 19.6 43.6471 19.804 44.4151 20.212C45.1831 20.62 45.8431 21.176 46.3951 21.88L45.5911 22.78C45.5271 22.86 45.4591 22.928 45.3871 22.984C45.3151 23.04 45.2151 23.068 45.0871 23.068C44.9511 23.068 44.8071 22.996 44.6551 22.852C44.5111 22.7 44.3191 22.536 44.0791 22.36C43.8391 22.184 43.5351 22.024 43.1671 21.88C42.7991 21.728 42.3231 21.652 41.7391 21.652C40.6271 21.652 39.6991 22.032 38.9551 22.792C38.2191 23.544 37.7231 24.652 37.4671 26.116H43.8991V26.848C43.8991 27 43.8391 27.14 43.7191 27.268C43.5991 27.396 43.4351 27.46 43.2271 27.46H37.3111C37.3031 27.612 37.2951 27.764 37.2871 27.916C37.2871 28.068 37.2871 28.224 37.2871 28.384C37.2871 28.504 37.2871 28.62 37.2871 28.732C37.2871 28.844 37.2911 28.956 37.2991 29.068H42.7711V29.8C42.7711 29.952 42.7111 30.092 42.5911 30.22C42.4711 30.348 42.3071 30.412 42.0991 30.412H37.4191C37.6431 31.98 38.1231 33.16 38.8591 33.952C39.5951 34.736 40.5151 35.128 41.6191 35.128C42.0431 35.128 42.4111 35.088 42.7231 35.008C43.0351 34.928 43.3071 34.828 43.5391 34.708C43.7711 34.58 43.9671 34.444 44.1271 34.3C44.2951 34.156 44.4391 34.024 44.5591 33.904C44.6871 33.776 44.7991 33.672 44.8951 33.592C44.9991 33.512 45.1031 33.472 45.2071 33.472C45.2871 33.472 45.3511 33.484 45.3991 33.508C45.4551 33.532 45.5151 33.576 45.5791 33.64L46.5751 34.576C46.0071 35.4 45.3031 36.04 44.4631 36.496C43.6311 36.952 42.6431 37.18 41.4991 37.18C40.5711 37.18 39.7351 37.024 38.9911 36.712C38.2471 36.392 37.5991 35.94 37.0471 35.356C36.5031 34.764 36.0551 34.052 35.7031 33.22C35.3591 32.38 35.1191 31.444 34.9831 30.412H33.3271V29.068H34.8751C34.8671 28.956 34.8631 28.844 34.8631 28.732C34.8631 28.62 34.8631 28.504 34.8631 28.384C34.8631 28.224 34.8631 28.068 34.8631 27.916C34.8711 27.764 34.8791 27.612 34.8871 27.46H33.3271V26.116ZM46.4089 26.116H48.1249C48.2929 25.116 48.5689 24.216 48.9529 23.416C49.3369 22.608 49.8129 21.924 50.3809 21.364C50.9489 20.796 51.5969 20.36 52.3249 20.056C53.0609 19.752 53.8609 19.6 54.7249 19.6C55.8049 19.6 56.7289 19.804 57.4969 20.212C58.2649 20.62 58.9249 21.176 59.4769 21.88L58.6729 22.78C58.6089 22.86 58.5409 22.928 58.4689 22.984C58.3969 23.04 58.2969 23.068 58.1689 23.068C58.0329 23.068 57.8889 22.996 57.7369 22.852C57.5929 22.7 57.4009 22.536 57.1609 22.36C56.9209 22.184 56.6169 22.024 56.2489 21.88C55.8809 21.728 55.4049 21.652 54.8209 21.652C53.7089 21.652 52.7809 22.032 52.0369 22.792C51.3009 23.544 50.8049 24.652 50.5489 26.116H56.9809V26.848C56.9809 27 56.9209 27.14 56.8009 27.268C56.6809 27.396 56.5169 27.46 56.3089 27.46H50.3929C50.3849 27.612 50.3769 27.764 50.3689 27.916C50.3689 28.068 50.3689 28.224 50.3689 28.384C50.3689 28.504 50.3689 28.62 50.3689 28.732C50.3689 28.844 50.3729 28.956 50.3809 29.068H55.8529V29.8C55.8529 29.952 55.7929 30.092 55.6729 30.22C55.5529 30.348 55.3889 30.412 55.1809 30.412H50.5009C50.7249 31.98 51.2049 33.16 51.9409 33.952C52.6769 34.736 53.5969 35.128 54.7009 35.128C55.1249 35.128 55.4929 35.088 55.8049 35.008C56.1169 34.928 56.3889 34.828 56.6209 34.708C56.8529 34.58 57.0489 34.444 57.2089 34.3C57.3769 34.156 57.5209 34.024 57.6409 33.904C57.7689 33.776 57.8809 33.672 57.9769 33.592C58.0809 33.512 58.1849 33.472 58.2889 33.472C58.3689 33.472 58.4329 33.484 58.4809 33.508C58.5369 33.532 58.5969 33.576 58.6609 33.64L59.6569 34.576C59.0889 35.4 58.3849 36.04 57.5449 36.496C56.7129 36.952 55.7249 37.18 54.5809 37.18C53.6529 37.18 52.8169 37.024 52.0729 36.712C51.3289 36.392 50.6809 35.94 50.1289 35.356C49.5849 34.764 49.1369 34.052 48.7849 33.22C48.4409 32.38 48.2009 31.444 48.0649 30.412H46.4089V29.068H47.9569C47.9489 28.956 47.9449 28.844 47.9449 28.732C47.9449 28.62 47.9449 28.504 47.9449 28.384C47.9449 28.224 47.9449 28.068 47.9449 27.916C47.9529 27.764 47.9609 27.612 47.9689 27.46H46.4089V26.116Z" fill="white"/>
</svg>
