<svg width="60" height="60" viewBox="0 0 60 60" fill="none" xmlns="http://www.w3.org/2000/svg">
<path d="M0 30C0 13.4315 13.4315 0 30 0C46.5685 0 60 13.4315 60 30C60 46.5685 46.5685 60 30 60C13.4315 60 0 46.5685 0 30Z" fill="#3AAD95"/>
<path d="M23.3271 26.116H25.0431C25.2111 25.116 25.4871 24.216 25.8711 23.416C26.2551 22.608 26.7311 21.924 27.2991 21.364C27.8671 20.796 28.5151 20.36 29.2431 20.056C29.9791 19.752 30.7791 19.6 31.6431 19.6C32.7231 19.6 33.6471 19.804 34.4151 20.212C35.1831 20.62 35.8431 21.176 36.3951 21.88L35.5911 22.78C35.5271 22.86 35.4591 22.928 35.3871 22.984C35.3151 23.04 35.2151 23.068 35.0871 23.068C34.9511 23.068 34.8071 22.996 34.6551 22.852C34.5111 22.7 34.3191 22.536 34.0791 22.36C33.8391 22.184 33.5351 22.024 33.1671 21.88C32.7991 21.728 32.3231 21.652 31.7391 21.652C30.6271 21.652 29.6991 22.032 28.9551 22.792C28.2191 23.544 27.7231 24.652 27.4671 26.116H33.8991V26.848C33.8991 27 33.8391 27.14 33.7191 27.268C33.5991 27.396 33.4351 27.46 33.2271 27.46H27.3111C27.3031 27.612 27.2951 27.764 27.2871 27.916C27.2871 28.068 27.2871 28.224 27.2871 28.384C27.2871 28.504 27.2871 28.62 27.2871 28.732C27.2871 28.844 27.2911 28.956 27.2991 29.068H32.7711V29.8C32.7711 29.952 32.7111 30.092 32.5911 30.22C32.4711 30.348 32.3071 30.412 32.0991 30.412H27.4191C27.6431 31.98 28.1231 33.16 28.8591 33.952C29.5951 34.736 30.5151 35.128 31.6191 35.128C32.0431 35.128 32.4111 35.088 32.7231 35.008C33.0351 34.928 33.3071 34.828 33.5391 34.708C33.7711 34.58 33.9671 34.444 34.1271 34.3C34.2951 34.156 34.4391 34.024 34.5591 33.904C34.6871 33.776 34.7991 33.672 34.8951 33.592C34.9991 33.512 35.1031 33.472 35.2071 33.472C35.2871 33.472 35.3511 33.484 35.3991 33.508C35.4551 33.532 35.5151 33.576 35.5791 33.64L36.5751 34.576C36.0071 35.4 35.3031 36.04 34.4631 36.496C33.6311 36.952 32.6431 37.18 31.4991 37.18C30.5711 37.18 29.7351 37.024 28.9911 36.712C28.2471 36.392 27.5991 35.94 27.0471 35.356C26.5031 34.764 26.0551 34.052 25.7031 33.22C25.3591 32.38 25.1191 31.444 24.9831 30.412H23.3271V29.068H24.8751C24.8671 28.956 24.8631 28.844 24.8631 28.732C24.8631 28.62 24.8631 28.504 24.8631 28.384C24.8631 28.224 24.8631 28.068 24.8631 27.916C24.8711 27.764 24.8791 27.612 24.8871 27.46H23.3271V26.116Z" fill="white"/>
</svg>
