<svg width="60" height="61" viewBox="0 0 60 61" fill="none" xmlns="http://www.w3.org/2000/svg">
<path d="M0 30.5C0 13.9315 13.4315 0.5 30 0.5C46.5685 0.5 60 13.9315 60 30.5C60 47.0685 46.5685 60.5 30 60.5C13.4315 60.5 0 47.0685 0 30.5Z" fill="white"/>
<path d="M23.3271 26.616H25.0431C25.2111 25.616 25.4871 24.716 25.8711 23.916C26.2551 23.108 26.7311 22.424 27.2991 21.864C27.8671 21.296 28.5151 20.86 29.2431 20.556C29.9791 20.252 30.7791 20.1 31.6431 20.1C32.7231 20.1 33.6471 20.304 34.4151 20.712C35.1831 21.12 35.8431 21.676 36.3951 22.38L35.5911 23.28C35.5271 23.36 35.4591 23.428 35.3871 23.484C35.3151 23.54 35.2151 23.568 35.0871 23.568C34.9511 23.568 34.8071 23.496 34.6551 23.352C34.5111 23.2 34.3191 23.036 34.0791 22.86C33.8391 22.684 33.5351 22.524 33.1671 22.38C32.7991 22.228 32.3231 22.152 31.7391 22.152C30.6271 22.152 29.6991 22.532 28.9551 23.292C28.2191 24.044 27.7231 25.152 27.4671 26.616H33.8991V27.348C33.8991 27.5 33.8391 27.64 33.7191 27.768C33.5991 27.896 33.4351 27.96 33.2271 27.96H27.3111C27.3031 28.112 27.2951 28.264 27.2871 28.416C27.2871 28.568 27.2871 28.724 27.2871 28.884C27.2871 29.004 27.2871 29.12 27.2871 29.232C27.2871 29.344 27.2911 29.456 27.2991 29.568H32.7711V30.3C32.7711 30.452 32.7111 30.592 32.5911 30.72C32.4711 30.848 32.3071 30.912 32.0991 30.912H27.4191C27.6431 32.48 28.1231 33.66 28.8591 34.452C29.5951 35.236 30.5151 35.628 31.6191 35.628C32.0431 35.628 32.4111 35.588 32.7231 35.508C33.0351 35.428 33.3071 35.328 33.5391 35.208C33.7711 35.08 33.9671 34.944 34.1271 34.8C34.2951 34.656 34.4391 34.524 34.5591 34.404C34.6871 34.276 34.7991 34.172 34.8951 34.092C34.9991 34.012 35.1031 33.972 35.2071 33.972C35.2871 33.972 35.3511 33.984 35.3991 34.008C35.4551 34.032 35.5151 34.076 35.5791 34.14L36.5751 35.076C36.0071 35.9 35.3031 36.54 34.4631 36.996C33.6311 37.452 32.6431 37.68 31.4991 37.68C30.5711 37.68 29.7351 37.524 28.9911 37.212C28.2471 36.892 27.5991 36.44 27.0471 35.856C26.5031 35.264 26.0551 34.552 25.7031 33.72C25.3591 32.88 25.1191 31.944 24.9831 30.912H23.3271V29.568H24.8751C24.8671 29.456 24.8631 29.344 24.8631 29.232C24.8631 29.12 24.8631 29.004 24.8631 28.884C24.8631 28.724 24.8631 28.568 24.8631 28.416C24.8711 28.264 24.8791 28.112 24.8871 27.96H23.3271V26.616Z" fill="#3AAD95"/>
<path d="M30 58.5C14.536 58.5 2 45.964 2 30.5H-2C-2 48.1731 12.3269 62.5 30 62.5V58.5ZM58 30.5C58 45.964 45.464 58.5 30 58.5V62.5C47.6731 62.5 62 48.1731 62 30.5H58ZM30 2.5C45.464 2.5 58 15.036 58 30.5H62C62 12.8269 47.6731 -1.5 30 -1.5V2.5ZM30 -1.5C12.3269 -1.5 -2 12.8269 -2 30.5H2C2 15.036 14.536 2.5 30 2.5V-1.5Z" fill="#3AAD95"/>
</svg>
