<?xml version="1.0" encoding="UTF-8" standalone="no"?>
<!DOCTYPE svg PUBLIC "-//W3C//DTD SVG 1.1//EN" "http://www.w3.org/Graphics/SVG/1.1/DTD/svg11.dtd">
<svg width="100%" height="100%" viewBox="0 0 64 64" version="1.1" xmlns="http://www.w3.org/2000/svg" xmlns:xlink="http://www.w3.org/1999/xlink" xml:space="preserve" xmlns:serif="http://www.serif.com/" style="fill-rule:evenodd;clip-rule:evenodd;stroke-linejoin:round;stroke-miterlimit:2;">
    <g transform="matrix(1,0,0,1,2,2)">
        <path d="M0,30C0,13.432 13.432,0 30,0C46.569,0 60,13.432 60,30C60,46.569 46.569,60 30,60C13.432,60 0,46.569 0,30Z" style="fill:white;fill-rule:nonzero;"/>
    </g>
    <g transform="matrix(1,0,0,1,2,2)">
        <path d="M23.327,26.116L25.043,26.116C25.211,25.116 25.487,24.216 25.871,23.416C26.255,22.608 26.731,21.924 27.299,21.364C27.867,20.796 28.515,20.36 29.243,20.056C29.979,19.752 30.779,19.6 31.643,19.6C32.723,19.6 33.647,19.804 34.415,20.212C35.183,20.62 35.843,21.176 36.395,21.88L35.591,22.78C35.527,22.86 35.459,22.928 35.387,22.984C35.315,23.04 35.215,23.068 35.087,23.068C34.951,23.068 34.807,22.996 34.655,22.852C34.511,22.7 34.319,22.536 34.079,22.36C33.839,22.184 33.535,22.024 33.167,21.88C32.799,21.728 32.323,21.652 31.739,21.652C30.627,21.652 29.699,22.032 28.955,22.792C28.219,23.544 27.723,24.652 27.467,26.116L33.899,26.116L33.899,26.848C33.899,27 33.839,27.14 33.719,27.268C33.599,27.396 33.435,27.46 33.227,27.46L27.311,27.46C27.303,27.612 27.295,27.764 27.287,27.916L27.287,28.732C27.287,28.844 27.291,28.956 27.299,29.068L32.771,29.068L32.771,29.8C32.771,29.952 32.711,30.092 32.591,30.22C32.471,30.348 32.307,30.412 32.099,30.412L27.419,30.412C27.643,31.98 28.123,33.16 28.859,33.952C29.595,34.736 30.515,35.128 31.619,35.128C32.043,35.128 32.411,35.088 32.723,35.008C33.035,34.928 33.307,34.828 33.539,34.708C33.771,34.58 33.967,34.444 34.127,34.3C34.295,34.156 34.439,34.024 34.559,33.904C34.687,33.776 34.799,33.672 34.895,33.592C34.999,33.512 35.103,33.472 35.207,33.472C35.287,33.472 35.351,33.484 35.399,33.508C35.455,33.532 35.515,33.576 35.579,33.64L36.575,34.576C36.007,35.4 35.303,36.04 34.463,36.496C33.631,36.952 32.643,37.18 31.499,37.18C30.571,37.18 29.735,37.024 28.991,36.712C28.247,36.392 27.599,35.94 27.047,35.356C26.503,34.764 26.055,34.052 25.703,33.22C25.359,32.38 25.119,31.444 24.983,30.412L23.327,30.412L23.327,29.068L24.875,29.068C24.867,28.956 24.863,28.844 24.863,28.732L24.863,27.916C24.871,27.764 24.879,27.612 24.887,27.46L23.327,27.46L23.327,26.116Z" style="fill:rgb(58,173,149);fill-rule:nonzero;"/>
    </g>
    <g transform="matrix(1,0,0,1,2,2)">
        <path d="M30,58C14.536,58 2,45.464 2,30L-2,30C-2,47.673 12.327,62 30,62L30,58ZM58,30C58,45.464 45.464,58 30,58L30,62C47.673,62 62,47.673 62,30L58,30ZM30,2C45.464,2 58,14.536 58,30L62,30C62,12.327 47.673,-2 30,-2L30,2ZM30,-2C12.327,-2 -2,12.327 -2,30L2,30C2,14.536 14.536,2 30,2L30,-2Z" style="fill:rgb(58,173,149);fill-rule:nonzero;"/>
    </g>
</svg>
