<svg width="60" height="97" viewBox="0 0 60 97" fill="none" xmlns="http://www.w3.org/2000/svg">
<path d="M17.3616 73.76C17.8036 73.76 18.0869 73.7883 18.2116 73.845C18.3362 73.8903 18.3986 74.015 18.3986 74.219C18.3986 74.423 17.5259 78.35 15.7806 86H14.2506L11.4966 73.76H12.1086C12.6299 73.76 12.9416 73.8053 13.0436 73.896C13.1456 73.9753 13.2532 74.2643 13.3666 74.763L14.9136 83.229H15.1006L16.8856 73.76H17.3616ZM25.1015 84.487V86H19.7635V73.76H24.9315V75.205H21.2765L21.4295 75.63V78.231L21.2765 78.656H24.7275V80.169H21.2935L21.4295 80.56V84.062L21.2765 84.487H25.1015ZM28.2515 78.809V80.764C28.2515 81.5573 28.2685 82.09 28.3025 82.362C28.3479 82.634 28.3875 82.906 28.4215 83.178C28.4669 83.45 28.5235 83.654 28.5915 83.79C28.6709 83.926 28.7615 84.0677 28.8635 84.215C28.9655 84.3623 29.0845 84.4643 29.2205 84.521C29.3565 84.5777 29.5152 84.606 29.6965 84.606C29.9685 84.606 30.4445 84.5493 31.1245 84.436L30.9885 84.011V80.747C30.9885 80.1237 31.0282 79.761 31.1075 79.659C31.1982 79.557 31.4985 79.506 32.0085 79.506H32.5695V85.83C32.3769 85.8527 32.0765 85.8923 31.6685 85.949C30.8752 86.0623 30.2632 86.119 29.8325 86.119C29.4019 86.119 29.0505 86.0793 28.7785 86C28.5065 85.932 28.2685 85.847 28.0645 85.745C27.8719 85.6317 27.6962 85.4673 27.5375 85.252C27.3902 85.0253 27.2655 84.8213 27.1635 84.64C27.0615 84.4587 26.9765 84.198 26.9085 83.858C26.8405 83.5067 26.7895 83.2177 26.7555 82.991C26.7215 82.7643 26.6932 82.43 26.6705 81.988C26.6479 81.5347 26.6365 81.1833 26.6365 80.934V79.778C26.6365 78.86 26.6422 78.1857 26.6535 77.755C26.6762 77.313 26.7385 76.769 26.8405 76.123C26.9425 75.4657 27.0955 74.9897 27.2995 74.695C27.5035 74.4003 27.8039 74.1397 28.2005 73.913C28.6085 73.675 29.1072 73.556 29.6965 73.556L32.2295 74.1C32.1389 74.746 31.9859 75.1257 31.7705 75.239C31.6685 75.2843 31.5042 75.307 31.2775 75.307C31.0622 75.307 30.7505 75.2673 30.3425 75.188L29.6965 75.069C29.3225 75.069 29.0449 75.1993 28.8635 75.46C28.7615 75.596 28.6709 75.732 28.5915 75.868C28.5235 75.9927 28.4669 76.191 28.4215 76.463C28.3875 76.7237 28.3592 76.9447 28.3365 77.126C28.2799 77.4547 28.2515 78.0157 28.2515 78.809ZM40.2023 86C39.6243 86 39.2729 85.9547 39.1483 85.864C39.0349 85.7733 38.9273 85.473 38.8253 84.963L38.2473 82.09H36.1053L35.4083 86H35.0173C34.4733 86 34.1276 85.9717 33.9803 85.915C33.8329 85.847 33.7593 85.6997 33.7593 85.473C33.7593 85.235 34.6206 81.3307 36.3433 73.76H37.9753L40.7633 86H40.2023ZM37.0743 76.854L36.4453 80.169L36.3093 80.458H38.0603C38.0489 80.4467 38.0206 80.3957 37.9753 80.305C37.9299 80.203 37.9073 80.1463 37.9073 80.135L37.2443 76.854H37.0743ZM46.1378 82.26V73.76H46.5118C47.1238 73.76 47.4808 73.8053 47.5828 73.896C47.6848 73.9753 47.7358 74.2757 47.7358 74.797V86H47.2258C46.6591 86 46.3078 85.9603 46.1718 85.881C46.0358 85.7903 45.8885 85.5127 45.7298 85.048L43.5368 77.704H43.4518V84.963C43.4518 85.4843 43.4008 85.7903 43.2988 85.881C43.1968 85.9603 42.8398 86 42.2278 86H41.8708V73.76H42.2448C42.8001 73.76 43.1401 73.7997 43.2648 73.879C43.3895 73.9583 43.5425 74.236 43.7238 74.712L46.0528 82.26H46.1378Z" fill="#3AAD95"/>
<circle cx="30" cy="30" r="29" fill="#3AAD95" stroke="#3AAD95" stroke-width="2"/>
<g clip-path="url(#clip0)">
<path d="M48.9863 32.0837C48.9572 31.9024 48.8878 31.7299 48.7831 31.579C48.6784 31.4281 48.5412 31.3026 48.3816 31.2119C47.5041 30.6691 45.4931 30.2162 43.5469 31.1866C42.7369 31.5916 41.9213 32.0781 41.1619 32.545C41.1442 32.5101 41.1245 32.4763 41.1028 32.4437C40.8469 32.0669 40.3688 31.8812 39.6741 31.8812C38.8134 31.8812 37.2216 32.725 35.07 33.9316C34.4197 34.3174 33.7483 34.6667 33.0591 34.9778C32.6091 34.9244 32.1703 34.8822 31.6922 34.8372C30.9638 34.7669 30.1341 34.6909 29.0259 34.5559C28.6441 34.4193 28.2797 34.2381 27.9403 34.0159C25.4623 32.5369 22.7244 31.545 19.8741 31.0937C15.4472 30.3231 13.5628 31.195 13.47 31.2316C13.4015 31.2622 13.3398 31.3062 13.2886 31.361C13.2374 31.4158 13.1976 31.4803 13.1717 31.5507C13.1458 31.6211 13.1342 31.6959 13.1376 31.7709C13.141 31.8458 13.1594 31.9193 13.1917 31.9871C13.224 32.0548 13.2695 32.1154 13.3255 32.1653C13.3815 32.2151 13.447 32.2533 13.518 32.2775C13.589 32.3017 13.6641 32.3115 13.739 32.3062C13.8138 32.301 13.8868 32.2808 13.9538 32.2469C13.9706 32.2469 15.6694 31.5016 19.6828 32.1934C22.4044 32.6213 25.0191 33.5654 27.3863 34.975C28.0444 35.3519 28.4691 35.5937 28.8797 35.6556C30.0047 35.8075 30.8484 35.8862 31.5881 35.9566C32.8017 36.0461 34.0068 36.2256 35.1938 36.4937C37.2975 36.9691 38.6784 37.8184 39.0834 38.8816C39.1851 39.1525 39.2193 39.4442 39.183 39.7313C39.1468 40.0185 39.0412 40.2925 38.8753 40.5297L38.4506 40.8109C37.5816 40.9909 35.6128 40.4256 34.4681 40.0966C33.6867 39.8317 32.8813 39.6433 32.0634 39.5341C29.6446 39.4435 27.2232 39.6218 24.8438 40.0656C24.7699 40.0786 24.6993 40.1063 24.6363 40.147C24.5733 40.1877 24.519 40.2406 24.4768 40.3026C24.4345 40.3645 24.405 40.4343 24.3901 40.5079C24.3752 40.5814 24.3752 40.6572 24.39 40.7307C24.4048 40.8042 24.4342 40.8741 24.4764 40.9361C24.5186 40.9981 24.5728 41.0511 24.6358 41.0918C24.6988 41.1326 24.7693 41.1603 24.8432 41.1734C24.917 41.1865 24.9928 41.1847 25.0659 41.1681C27.3552 40.7459 29.6836 40.5743 32.01 40.6562C32.7397 40.7645 33.4586 40.9357 34.1588 41.1681C35.0588 41.4269 35.9672 41.6856 36.7997 41.8347C33.945 43.5672 31.3097 44.875 30.0722 44.875C27.6253 44.875 17.5144 39.97 13.8188 38.0772C13.6866 38.0145 13.5352 38.0057 13.3966 38.0528C13.2581 38.0999 13.1434 38.1991 13.0768 38.3293C13.0102 38.4596 12.997 38.6107 13.0399 38.7505C13.0829 38.8904 13.1786 39.008 13.3069 39.0784C13.8694 39.3597 26.8716 46.0028 30.075 46.0028C31.7119 46.0028 35.2922 44.1297 38.8669 41.8516C39.1989 41.767 39.4948 41.5777 39.7106 41.3116C43.9378 38.53 47.9569 35.335 48.4378 34.1875C48.5685 33.9073 48.6375 33.6023 48.6403 33.2931C48.8987 32.9454 49.0217 32.5155 48.9863 32.0837ZM44.0503 32.1934C45.5719 31.4341 47.1441 31.7744 47.7909 32.1681C47.8091 32.1795 47.826 32.1927 47.8416 32.2075C47.1947 31.9797 46.2019 32.1203 44.8659 32.6322C43.8955 33.0073 42.9753 33.5013 42.1266 34.1031C41.325 34.6262 40.2309 35.3434 38.2341 36.4262C37.9192 36.2462 37.5922 36.0883 37.2553 35.9537C38.0681 35.5769 39.0328 35.11 39.4406 34.8962C39.9413 34.615 40.5263 34.2606 41.1478 33.8753C42.0478 33.3184 43.0659 32.6856 44.0503 32.1934ZM35.6128 34.9103C36.9066 34.1875 39.0413 33.0034 39.6769 33.0034C39.8511 32.9827 40.0277 33.012 40.1859 33.0878C40.1705 33.0717 40.1606 33.0509 40.1578 33.0287C40.1568 33.0203 40.1568 33.0118 40.1578 33.0034L40.3125 33.0653C39.795 33.3859 39.3084 33.6841 38.9063 33.9091C38.2988 34.2381 36.2681 35.1747 35.6634 35.4503L35.4441 35.3969L34.9378 35.2872L35.6128 34.9103ZM47.4028 33.7544C47.0372 34.5981 43.8872 37.1294 40.3153 39.5594C40.3233 39.1887 40.2593 38.82 40.1269 38.4737C39.9283 37.9722 39.6186 37.5222 39.2213 37.1575C40.9706 36.1928 41.9803 35.5319 42.7341 35.0397C43.5178 34.4821 44.3681 34.0248 45.2653 33.6784C46.8431 33.0709 47.4422 33.2144 47.5153 33.2791C47.5286 33.4452 47.4924 33.6116 47.4113 33.7572L47.4028 33.7544Z" fill="white" stroke="white" stroke-width="0.8"/>
<path d="M44.5899 16.106C44.2412 15.5435 42.4721 15.476 39.3334 15.9007C37.9074 16.0947 34.3693 16.6741 32.3612 17.8694C28.5249 20.1194 27.5799 22.4566 29.2196 25.6404C29.0286 25.8889 28.8592 26.1533 28.7134 26.4307C28.0777 24.3072 27.4674 22.5297 27.0034 21.2501C28.1762 20.3782 28.4996 18.7751 27.8471 16.8457C27.5181 15.8557 25.6731 13.4144 25.3159 12.9363C22.9534 9.83693 22.5962 9.93537 22.2474 10.0282C22.1622 10.0529 22.0829 10.0948 22.0145 10.1514C21.9461 10.2079 21.8901 10.2779 21.8497 10.357C21.8094 10.436 21.7857 10.5225 21.7801 10.6111C21.7745 10.6996 21.7871 10.7884 21.8171 10.8719C21.8854 11.4913 21.8929 12.1158 21.8396 12.7366C21.7777 14.3369 21.6934 16.5279 22.374 18.5922C23.0181 20.5413 24.1402 21.2585 24.7534 21.5116C25.0694 21.6454 25.4086 21.7161 25.7518 21.7197C25.8239 21.7235 25.8962 21.7235 25.9684 21.7197C26.4381 22.9966 27.0624 24.8079 27.7037 26.9594C27.8781 27.5388 28.0131 28.0844 28.1171 28.6469C28.118 28.7153 28.1313 28.783 28.1565 28.8466C28.7752 32.1963 28.224 34.5897 28.2127 34.6376C28.1786 34.7811 28.2023 34.9322 28.2785 35.0585C28.3548 35.1847 28.4777 35.276 28.6206 35.3126C28.6635 35.3175 28.707 35.3175 28.7499 35.3126C28.8777 35.3166 29.003 35.277 29.1052 35.2003C29.2075 35.1237 29.2805 35.0144 29.3124 34.8907C29.3434 34.7669 29.9537 32.1907 29.259 28.5513C29.3154 27.8701 29.5364 27.2128 29.9031 26.636C30.5524 27.397 31.4255 27.9335 32.3977 28.1688C32.8384 28.2783 33.2909 28.3331 33.7449 28.3319C35.0202 28.3215 36.2632 27.9297 37.314 27.2069C39.2827 25.8541 40.9196 22.8082 42.2246 20.3613C42.9981 18.9129 43.7996 17.4138 44.2834 17.0988C44.7671 16.7838 44.7193 16.3141 44.5899 16.106ZM25.1837 20.4597C24.7506 20.2797 23.9462 19.751 23.4427 18.2266C22.8268 16.3563 22.9056 14.2891 22.9646 12.7676C22.9646 12.4357 22.9899 12.1291 22.9927 11.8479C24.2499 13.2963 26.4999 16.331 26.7812 17.2001C27.2115 18.4882 27.1327 19.4951 26.5759 20.1166C26.3199 19.4416 26.1652 19.0619 26.1596 19.0535C26.1029 18.9155 25.9937 18.8057 25.8561 18.7482C25.7184 18.6907 25.5636 18.6902 25.4256 18.7469C25.2876 18.8036 25.1777 18.9128 25.1202 19.0505C25.0628 19.1881 25.0623 19.343 25.119 19.481C25.119 19.481 25.2821 19.8747 25.5409 20.5638C25.4182 20.543 25.2984 20.508 25.1837 20.4597ZM41.2149 19.8354C39.9662 22.1754 38.4024 25.0835 36.6615 26.2816C36.0854 26.6855 35.4315 26.9649 34.7415 27.1019C34.0514 27.2389 33.3404 27.2307 32.6537 27.0776C31.8454 26.8791 31.1291 26.4108 30.6231 25.7501C31.1458 25.2525 31.7574 24.8576 32.4259 24.5857C32.5661 24.5346 32.6803 24.4299 32.7433 24.2946C32.8064 24.1593 32.8131 24.0045 32.762 23.8643C32.7109 23.724 32.6062 23.6099 32.4709 23.5468C32.3356 23.4838 32.1808 23.4771 32.0406 23.5282C31.311 23.8207 30.6367 24.2353 30.0465 24.7544C29.0987 22.6901 29.3518 20.9379 32.9349 18.8257C35.3481 17.4054 40.6609 16.7501 42.8602 16.7501H43.0402C42.5312 17.3857 41.9912 18.3954 41.2234 19.8438L41.2149 19.8354Z" fill="white" stroke="white" stroke-width="0.8"/>
</g>
<defs>
<clipPath id="clip0">
<rect width="36" height="45" fill="white" transform="translate(13 10)"/>
</clipPath>
</defs>
</svg>
