<svg width="60" height="98" viewBox="0 0 60 98" fill="none" xmlns="http://www.w3.org/2000/svg">
<path d="M17.3616 74.26C17.8036 74.26 18.0869 74.2883 18.2116 74.345C18.3362 74.3903 18.3986 74.515 18.3986 74.719C18.3986 74.923 17.5259 78.85 15.7806 86.5H14.2506L11.4966 74.26H12.1086C12.6299 74.26 12.9416 74.3053 13.0436 74.396C13.1456 74.4753 13.2532 74.7643 13.3666 75.263L14.9136 83.729H15.1006L16.8856 74.26H17.3616ZM25.1015 84.987V86.5H19.7635V74.26H24.9315V75.705H21.2765L21.4295 76.13V78.731L21.2765 79.156H24.7275V80.669H21.2935L21.4295 81.06V84.562L21.2765 84.987H25.1015ZM28.2515 79.309V81.264C28.2515 82.0573 28.2685 82.59 28.3025 82.862C28.3479 83.134 28.3875 83.406 28.4215 83.678C28.4669 83.95 28.5235 84.154 28.5915 84.29C28.6709 84.426 28.7615 84.5677 28.8635 84.715C28.9655 84.8623 29.0845 84.9643 29.2205 85.021C29.3565 85.0777 29.5152 85.106 29.6965 85.106C29.9685 85.106 30.4445 85.0493 31.1245 84.936L30.9885 84.511V81.247C30.9885 80.6237 31.0282 80.261 31.1075 80.159C31.1982 80.057 31.4985 80.006 32.0085 80.006H32.5695V86.33C32.3769 86.3527 32.0765 86.3923 31.6685 86.449C30.8752 86.5623 30.2632 86.619 29.8325 86.619C29.4019 86.619 29.0505 86.5793 28.7785 86.5C28.5065 86.432 28.2685 86.347 28.0645 86.245C27.8719 86.1317 27.6962 85.9673 27.5375 85.752C27.3902 85.5253 27.2655 85.3213 27.1635 85.14C27.0615 84.9587 26.9765 84.698 26.9085 84.358C26.8405 84.0067 26.7895 83.7177 26.7555 83.491C26.7215 83.2643 26.6932 82.93 26.6705 82.488C26.6479 82.0347 26.6365 81.6833 26.6365 81.434V80.278C26.6365 79.36 26.6422 78.6857 26.6535 78.255C26.6762 77.813 26.7385 77.269 26.8405 76.623C26.9425 75.9657 27.0955 75.4897 27.2995 75.195C27.5035 74.9003 27.8039 74.6397 28.2005 74.413C28.6085 74.175 29.1072 74.056 29.6965 74.056L32.2295 74.6C32.1389 75.246 31.9859 75.6257 31.7705 75.739C31.6685 75.7843 31.5042 75.807 31.2775 75.807C31.0622 75.807 30.7505 75.7673 30.3425 75.688L29.6965 75.569C29.3225 75.569 29.0449 75.6993 28.8635 75.96C28.7615 76.096 28.6709 76.232 28.5915 76.368C28.5235 76.4927 28.4669 76.691 28.4215 76.963C28.3875 77.2237 28.3592 77.4447 28.3365 77.626C28.2799 77.9547 28.2515 78.5157 28.2515 79.309ZM40.2023 86.5C39.6243 86.5 39.2729 86.4547 39.1483 86.364C39.0349 86.2733 38.9273 85.973 38.8253 85.463L38.2473 82.59H36.1053L35.4083 86.5H35.0173C34.4733 86.5 34.1276 86.4717 33.9803 86.415C33.8329 86.347 33.7593 86.1997 33.7593 85.973C33.7593 85.735 34.6206 81.8307 36.3433 74.26H37.9753L40.7633 86.5H40.2023ZM37.0743 77.354L36.4453 80.669L36.3093 80.958H38.0603C38.0489 80.9467 38.0206 80.8957 37.9753 80.805C37.9299 80.703 37.9073 80.6463 37.9073 80.635L37.2443 77.354H37.0743ZM46.1378 82.76V74.26H46.5118C47.1238 74.26 47.4808 74.3053 47.5828 74.396C47.6848 74.4753 47.7358 74.7757 47.7358 75.297V86.5H47.2258C46.6591 86.5 46.3078 86.4603 46.1718 86.381C46.0358 86.2903 45.8885 86.0127 45.7298 85.548L43.5368 78.204H43.4518V85.463C43.4518 85.9843 43.4008 86.2903 43.2988 86.381C43.1968 86.4603 42.8398 86.5 42.2278 86.5H41.8708V74.26H42.2448C42.8001 74.26 43.1401 74.2997 43.2648 74.379C43.3895 74.4583 43.5425 74.736 43.7238 75.212L46.0528 82.76H46.1378Z" fill="#3AAD95"/>
<circle cx="30" cy="30.5" r="29" fill="white" stroke="#3AAD95" stroke-width="2"/>
<g clip-path="url(#clip0)">
<path d="M48.9863 32.5837C48.9572 32.4024 48.8878 32.2299 48.7831 32.079C48.6784 31.9281 48.5412 31.8026 48.3816 31.7118C47.5041 31.169 45.4931 30.7162 43.5469 31.6865C42.7369 32.0915 41.9213 32.5781 41.1619 33.0449C41.1442 33.01 41.1245 32.9762 41.1028 32.9437C40.8469 32.5668 40.3688 32.3812 39.6741 32.3812C38.8134 32.3812 37.2216 33.2249 35.07 34.4315C34.4197 34.8174 33.7483 35.1667 33.0591 35.4777C32.6091 35.4243 32.1703 35.3821 31.6922 35.3371C30.9638 35.2668 30.1341 35.1909 29.0259 35.0559C28.6441 34.9192 28.2797 34.738 27.9403 34.5159C25.4623 33.0368 22.7244 32.045 19.8741 31.5937C15.4472 30.8231 13.5628 31.6949 13.47 31.7315C13.4015 31.7621 13.3398 31.8061 13.2886 31.8609C13.2374 31.9157 13.1976 31.9802 13.1717 32.0506C13.1458 32.121 13.1342 32.1959 13.1376 32.2708C13.141 32.3458 13.1594 32.4193 13.1917 32.487C13.224 32.5547 13.2695 32.6153 13.3255 32.6652C13.3815 32.7151 13.447 32.7532 13.518 32.7775C13.589 32.8017 13.6641 32.8114 13.739 32.8062C13.8138 32.8009 13.8868 32.7807 13.9538 32.7468C13.9706 32.7468 15.6694 32.0015 19.6828 32.6934C22.4044 33.1213 25.0191 34.0654 27.3863 35.4749C28.0444 35.8518 28.4691 36.0937 28.8797 36.1556C30.0047 36.3074 30.8484 36.3862 31.5881 36.4565C32.8017 36.546 34.0068 36.7256 35.1938 36.9937C37.2975 37.469 38.6784 38.3184 39.0834 39.3815C39.1851 39.6525 39.2193 39.9441 39.183 40.2313C39.1468 40.5184 39.0412 40.7924 38.8753 41.0296L38.4506 41.3109C37.5816 41.4909 35.6128 40.9256 34.4681 40.5965C33.6867 40.3316 32.8813 40.1433 32.0634 40.034C29.6446 39.9434 27.2232 40.1217 24.8438 40.5656C24.7699 40.5786 24.6993 40.6063 24.6363 40.6469C24.5733 40.6876 24.519 40.7405 24.4768 40.8025C24.4345 40.8645 24.405 40.9343 24.3901 41.0078C24.3752 41.0813 24.3752 41.1571 24.39 41.2306C24.4048 41.3042 24.4342 41.374 24.4764 41.436C24.5186 41.4981 24.5728 41.551 24.6358 41.5918C24.6988 41.6325 24.7693 41.6603 24.8432 41.6734C24.917 41.6865 24.9928 41.6847 25.0659 41.6681C27.3552 41.2459 29.6836 41.0742 32.01 41.1562C32.7397 41.2644 33.4586 41.4357 34.1588 41.6681C35.0588 41.9268 35.9672 42.1856 36.7997 42.3346C33.945 44.0671 31.3097 45.3749 30.0722 45.3749C27.6253 45.3749 17.5144 40.4699 13.8188 38.5771C13.6866 38.5144 13.5352 38.5057 13.3966 38.5527C13.2581 38.5998 13.1434 38.699 13.0768 38.8293C13.0102 38.9595 12.997 39.1106 13.0399 39.2505C13.0829 39.3903 13.1786 39.5079 13.3069 39.5784C13.8694 39.8596 26.8716 46.5027 30.075 46.5027C31.7119 46.5027 35.2922 44.6296 38.8669 42.3515C39.1989 42.267 39.4948 42.0776 39.7106 41.8115C43.9378 39.0299 47.9569 35.8349 48.4378 34.6874C48.5685 34.4072 48.6375 34.1022 48.6403 33.7931C48.8987 33.4453 49.0217 33.0154 48.9863 32.5837ZM44.0503 32.6934C45.5719 31.934 47.1441 32.2743 47.7909 32.6681C47.8091 32.6795 47.826 32.6927 47.8416 32.7074C47.1947 32.4796 46.2019 32.6202 44.8659 33.1321C43.8955 33.5072 42.9753 34.0013 42.1266 34.6031C41.325 35.1262 40.2309 35.8434 38.2341 36.9262C37.9192 36.7461 37.5922 36.5882 37.2553 36.4537C38.0681 36.0768 39.0328 35.6099 39.4406 35.3962C39.9413 35.1149 40.5263 34.7606 41.1478 34.3752C42.0478 33.8184 43.0659 33.1856 44.0503 32.6934ZM35.6128 35.4102C36.9066 34.6874 39.0413 33.5034 39.6769 33.5034C39.8511 33.4827 40.0277 33.5119 40.1859 33.5877C40.1705 33.5716 40.1606 33.5509 40.1578 33.5287C40.1568 33.5203 40.1568 33.5118 40.1578 33.5034L40.3125 33.5652C39.795 33.8859 39.3084 34.184 38.9063 34.409C38.2988 34.7381 36.2681 35.6746 35.6634 35.9502L35.4441 35.8968L34.9378 35.7871L35.6128 35.4102ZM47.4028 34.2543C47.0372 35.0981 43.8872 37.6293 40.3153 40.0593C40.3233 39.6887 40.2593 39.32 40.1269 38.9737C39.9283 38.4722 39.6186 38.0222 39.2213 37.6574C40.9706 36.6927 41.9803 36.0318 42.7341 35.5396C43.5178 34.9821 44.3681 34.5248 45.2653 34.1784C46.8431 33.5709 47.4422 33.7143 47.5153 33.779C47.5286 33.9452 47.4924 34.1115 47.4113 34.2571L47.4028 34.2543Z" fill="#3AAD95" stroke="#3AAD95" stroke-width="0.8"/>
<path d="M44.5899 16.606C44.2412 16.0435 42.4721 15.976 39.3334 16.4007C37.9074 16.5947 34.3693 17.1741 32.3612 18.3694C28.5249 20.6194 27.5799 22.9566 29.2196 26.1404C29.0286 26.3889 28.8592 26.6533 28.7134 26.9307C28.0777 24.8072 27.4674 23.0297 27.0034 21.7501C28.1762 20.8782 28.4996 19.2751 27.8471 17.3457C27.5181 16.3557 25.6731 13.9144 25.3159 13.4363C22.9534 10.3369 22.5962 10.4354 22.2474 10.5282C22.1622 10.5529 22.0829 10.5948 22.0145 10.6514C21.9461 10.7079 21.8901 10.7779 21.8497 10.857C21.8094 10.936 21.7857 11.0225 21.7801 11.1111C21.7745 11.1996 21.7871 11.2884 21.8171 11.3719C21.8854 11.9913 21.8929 12.6158 21.8396 13.2366C21.7777 14.8369 21.6934 17.0279 22.374 19.0922C23.0181 21.0413 24.1402 21.7585 24.7534 22.0116C25.0694 22.1454 25.4086 22.2161 25.7518 22.2197C25.8239 22.2235 25.8962 22.2235 25.9684 22.2197C26.4381 23.4966 27.0624 25.3079 27.7037 27.4594C27.8781 28.0388 28.0131 28.5844 28.1171 29.1469C28.118 29.2153 28.1313 29.283 28.1565 29.3466C28.7752 32.6963 28.224 35.0897 28.2127 35.1376C28.1786 35.2811 28.2023 35.4322 28.2785 35.5585C28.3548 35.6847 28.4777 35.776 28.6206 35.8126C28.6635 35.8175 28.707 35.8175 28.7499 35.8126C28.8777 35.8166 29.003 35.777 29.1052 35.7003C29.2075 35.6237 29.2805 35.5144 29.3124 35.3907C29.3434 35.2669 29.9537 32.6907 29.259 29.0513C29.3154 28.3701 29.5364 27.7128 29.9031 27.136C30.5524 27.897 31.4255 28.4335 32.3977 28.6688C32.8384 28.7783 33.2909 28.8331 33.7449 28.8319C35.0202 28.8215 36.2632 28.4297 37.314 27.7069C39.2827 26.3541 40.9196 23.3082 42.2246 20.8613C42.9981 19.4129 43.7996 17.9138 44.2834 17.5988C44.7671 17.2838 44.7193 16.8141 44.5899 16.606ZM25.1837 20.9597C24.7506 20.7797 23.9462 20.251 23.4427 18.7266C22.8268 16.8563 22.9056 14.7891 22.9646 13.2676C22.9646 12.9357 22.9899 12.6291 22.9927 12.3479C24.2499 13.7963 26.4999 16.831 26.7812 17.7001C27.2115 18.9882 27.1327 19.9951 26.5759 20.6166C26.3199 19.9416 26.1652 19.5619 26.1596 19.5535C26.1029 19.4155 25.9937 19.3057 25.8561 19.2482C25.7184 19.1907 25.5636 19.1902 25.4256 19.2469C25.2876 19.3036 25.1777 19.4128 25.1202 19.5505C25.0628 19.6881 25.0623 19.843 25.119 19.981C25.119 19.981 25.2821 20.3747 25.5409 21.0638C25.4182 21.043 25.2984 21.008 25.1837 20.9597ZM41.2149 20.3354C39.9662 22.6754 38.4024 25.5835 36.6615 26.7816C36.0854 27.1855 35.4315 27.4649 34.7415 27.6019C34.0514 27.7389 33.3404 27.7307 32.6537 27.5776C31.8454 27.3791 31.1291 26.9108 30.6231 26.2501C31.1458 25.7525 31.7574 25.3576 32.4259 25.0857C32.5661 25.0346 32.6803 24.9299 32.7433 24.7946C32.8064 24.6593 32.8131 24.5045 32.762 24.3643C32.7109 24.224 32.6062 24.1099 32.4709 24.0468C32.3356 23.9838 32.1808 23.9771 32.0406 24.0282C31.311 24.3207 30.6367 24.7353 30.0465 25.2544C29.0987 23.1901 29.3518 21.4379 32.9349 19.3257C35.3481 17.9054 40.6609 17.2501 42.8602 17.2501H43.0402C42.5312 17.8857 41.9912 18.8954 41.2234 20.3438L41.2149 20.3354Z" fill="#3AAD95" stroke="#3AAD95" stroke-width="0.8"/>
</g>
<defs>
<clipPath id="clip0">
<rect width="36" height="45" fill="white" transform="translate(13 10.5)"/>
</clipPath>
</defs>
</svg>
