<svg width="60" height="97" viewBox="0 0 60 97" fill="none" xmlns="http://www.w3.org/2000/svg">
<path d="M16.5718 73.4801C16.9878 73.4801 17.2544 73.5067 17.3718 73.5601C17.4891 73.6027 17.5478 73.7201 17.5478 73.9121C17.5478 74.1041 16.7264 77.8001 15.0838 85.0001H13.6438L11.0518 73.4801H11.6278C12.1184 73.4801 12.4118 73.5227 12.5078 73.6081C12.6038 73.6827 12.7051 73.9547 12.8118 74.4241L14.2678 82.3921H14.4438L16.1238 73.4801H16.5718ZM23.8564 83.5761V85.0001H18.8324V73.4801H23.6964V74.8401H20.2564L20.4004 75.2401V77.6881L20.2564 78.0881H23.5044V79.5121H20.2724L20.4004 79.8801V83.1761L20.2564 83.5761H23.8564ZM26.8211 78.2321V80.0721C26.8211 80.8187 26.8371 81.3201 26.8691 81.5761C26.9118 81.8321 26.9491 82.0881 26.9811 82.3441C27.0238 82.6001 27.0771 82.7921 27.1411 82.9201C27.2158 83.0481 27.3011 83.1814 27.3971 83.3201C27.4931 83.4587 27.6051 83.5547 27.7331 83.6081C27.8611 83.6614 28.0105 83.6881 28.1811 83.6881C28.4371 83.6881 28.8851 83.6347 29.5251 83.5281L29.3971 83.1281V80.0561C29.3971 79.4694 29.4345 79.1281 29.5091 79.0321C29.5945 78.9361 29.8771 78.8881 30.3571 78.8881H30.8851V84.8401C30.7038 84.8614 30.4211 84.8987 30.0371 84.9521C29.2905 85.0587 28.7145 85.1121 28.3091 85.1121C27.9038 85.1121 27.5731 85.0747 27.3171 85.0001C27.0611 84.9361 26.8371 84.8561 26.6451 84.7601C26.4638 84.6534 26.2985 84.4987 26.1491 84.2961C26.0105 84.0827 25.8931 83.8907 25.7971 83.7201C25.7011 83.5494 25.6211 83.3041 25.5571 82.9841C25.4931 82.6534 25.4451 82.3814 25.4131 82.1681C25.3811 81.9547 25.3545 81.6401 25.3331 81.2241C25.3118 80.7974 25.3011 80.4667 25.3011 80.2321V79.1441C25.3011 78.2801 25.3065 77.6454 25.3171 77.2401C25.3385 76.8241 25.3971 76.3121 25.4931 75.7041C25.5891 75.0854 25.7331 74.6374 25.9251 74.3601C26.1171 74.0827 26.3998 73.8374 26.7731 73.6241C27.1571 73.4001 27.6265 73.2881 28.1811 73.2881L30.5651 73.8001C30.4798 74.4081 30.3358 74.7654 30.1331 74.8721C30.0371 74.9147 29.8825 74.9361 29.6691 74.9361C29.4665 74.9361 29.1731 74.8987 28.7891 74.8241L28.1811 74.7121C27.8291 74.7121 27.5678 74.8347 27.3971 75.0801C27.3011 75.2081 27.2158 75.3361 27.1411 75.4641C27.0771 75.5814 27.0238 75.7681 26.9811 76.0241C26.9491 76.2694 26.9225 76.4774 26.9011 76.6481C26.8478 76.9574 26.8211 77.4854 26.8211 78.2321ZM34.1649 78.2321V80.0721C34.1649 80.8187 34.1809 81.3201 34.2129 81.5761C34.2556 81.8321 34.2929 82.0881 34.3249 82.3441C34.3676 82.6001 34.4209 82.7921 34.4849 82.9201C34.5596 83.0481 34.6449 83.1814 34.7409 83.3201C34.8369 83.4587 34.9489 83.5547 35.0769 83.6081C35.2049 83.6614 35.3542 83.6881 35.5249 83.6881C35.7809 83.6881 36.2289 83.6347 36.8689 83.5281L36.7409 83.1281V80.0561C36.7409 79.4694 36.7782 79.1281 36.8529 79.0321C36.9382 78.9361 37.2209 78.8881 37.7009 78.8881H38.2289V84.8401C38.0476 84.8614 37.7649 84.8987 37.3809 84.9521C36.6342 85.0587 36.0582 85.1121 35.6529 85.1121C35.2476 85.1121 34.9169 85.0747 34.6609 85.0001C34.4049 84.9361 34.1809 84.8561 33.9889 84.7601C33.8076 84.6534 33.6422 84.4987 33.4929 84.2961C33.3542 84.0827 33.2369 83.8907 33.1409 83.7201C33.0449 83.5494 32.9649 83.3041 32.9009 82.9841C32.8369 82.6534 32.7889 82.3814 32.7569 82.1681C32.7249 81.9547 32.6982 81.6401 32.6769 81.2241C32.6556 80.7974 32.6449 80.4667 32.6449 80.2321V79.1441C32.6449 78.2801 32.6502 77.6454 32.6609 77.2401C32.6822 76.8241 32.7409 76.3121 32.8369 75.7041C32.9329 75.0854 33.0769 74.6374 33.2689 74.3601C33.4609 74.0827 33.7436 73.8374 34.1169 73.6241C34.5009 73.4001 34.9702 73.2881 35.5249 73.2881L37.9089 73.8001C37.8236 74.4081 37.6796 74.7654 37.4769 74.8721C37.3809 74.9147 37.2262 74.9361 37.0129 74.9361C36.8102 74.9361 36.5169 74.8987 36.1329 74.8241L35.5249 74.7121C35.1729 74.7121 34.9116 74.8347 34.7409 75.0801C34.6449 75.2081 34.5596 75.3361 34.4849 75.4641C34.4209 75.5814 34.3676 75.7681 34.3249 76.0241C34.2929 76.2694 34.2662 76.4774 34.2449 76.6481C34.1916 76.9574 34.1649 77.4854 34.1649 78.2321ZM39.9886 84.0241V73.4801H40.3246C40.9113 73.4801 41.2526 73.5227 41.3486 73.6081C41.4553 73.6827 41.5086 73.9654 41.5086 74.4561V85.0001H41.1406C40.5646 85.0001 40.2286 84.9627 40.1326 84.8881C40.0366 84.8027 39.9886 84.5147 39.9886 84.0241ZM48.4501 83.5761V85.0001H43.4261V73.4801H48.2901V74.8401H44.8501L44.9941 75.2401V77.6881L44.8501 78.0881H48.0981V79.5121H44.8661L44.9941 79.8801V83.1761L44.8501 83.5761H48.4501Z" fill="#3AAD95"/>
<circle cx="30" cy="30" r="30" fill="#3AAD95"/>
<path d="M36.2828 37.8941C36.0582 37.8941 35.8269 37.8613 35.5763 37.7919C33.8624 37.3235 31.9634 37.87 30.7624 39.1704C30.2554 39.7198 29.572 40.0225 28.8374 40.0225C27.3896 40.0225 26.2117 38.8436 26.2117 37.3958C26.2117 37.2859 26.2271 37.1548 26.2512 36.9957C26.4498 35.7204 26.1394 34.4442 25.3769 33.4022C24.625 32.3775 23.4712 31.6787 22.2162 31.4878C21.4614 31.3721 20.8937 30.7109 20.8937 29.9503C20.8937 29.5522 21.0334 29.1975 21.3101 28.8977C22.2586 27.8721 22.7136 26.4869 22.5594 25.0989C22.4061 23.7108 21.66 22.4596 20.5091 21.6644C20.0734 21.3608 19.4719 21.4706 19.1692 21.9083C18.8656 22.3469 18.9745 22.9474 19.4131 23.2501C20.1023 23.7272 20.5515 24.4781 20.6431 25.3109C20.7366 26.1438 20.4628 26.9747 19.8941 27.5906C19.4699 28.0495 18.9658 28.8322 18.9658 29.9503C18.9658 31.6555 20.2372 33.1352 21.9251 33.3935C22.6789 33.5082 23.371 33.9275 23.8221 34.5425C24.279 35.1671 24.466 35.9325 24.3465 36.6988C24.3031 36.9755 24.2838 37.2049 24.2838 37.3958C24.2838 39.9068 26.3264 41.9503 28.8374 41.9503C30.1156 41.9503 31.3022 41.4279 32.1784 40.4784C32.8985 39.6986 34.0397 39.3718 35.0663 39.6514C35.4837 39.767 35.8818 39.822 36.2828 39.822C36.8159 39.822 37.2468 39.3911 37.2468 38.858C37.2468 38.3259 36.8159 37.8941 36.2828 37.8941Z" fill="white"/>
<path d="M35.4296 40.4069C35.0864 40.1515 34.6815 40.0261 34.2796 40.0261C33.7581 40.0261 33.2404 40.2363 32.8626 40.6459C32.0789 41.4942 30.5135 42.9179 28.8276 42.9179C25.8336 42.9179 23.3891 40.5216 23.312 37.5459C23.3293 37.5026 23.3476 37.4582 23.3659 37.4149C23.4672 37.1613 23.5944 36.8461 23.6532 36.4644C23.7313 35.9584 23.605 35.4426 23.3014 35.0291C22.9997 34.6166 22.5437 34.3418 22.0386 34.2638C20.0491 33.9611 17.992 32.2665 17.992 29.954C17.992 28.9197 18.4836 27.7678 19.3097 26.8743C19.6876 26.4636 19.8698 25.9094 19.8081 25.3541C19.7464 24.7999 19.4476 24.2986 18.9887 23.9805C17.6788 23.0764 16.9279 21.7645 16.9279 20.3812C16.9279 17.9251 18.9261 15.9279 21.3822 15.9279C23.0132 15.9279 24.4398 16.4089 25.1058 17.1839C25.4837 17.6253 26.0235 17.8557 26.5681 17.8557C26.9547 17.8557 27.3422 17.7401 27.6776 17.5029C28.255 17.0961 28.711 16.9911 29.8908 16.9911C31.9006 16.9911 33.8188 18.4167 34.3509 20.307C34.4955 20.815 34.8396 21.242 35.3071 21.4888C35.5876 21.6363 35.8961 21.7114 36.2065 21.7114C36.4137 21.7114 36.6219 21.6777 36.8215 21.6102L36.8745 21.5929C37.5704 21.3586 37.9261 21.2459 38.4013 21.2459C41.4435 21.2459 43.9179 23.7212 43.9179 26.7634C43.9179 28.6084 42.7217 29.9964 41.7182 30.8351C41.0753 31.372 40.8526 32.2626 41.1688 33.0386C41.3702 33.5379 41.7905 34.5751 41.7905 35.273C41.7905 36.5579 41.3462 37.7387 40.6068 38.6776C39.3229 36.9647 37.85 35.1486 36.2923 33.3345L39.961 25.998C40.1991 25.5219 40.0063 24.9425 39.5291 24.7045C39.053 24.4654 38.4756 24.6591 38.2365 25.1353L34.9235 31.7624C33.4361 30.0822 31.9044 28.4349 30.4132 26.9032L31.3743 20.8998C31.4591 20.3735 31.1005 19.88 30.5752 19.7952C30.0498 19.7094 29.5563 20.0689 29.4715 20.5943L28.7322 25.2086C27.6342 24.1251 26.5797 23.1294 25.6032 22.2561V19.7836C25.6032 19.2505 25.1724 18.8197 24.6393 18.8197C24.1063 18.8197 23.6754 19.2505 23.6754 19.7836V20.6145C22.6951 19.8279 21.8526 19.2399 21.2145 18.9209C20.7383 18.6828 20.1599 18.8756 19.9218 19.3517C19.6837 19.8279 19.8765 20.4073 20.3527 20.6453C21.1971 21.0675 22.4531 22.0257 23.9433 23.3357C23.9617 23.3549 23.9819 23.3684 24.0021 23.3868C25.5579 24.7584 27.3692 26.5118 29.2498 28.459H23.6754C23.1423 28.459 22.7114 28.8898 22.7114 29.4229C22.7114 29.955 23.1423 30.3868 23.6754 30.3868H30.955C30.9916 30.3868 31.0215 30.3695 31.0572 30.3656C32.0346 31.4173 33.013 32.5027 33.9692 33.5958L28.229 35.2441C27.7171 35.3906 27.4222 35.9246 27.5687 36.4365C27.6902 36.8587 28.0757 37.1343 28.495 37.1343C28.5828 37.1343 28.6724 37.1218 28.762 37.0958L35.3534 35.2036C36.7309 36.8317 38.0264 38.4453 39.1619 39.9654C38.3204 40.485 37.3324 40.7905 36.273 40.7905C36.1621 40.7896 35.7891 40.6739 35.4296 40.4069ZM41.7742 40.2787C42.9791 38.9562 43.7184 37.2028 43.7184 35.273C43.7184 34.283 43.3039 33.1774 42.954 32.3147C44.5879 30.9488 45.8458 29.0595 45.8458 26.7634C45.8458 22.6513 42.5125 19.318 38.4013 19.318C37.5704 19.318 36.9535 19.532 36.2065 19.7836C35.4508 17.1029 32.8144 15.0632 29.8908 15.0632C28.524 15.0632 27.6063 15.1953 26.5672 15.9279C25.397 14.5649 23.3197 14 21.3822 14C17.8581 14 15 16.8571 15 20.3812C15 22.5597 16.2271 24.4153 17.8918 25.5672C16.843 26.7046 16.0642 28.2845 16.0642 29.954C16.0642 33.1495 18.6832 35.7029 21.7475 36.1704C21.6906 36.5444 21.3822 37.01 21.3822 37.3994C21.3822 41.5116 24.7155 44.8458 28.8276 44.8458C30.9916 44.8458 32.9185 43.4269 34.2786 41.954C34.8126 42.3502 35.5876 42.7184 36.273 42.7184C37.7575 42.7184 39.1349 42.2788 40.2955 41.5318C41.0069 42.5459 41.6267 43.5001 42.1173 44.36C42.2956 44.6713 42.6195 44.8458 42.9549 44.8458C43.1169 44.8458 43.2817 44.8053 43.4321 44.7186C43.8948 44.4535 44.0558 43.8655 43.7907 43.4028C43.247 42.4514 42.5617 41.3969 41.7742 40.2787Z" fill="white"/>
</svg>
