<svg width="60" height="98" viewBox="0 0 60 98" fill="none" xmlns="http://www.w3.org/2000/svg">
<path d="M15.7429 74.26C16.1849 74.26 16.4683 74.2883 16.5929 74.345C16.7176 74.3903 16.7799 74.515 16.7799 74.719C16.7799 74.923 15.9073 78.85 14.1619 86.5H12.6319L9.87792 74.26H10.4899C11.0113 74.26 11.3229 74.3053 11.4249 74.396C11.5269 74.4753 11.6346 74.7643 11.7479 75.263L13.2949 83.729H13.4819L15.2669 74.26H15.7429ZM23.4828 84.987V86.5H18.1448V74.26H23.3128V75.705H19.6578L19.8108 76.13V78.731L19.6578 79.156H23.1088V80.669H19.6748L19.8108 81.06V84.562L19.6578 84.987H23.4828ZM26.6329 79.309V81.264C26.6329 82.0573 26.6499 82.59 26.6839 82.862C26.7292 83.134 26.7689 83.406 26.8029 83.678C26.8482 83.95 26.9049 84.154 26.9729 84.29C27.0522 84.426 27.1429 84.5677 27.2449 84.715C27.3469 84.8623 27.4659 84.9643 27.6019 85.021C27.7379 85.0777 27.8965 85.106 28.0779 85.106C28.3499 85.106 28.8259 85.0493 29.5059 84.936L29.3699 84.511V81.247C29.3699 80.6237 29.4095 80.261 29.4889 80.159C29.5795 80.057 29.8799 80.006 30.3899 80.006H30.9509V86.33C30.7582 86.3527 30.4579 86.3923 30.0499 86.449C29.2565 86.5623 28.6445 86.619 28.2139 86.619C27.7832 86.619 27.4319 86.5793 27.1599 86.5C26.8879 86.432 26.6499 86.347 26.4459 86.245C26.2532 86.1317 26.0775 85.9673 25.9189 85.752C25.7715 85.5253 25.6469 85.3213 25.5449 85.14C25.4429 84.9587 25.3579 84.698 25.2899 84.358C25.2219 84.0067 25.1709 83.7177 25.1369 83.491C25.1029 83.2643 25.0745 82.93 25.0519 82.488C25.0292 82.0347 25.0179 81.6833 25.0179 81.434V80.278C25.0179 79.36 25.0235 78.6857 25.0349 78.255C25.0575 77.813 25.1199 77.269 25.2219 76.623C25.3239 75.9657 25.4769 75.4897 25.6809 75.195C25.8849 74.9003 26.1852 74.6397 26.5819 74.413C26.9899 74.175 27.4885 74.056 28.0779 74.056L30.6109 74.6C30.5202 75.246 30.3672 75.6257 30.1519 75.739C30.0499 75.7843 29.8855 75.807 29.6589 75.807C29.4435 75.807 29.1319 75.7673 28.7239 75.688L28.0779 75.569C27.7039 75.569 27.4262 75.6993 27.2449 75.96C27.1429 76.096 27.0522 76.232 26.9729 76.368C26.9049 76.4927 26.8482 76.691 26.8029 76.963C26.7689 77.2237 26.7405 77.4447 26.7179 77.626C26.6612 77.9547 26.6329 78.5157 26.6329 79.309ZM34.4356 79.309V81.264C34.4356 82.0573 34.4526 82.59 34.4866 82.862C34.532 83.134 34.5716 83.406 34.6056 83.678C34.651 83.95 34.7076 84.154 34.7756 84.29C34.855 84.426 34.9456 84.5677 35.0476 84.715C35.1496 84.8623 35.2686 84.9643 35.4046 85.021C35.5406 85.0777 35.6993 85.106 35.8806 85.106C36.1526 85.106 36.6286 85.0493 37.3086 84.936L37.1726 84.511V81.247C37.1726 80.6237 37.2123 80.261 37.2916 80.159C37.3823 80.057 37.6826 80.006 38.1926 80.006H38.7536V86.33C38.561 86.3527 38.2606 86.3923 37.8526 86.449C37.0593 86.5623 36.4473 86.619 36.0166 86.619C35.586 86.619 35.2346 86.5793 34.9626 86.5C34.6906 86.432 34.4526 86.347 34.2486 86.245C34.056 86.1317 33.8803 85.9673 33.7216 85.752C33.5743 85.5253 33.4496 85.3213 33.3476 85.14C33.2456 84.9587 33.1606 84.698 33.0926 84.358C33.0246 84.0067 32.9736 83.7177 32.9396 83.491C32.9056 83.2643 32.8773 82.93 32.8546 82.488C32.832 82.0347 32.8206 81.6833 32.8206 81.434V80.278C32.8206 79.36 32.8263 78.6857 32.8376 78.255C32.8603 77.813 32.9226 77.269 33.0246 76.623C33.1266 75.9657 33.2796 75.4897 33.4836 75.195C33.6876 74.9003 33.988 74.6397 34.3846 74.413C34.7926 74.175 35.2913 74.056 35.8806 74.056L38.4136 74.6C38.323 75.246 38.17 75.6257 37.9546 75.739C37.8526 75.7843 37.6883 75.807 37.4616 75.807C37.2463 75.807 36.9346 75.7673 36.5266 75.688L35.8806 75.569C35.5066 75.569 35.229 75.6993 35.0476 75.96C34.9456 76.096 34.855 76.232 34.7756 76.368C34.7076 76.4927 34.651 76.691 34.6056 76.963C34.5716 77.2237 34.5433 77.4447 34.5206 77.626C34.464 77.9547 34.4356 78.5157 34.4356 79.309ZM40.6234 85.463V74.26H40.9804C41.6037 74.26 41.9664 74.3053 42.0684 74.396C42.1817 74.4753 42.2384 74.7757 42.2384 75.297V86.5H41.8474C41.2354 86.5 40.8784 86.4603 40.7764 86.381C40.6744 86.2903 40.6234 85.9843 40.6234 85.463ZM49.6137 84.987V86.5H44.2757V74.26H49.4437V75.705H45.7887L45.9417 76.13V78.731L45.7887 79.156H49.2397V80.669H45.8057L45.9417 81.06V84.562L45.7887 84.987H49.6137Z" fill="#3AAD95"/>
<circle cx="30" cy="30.5" r="29" fill="white" stroke="#3AAD95" stroke-width="2"/>
<path d="M36.2828 38.3936C36.0582 38.3936 35.8269 38.3608 35.5763 38.2914C33.8624 37.823 31.9634 38.3695 30.7624 39.6699C30.2554 40.2193 29.572 40.522 28.8374 40.522C27.3896 40.522 26.2117 39.3431 26.2117 37.8953C26.2117 37.7854 26.2271 37.6543 26.2512 37.4952C26.4498 36.22 26.1394 34.9437 25.3769 33.9017C24.625 32.877 23.4712 32.1782 22.2162 31.9873C21.4614 31.8717 20.8937 31.2104 20.8937 30.4499C20.8937 30.0518 21.0334 29.697 21.3101 29.3972C22.2586 28.3716 22.7136 26.9865 22.5594 25.5984C22.4061 24.2103 21.66 22.9592 20.5091 22.1639C20.0734 21.8603 19.4719 21.9702 19.1692 22.4078C18.8656 22.8464 18.9745 23.4469 19.4131 23.7496C20.1023 24.2267 20.5515 24.9776 20.6431 25.8105C20.7366 26.6433 20.4628 27.4742 19.8941 28.0902C19.4699 28.549 18.9658 29.3317 18.9658 30.4499C18.9658 32.1551 20.2372 33.6347 21.9251 33.893C22.6789 34.0077 23.371 34.427 23.8221 35.042C24.279 35.6667 24.466 36.432 24.3465 37.1983C24.3031 37.475 24.2838 37.7044 24.2838 37.8953C24.2838 40.4063 26.3264 42.4498 28.8374 42.4498C30.1156 42.4498 31.3022 41.9274 32.1784 40.9779C32.8985 40.1981 34.0397 39.8713 35.0663 40.1509C35.4837 40.2665 35.8818 40.3215 36.2828 40.3215C36.8159 40.3215 37.2468 39.8906 37.2468 39.3575C37.2468 38.8255 36.8159 38.3936 36.2828 38.3936Z" fill="#3AAD95"/>
<path d="M35.4296 40.9069C35.0864 40.6515 34.6815 40.5261 34.2796 40.5261C33.7581 40.5261 33.2404 40.7363 32.8626 41.1459C32.0789 41.9942 30.5135 43.4179 28.8276 43.4179C25.8336 43.4179 23.3891 41.0216 23.312 38.0459C23.3293 38.0026 23.3476 37.9582 23.3659 37.9149C23.4672 37.6613 23.5944 37.3461 23.6532 36.9644C23.7313 36.4584 23.605 35.9426 23.3014 35.5291C22.9997 35.1166 22.5437 34.8418 22.0386 34.7638C20.0491 34.4611 17.992 32.7665 17.992 30.454C17.992 29.4197 18.4836 28.2678 19.3097 27.3743C19.6876 26.9636 19.8698 26.4094 19.8081 25.8541C19.7464 25.2999 19.4476 24.7986 18.9887 24.4805C17.6788 23.5764 16.9279 22.2645 16.9279 20.8812C16.9279 18.4251 18.9261 16.4279 21.3822 16.4279C23.0132 16.4279 24.4398 16.9089 25.1058 17.6839C25.4837 18.1253 26.0235 18.3557 26.5681 18.3557C26.9547 18.3557 27.3422 18.2401 27.6776 18.0029C28.255 17.5961 28.711 17.4911 29.8908 17.4911C31.9006 17.4911 33.8188 18.9167 34.3509 20.807C34.4955 21.315 34.8396 21.742 35.3071 21.9888C35.5876 22.1363 35.8961 22.2114 36.2065 22.2114C36.4137 22.2114 36.6219 22.1777 36.8215 22.1102L36.8745 22.0929C37.5704 21.8586 37.9261 21.7459 38.4013 21.7459C41.4435 21.7459 43.9179 24.2212 43.9179 27.2634C43.9179 29.1084 42.7217 30.4964 41.7182 31.3351C41.0753 31.872 40.8526 32.7626 41.1688 33.5386C41.3702 34.0379 41.7905 35.0751 41.7905 35.773C41.7905 37.0579 41.3462 38.2387 40.6068 39.1776C39.3229 37.4647 37.85 35.6486 36.2923 33.8345L39.961 26.498C40.1991 26.0219 40.0063 25.4425 39.5291 25.2045C39.053 24.9654 38.4756 25.1591 38.2365 25.6353L34.9235 32.2624C33.4361 30.5822 31.9044 28.9349 30.4132 27.4032L31.3743 21.3998C31.4591 20.8735 31.1005 20.38 30.5752 20.2952C30.0498 20.2094 29.5563 20.5689 29.4715 21.0943L28.7322 25.7086C27.6342 24.6251 26.5797 23.6294 25.6032 22.7561V20.2836C25.6032 19.7505 25.1724 19.3197 24.6393 19.3197C24.1063 19.3197 23.6754 19.7505 23.6754 20.2836V21.1145C22.6951 20.3279 21.8526 19.7399 21.2145 19.4209C20.7383 19.1828 20.1599 19.3756 19.9218 19.8517C19.6837 20.3279 19.8765 20.9073 20.3527 21.1453C21.1971 21.5675 22.4531 22.5257 23.9433 23.8357C23.9617 23.8549 23.9819 23.8684 24.0021 23.8868C25.5579 25.2584 27.3692 27.0118 29.2498 28.959H23.6754C23.1423 28.959 22.7114 29.3898 22.7114 29.9229C22.7114 30.455 23.1423 30.8868 23.6754 30.8868H30.955C30.9916 30.8868 31.0215 30.8695 31.0572 30.8656C32.0346 31.9173 33.013 33.0027 33.9692 34.0958L28.229 35.7441C27.7171 35.8906 27.4222 36.4246 27.5687 36.9365C27.6902 37.3587 28.0757 37.6343 28.495 37.6343C28.5828 37.6343 28.6724 37.6218 28.762 37.5958L35.3534 35.7036C36.7309 37.3317 38.0264 38.9453 39.1619 40.4654C38.3204 40.985 37.3324 41.2905 36.273 41.2905C36.1621 41.2896 35.7891 41.1739 35.4296 40.9069ZM41.7742 40.7787C42.9791 39.4562 43.7184 37.7028 43.7184 35.773C43.7184 34.783 43.3039 33.6774 42.954 32.8147C44.5879 31.4488 45.8458 29.5595 45.8458 27.2634C45.8458 23.1513 42.5125 19.818 38.4013 19.818C37.5704 19.818 36.9535 20.032 36.2065 20.2836C35.4508 17.6029 32.8144 15.5632 29.8908 15.5632C28.524 15.5632 27.6063 15.6953 26.5672 16.4279C25.397 15.0649 23.3197 14.5 21.3822 14.5C17.8581 14.5 15 17.3571 15 20.8812C15 23.0597 16.2271 24.9153 17.8918 26.0672C16.843 27.2046 16.0642 28.7845 16.0642 30.454C16.0642 33.6495 18.6832 36.2029 21.7475 36.6704C21.6906 37.0444 21.3822 37.51 21.3822 37.8994C21.3822 42.0116 24.7155 45.3458 28.8276 45.3458C30.9916 45.3458 32.9185 43.9269 34.2786 42.454C34.8126 42.8502 35.5876 43.2184 36.273 43.2184C37.7575 43.2184 39.1349 42.7788 40.2955 42.0318C41.0069 43.0459 41.6267 44.0001 42.1173 44.86C42.2956 45.1713 42.6195 45.3458 42.9549 45.3458C43.1169 45.3458 43.2817 45.3053 43.4321 45.2186C43.8948 44.9535 44.0558 44.3655 43.7907 43.9028C43.247 42.9514 42.5617 41.8969 41.7742 40.7787Z" fill="#3AAD95"/>
</svg>
