<svg width="60" height="98" viewBox="0 0 60 98" fill="none" xmlns="http://www.w3.org/2000/svg">
<path d="M21.1716 74.26C21.6136 74.26 21.897 74.2883 22.0216 74.345C22.1463 74.3903 22.2086 74.515 22.2086 74.719C22.2086 74.923 21.336 78.85 19.5906 86.5H18.0606L15.3066 74.26H15.9186C16.44 74.26 16.7516 74.3053 16.8536 74.396C16.9556 74.4753 17.0633 74.7643 17.1766 75.263L18.7236 83.729H18.9106L20.6956 74.26H21.1716ZM23.9815 86.5H23.5735V74.243L26.0045 74.056C27.0245 74.056 27.7272 74.2033 28.1125 74.498C28.2599 74.6113 28.3845 74.7133 28.4865 74.804C28.5885 74.8947 28.6735 75.0307 28.7415 75.212L28.8775 75.688C28.9569 75.9033 28.9965 76.1867 28.9965 76.538V77.524C28.9965 79.156 28.7642 80.176 28.2995 80.584C28.0955 80.7653 27.8292 80.873 27.5005 80.907L30.2035 86.5H29.6425C29.0759 86.5 28.6905 86.449 28.4865 86.347C28.2825 86.2337 28.0955 85.9843 27.9255 85.599L25.8345 80.958H25.0355L25.1885 81.383L25.2055 85.463C25.2055 85.9843 25.1545 86.2903 25.0525 86.381C24.9505 86.4603 24.5935 86.5 23.9815 86.5ZM26.0385 79.445C26.6505 79.445 27.0189 79.3203 27.1435 79.071C27.2795 78.8217 27.3475 78.4137 27.3475 77.847C27.3475 77.2803 27.3419 76.9233 27.3305 76.776C27.3305 76.6173 27.3079 76.4417 27.2625 76.249C27.2172 76.045 27.1492 75.909 27.0585 75.841C26.8205 75.6597 26.4805 75.569 26.0385 75.569H25.0355L25.1885 75.994V79.054L25.0525 79.445H26.0385ZM36.9567 86.5C36.3787 86.5 36.0273 86.4547 35.9027 86.364C35.7893 86.2733 35.6817 85.973 35.5797 85.463L35.0017 82.59H32.8597L32.1627 86.5H31.7717C31.2277 86.5 30.882 86.4717 30.7347 86.415C30.5873 86.347 30.5137 86.1997 30.5137 85.973C30.5137 85.735 31.375 81.8307 33.0977 74.26H34.7297L37.5177 86.5H36.9567ZM33.8287 77.354L33.1997 80.669L33.0637 80.958H34.8147C34.8033 80.9467 34.775 80.8957 34.7297 80.805C34.6843 80.703 34.6617 80.6463 34.6617 80.635L33.9987 77.354H33.8287ZM40.3932 78.442C40.3819 78.8387 40.3762 79.4507 40.3762 80.278C40.3762 81.1053 40.3819 81.7173 40.3932 82.114C40.4159 82.5107 40.4669 82.964 40.5462 83.474C40.6255 83.9727 40.7615 84.324 40.9542 84.528C41.1469 84.732 41.4075 84.834 41.7362 84.834C42.0649 84.834 42.5125 84.8113 43.0792 84.766C43.6459 84.7093 44.0142 84.6753 44.1842 84.664V86.313C44.0822 86.3243 43.7422 86.381 43.1642 86.483C42.5975 86.5737 42.1442 86.619 41.8042 86.619C41.4642 86.619 41.1582 86.5793 40.8862 86.5C40.6142 86.432 40.3762 86.347 40.1722 86.245C39.9682 86.1317 39.7869 85.9673 39.6282 85.752C39.4695 85.5253 39.3392 85.3213 39.2372 85.14C39.1352 84.9587 39.0502 84.698 38.9822 84.358C38.9142 84.0067 38.8632 83.7177 38.8292 83.491C38.7952 83.2643 38.7669 82.93 38.7442 82.488C38.7215 82.0347 38.7102 81.6833 38.7102 81.434V79.139C38.7102 78.323 38.7385 77.728 38.7952 77.354C38.8519 76.9687 38.9142 76.606 38.9822 76.266C39.0502 75.926 39.1352 75.671 39.2372 75.501C39.3392 75.3197 39.4695 75.1213 39.6282 74.906C39.7869 74.6907 39.9682 74.532 40.1722 74.43C40.6709 74.1807 41.2149 74.056 41.8042 74.056L44.1672 74.6C44.0765 75.2573 43.9065 75.6653 43.6572 75.824C43.5212 75.9033 43.3285 75.943 43.0792 75.943C42.8299 75.943 42.5352 75.909 42.1952 75.841L41.7192 75.722C41.4019 75.722 41.1469 75.824 40.9542 76.028C40.7615 76.232 40.6255 76.589 40.5462 77.099C40.4669 77.5977 40.4159 78.0453 40.3932 78.442Z" fill="#3AAD95"/>
<circle cx="30" cy="30.5" r="29" fill="white" stroke="#3AAD95" stroke-width="2"/>
<path d="M38.8922 37.8496C35.6377 37.8496 32.6785 36.8618 29.2983 34.6468C25.5287 32.1764 22.1731 28.8489 20.0931 25.5188C20.0905 25.5154 20.088 25.5129 20.0863 25.5095C20.0846 25.5069 20.0821 25.5052 20.0804 25.5019C19.9785 25.3398 19.8741 25.1989 19.7723 25.0656C19.5126 24.7245 19.3819 24.5531 19.3913 23.8877C19.393 23.7502 19.5941 23.5118 19.7375 23.3981C24.2718 30.7872 31.7008 36.109 38.787 36.995C38.8226 36.9984 38.8583 37.0009 38.8931 37.0009C39.3157 37.0009 39.6806 36.687 39.7349 36.2576C39.7926 35.7933 39.4625 35.369 38.9974 35.3105C32.4357 34.4898 25.5253 29.5244 21.2473 22.6105C21.613 22.1132 22.0246 21.6609 22.4888 21.268C23.177 22.5961 24.293 24.1211 25.7187 24.9952C25.8579 25.0801 26.0107 25.12 26.1617 25.12C26.4469 25.12 26.7269 24.9757 26.8865 24.716C27.1317 24.3163 27.007 23.7935 26.6073 23.5483C25.4726 22.8524 24.4933 21.5132 23.9043 20.3132C24.7649 19.855 25.7323 19.5393 26.7846 19.3653C28.2002 21.4292 29.934 23.7239 32.5758 25.0325C32.6971 25.0919 32.8253 25.12 32.9509 25.12C33.264 25.12 33.5644 24.9468 33.713 24.6481C33.9209 24.2289 33.7486 23.7188 33.3285 23.5109C31.5039 22.6071 30.1656 21.1772 28.7408 19.1973C33.4151 19.2126 38.7098 22.1327 41.0613 25.9966C41.5493 26.7986 42.0101 27.811 42.207 28.9584C41.1038 28.439 40.2407 27.8365 39.5007 27.0744C39.1748 26.74 38.6368 26.7307 38.3007 27.0583C37.9655 27.3842 37.9579 27.9213 38.2846 28.2582C39.3259 29.3301 40.6133 30.1465 42.2647 30.8211C42.1909 31.4865 42.0084 32.1798 41.6851 32.8901C39.6348 32.2044 37.4487 30.9323 36.0917 29.6059C35.7565 29.2783 35.2184 29.2851 34.8917 29.6186C34.5633 29.9547 34.5701 30.4919 34.9044 30.8186C36.4023 32.2834 38.6877 33.642 40.9179 34.4253C40.7881 34.8454 40.8789 35.1747 41.164 35.7569C41.2472 35.9266 41.3541 36.1447 41.4848 36.4366C41.4373 36.8049 40.6226 37.8496 38.8922 37.8496ZM31.2222 42.0937C26.9662 42.249 21.8617 39.2719 19.6552 35.3011C19.2623 34.5925 18.9067 33.7456 18.7013 32.7976C19.9904 34.5849 21.4577 35.924 23.205 36.894C23.3349 36.967 23.4766 37.0009 23.6158 37.0009C23.9145 37.0009 24.2039 36.844 24.3584 36.5648C24.5866 36.1549 24.439 35.638 24.0291 35.4106C21.865 34.2081 20.1661 32.3377 18.7005 29.5643C18.8413 28.9185 19.0773 28.2498 19.4235 27.5632C21.6376 30.6998 24.8294 33.7464 28.3682 36.0657C31.616 38.1958 34.5319 39.2779 37.6557 39.5002C36.7299 40.281 35.8295 40.8725 34.8968 41.2849C34.8892 41.2832 34.8841 41.2773 34.8764 41.2756L34.7704 41.2459C33.1562 40.7969 30.4542 40.0459 29.2966 38.935C28.9589 38.6117 28.4217 38.621 28.0966 38.9596C27.7724 39.2974 27.7835 39.8346 28.1212 40.1596C28.9784 40.9819 30.3074 41.5904 31.6397 42.0606C31.4997 42.0707 31.3648 42.0886 31.2222 42.0937ZM42.6882 35.0109C42.6483 34.9286 42.6144 34.8624 42.5872 34.8064C42.605 34.775 42.6254 34.7419 42.6474 34.7045C42.7467 34.5356 42.8791 34.3116 43.0421 33.9942C44.4822 31.1954 44.2938 28.041 42.5108 25.114C39.8317 20.7121 34.0346 17.5102 28.728 17.5H28.7026C24.8845 17.5 21.7539 18.9698 19.8207 21.6558C19.5101 21.6711 19.1901 21.7729 18.8838 21.9596C18.2999 22.3143 17.7059 23.0399 17.694 23.8631C17.677 25.0275 18.0334 25.5765 18.3508 26C17.7585 26.9759 17.3418 27.9841 17.0965 29.0084C16.909 29.2248 16.8564 29.5244 16.9404 29.8062C16.623 31.9125 17.0278 34.0655 18.1709 36.1252C20.5972 40.4906 26.1235 43.7969 30.9031 43.7969C31.0312 43.7969 31.1594 43.7943 31.2875 43.7893C34.4131 43.6721 36.8606 42.5884 39.4693 40.1698C39.6679 39.9848 39.7442 39.7293 39.7247 39.479C41.0274 39.2855 42.1315 38.6473 42.762 37.6782C43.1889 37.0222 43.2984 36.3407 43.0633 35.8086C42.9088 35.4607 42.7841 35.2061 42.6882 35.0109Z" fill="#3AAD95"/>
</svg>
