<svg width="60" height="97" viewBox="0 0 60 97" fill="none" xmlns="http://www.w3.org/2000/svg">
<path d="M21.1716 73.76C21.6136 73.76 21.897 73.7883 22.0216 73.845C22.1463 73.8903 22.2086 74.015 22.2086 74.219C22.2086 74.423 21.336 78.35 19.5906 86H18.0606L15.3066 73.76H15.9186C16.44 73.76 16.7516 73.8053 16.8536 73.896C16.9556 73.9753 17.0633 74.2643 17.1766 74.763L18.7236 83.229H18.9106L20.6956 73.76H21.1716ZM23.9815 86H23.5735V73.743L26.0045 73.556C27.0245 73.556 27.7272 73.7033 28.1125 73.998C28.2599 74.1113 28.3845 74.2133 28.4865 74.304C28.5885 74.3947 28.6735 74.5307 28.7415 74.712L28.8775 75.188C28.9569 75.4033 28.9965 75.6867 28.9965 76.038V77.024C28.9965 78.656 28.7642 79.676 28.2995 80.084C28.0955 80.2653 27.8292 80.373 27.5005 80.407L30.2035 86H29.6425C29.0759 86 28.6905 85.949 28.4865 85.847C28.2825 85.7337 28.0955 85.4843 27.9255 85.099L25.8345 80.458H25.0355L25.1885 80.883L25.2055 84.963C25.2055 85.4843 25.1545 85.7903 25.0525 85.881C24.9505 85.9603 24.5935 86 23.9815 86ZM26.0385 78.945C26.6505 78.945 27.0189 78.8203 27.1435 78.571C27.2795 78.3217 27.3475 77.9137 27.3475 77.347C27.3475 76.7803 27.3419 76.4233 27.3305 76.276C27.3305 76.1173 27.3079 75.9417 27.2625 75.749C27.2172 75.545 27.1492 75.409 27.0585 75.341C26.8205 75.1597 26.4805 75.069 26.0385 75.069H25.0355L25.1885 75.494V78.554L25.0525 78.945H26.0385ZM36.9567 86C36.3787 86 36.0273 85.9547 35.9027 85.864C35.7893 85.7733 35.6817 85.473 35.5797 84.963L35.0017 82.09H32.8597L32.1627 86H31.7717C31.2277 86 30.882 85.9717 30.7347 85.915C30.5873 85.847 30.5137 85.6997 30.5137 85.473C30.5137 85.235 31.375 81.3307 33.0977 73.76H34.7297L37.5177 86H36.9567ZM33.8287 76.854L33.1997 80.169L33.0637 80.458H34.8147C34.8033 80.4467 34.775 80.3957 34.7297 80.305C34.6843 80.203 34.6617 80.1463 34.6617 80.135L33.9987 76.854H33.8287ZM40.3932 77.942C40.3819 78.3387 40.3762 78.9507 40.3762 79.778C40.3762 80.6053 40.3819 81.2173 40.3932 81.614C40.4159 82.0107 40.4669 82.464 40.5462 82.974C40.6255 83.4727 40.7615 83.824 40.9542 84.028C41.1469 84.232 41.4075 84.334 41.7362 84.334C42.0649 84.334 42.5125 84.3113 43.0792 84.266C43.6459 84.2093 44.0142 84.1753 44.1842 84.164V85.813C44.0822 85.8243 43.7422 85.881 43.1642 85.983C42.5975 86.0737 42.1442 86.119 41.8042 86.119C41.4642 86.119 41.1582 86.0793 40.8862 86C40.6142 85.932 40.3762 85.847 40.1722 85.745C39.9682 85.6317 39.7869 85.4673 39.6282 85.252C39.4695 85.0253 39.3392 84.8213 39.2372 84.64C39.1352 84.4587 39.0502 84.198 38.9822 83.858C38.9142 83.5067 38.8632 83.2177 38.8292 82.991C38.7952 82.7643 38.7669 82.43 38.7442 81.988C38.7215 81.5347 38.7102 81.1833 38.7102 80.934V78.639C38.7102 77.823 38.7385 77.228 38.7952 76.854C38.8519 76.4687 38.9142 76.106 38.9822 75.766C39.0502 75.426 39.1352 75.171 39.2372 75.001C39.3392 74.8197 39.4695 74.6213 39.6282 74.406C39.7869 74.1907 39.9682 74.032 40.1722 73.93C40.6709 73.6807 41.2149 73.556 41.8042 73.556L44.1672 74.1C44.0765 74.7573 43.9065 75.1653 43.6572 75.324C43.5212 75.4033 43.3285 75.443 43.0792 75.443C42.8299 75.443 42.5352 75.409 42.1952 75.341L41.7192 75.222C41.4019 75.222 41.1469 75.324 40.9542 75.528C40.7615 75.732 40.6255 76.089 40.5462 76.599C40.4669 77.0977 40.4159 77.5453 40.3932 77.942Z" fill="#3AAD95"/>
<circle cx="30" cy="30" r="29" fill="#3AAD95" stroke="#3AAD95" stroke-width="2"/>
<path d="M38.8922 37.3496C35.6377 37.3496 32.6785 36.3618 29.2983 34.1468C25.5287 31.6764 22.1731 28.3489 20.0931 25.0188C20.0905 25.0154 20.088 25.0129 20.0863 25.0095C20.0846 25.0069 20.0821 25.0052 20.0804 25.0019C19.9785 24.8398 19.8741 24.6989 19.7723 24.5656C19.5126 24.2245 19.3819 24.0531 19.3913 23.3877C19.393 23.2502 19.5941 23.0118 19.7375 22.8981C24.2718 30.2872 31.7008 35.609 38.787 36.495C38.8226 36.4984 38.8583 36.5009 38.8931 36.5009C39.3157 36.5009 39.6806 36.187 39.7349 35.7576C39.7926 35.2933 39.4625 34.869 38.9974 34.8105C32.4357 33.9898 25.5253 29.0244 21.2473 22.1105C21.613 21.6132 22.0246 21.1609 22.4888 20.768C23.177 22.0961 24.293 23.6211 25.7187 24.4952C25.8579 24.5801 26.0107 24.62 26.1617 24.62C26.4469 24.62 26.7269 24.4757 26.8865 24.216C27.1317 23.8163 27.007 23.2935 26.6073 23.0483C25.4726 22.3524 24.4933 21.0132 23.9043 19.8132C24.7649 19.355 25.7323 19.0393 26.7846 18.8653C28.2002 20.9292 29.934 23.2239 32.5758 24.5325C32.6971 24.5919 32.8253 24.62 32.9509 24.62C33.264 24.62 33.5644 24.4468 33.713 24.1481C33.9209 23.7289 33.7486 23.2188 33.3285 23.0109C31.5039 22.1071 30.1656 20.6772 28.7408 18.6973C33.4151 18.7126 38.7098 21.6327 41.0613 25.4966C41.5493 26.2986 42.0101 27.311 42.207 28.4584C41.1038 27.939 40.2407 27.3365 39.5007 26.5744C39.1748 26.24 38.6368 26.2307 38.3007 26.5583C37.9655 26.8842 37.9579 27.4213 38.2846 27.7582C39.3259 28.8301 40.6133 29.6465 42.2647 30.3211C42.1909 30.9865 42.0084 31.6798 41.6851 32.3901C39.6348 31.7044 37.4487 30.4323 36.0917 29.1059C35.7565 28.7783 35.2184 28.7851 34.8917 29.1186C34.5633 29.4547 34.5701 29.9919 34.9044 30.3186C36.4023 31.7834 38.6877 33.142 40.9179 33.9253C40.7881 34.3454 40.8789 34.6747 41.164 35.2569C41.2472 35.4266 41.3541 35.6447 41.4848 35.9366C41.4373 36.3049 40.6226 37.3496 38.8922 37.3496ZM31.2222 41.5937C26.9662 41.749 21.8617 38.7719 19.6552 34.8011C19.2623 34.0925 18.9067 33.2456 18.7013 32.2976C19.9904 34.0849 21.4577 35.424 23.205 36.394C23.3349 36.467 23.4766 36.5009 23.6158 36.5009C23.9145 36.5009 24.2039 36.344 24.3584 36.0648C24.5866 35.6549 24.439 35.138 24.0291 34.9106C21.865 33.7081 20.1661 31.8377 18.7005 29.0643C18.8413 28.4185 19.0773 27.7498 19.4235 27.0632C21.6376 30.1998 24.8294 33.2464 28.3682 35.5657C31.616 37.6958 34.5319 38.7779 37.6557 39.0002C36.7299 39.781 35.8295 40.3725 34.8968 40.7849C34.8892 40.7832 34.8841 40.7773 34.8764 40.7756L34.7704 40.7459C33.1562 40.2969 30.4542 39.5459 29.2966 38.435C28.9589 38.1117 28.4217 38.121 28.0966 38.4596C27.7724 38.7974 27.7835 39.3346 28.1212 39.6596C28.9784 40.4819 30.3074 41.0904 31.6397 41.5606C31.4997 41.5707 31.3648 41.5886 31.2222 41.5937ZM42.6882 34.5109C42.6483 34.4286 42.6144 34.3624 42.5872 34.3064C42.605 34.275 42.6254 34.2419 42.6474 34.2045C42.7467 34.0356 42.8791 33.8116 43.0421 33.4942C44.4822 30.6954 44.2938 27.541 42.5108 24.614C39.8317 20.2121 34.0346 17.0102 28.728 17H28.7026C24.8845 17 21.7539 18.4698 19.8207 21.1558C19.5101 21.1711 19.1901 21.2729 18.8838 21.4596C18.2999 21.8143 17.7059 22.5399 17.694 23.3631C17.677 24.5275 18.0334 25.0765 18.3508 25.5C17.7585 26.4759 17.3418 27.4841 17.0965 28.5084C16.909 28.7248 16.8564 29.0244 16.9404 29.3062C16.623 31.4125 17.0278 33.5655 18.1709 35.6252C20.5972 39.9906 26.1235 43.2969 30.9031 43.2969C31.0312 43.2969 31.1594 43.2943 31.2875 43.2893C34.4131 43.1721 36.8606 42.0884 39.4693 39.6698C39.6679 39.4848 39.7442 39.2293 39.7247 38.979C41.0274 38.7855 42.1315 38.1473 42.762 37.1782C43.1889 36.5222 43.2984 35.8407 43.0633 35.3086C42.9088 34.9607 42.7841 34.7061 42.6882 34.5109Z" fill="white"/>
</svg>
