<svg width="19" height="19" viewBox="0 0 19 19" fill="none" xmlns="http://www.w3.org/2000/svg">
<path d="M0 9.19128V9.16441C0.238494 6.04712 1.35146 3.70915 3.28591 2.23113C5.19386 0.726227 7.26081 0.000650271 9.51325 0.000650271C11.8717 -0.0262229 14.0711 0.779973 16.0321 2.39236C18.0195 3.97788 19 6.34273 19 9.40627V9.59438C19 12.6848 18.0195 14.9959 16.0321 16.5814C14.0446 18.1938 11.8452 19 9.48675 19H9.38075C7.07531 18.9731 4.95537 18.1669 2.99442 16.5545C1.03347 14.969 0.0264993 12.5236 0 9.19128ZM8.93027 4.97219V0.726227H8.29428C8.16179 0.887466 8.05579 1.07558 7.94979 1.23682C7.84379 1.39806 7.7378 1.5593 7.6318 1.74741C7.5258 1.90865 7.39331 2.12363 7.31381 2.28487C7.20781 2.44611 7.12831 2.60735 7.04881 2.79546C6.88982 3.0642 6.75732 3.33293 6.65133 3.57479C6.51883 3.81664 6.41283 4.0585 6.33333 4.27349C6.49233 4.38098 6.67782 4.51535 6.88982 4.59597C7.12831 4.67659 7.36681 4.75721 7.6053 4.81095C7.87029 4.8647 8.10879 4.89157 8.32078 4.91845C8.55927 4.94532 8.77127 4.97219 8.93027 4.97219ZM10.0432 0.726227V4.94532C10.1757 4.94532 10.3347 4.97219 10.4937 4.94532C10.6527 4.94532 10.8382 4.91845 10.9972 4.89157C11.2887 4.83783 11.6332 4.75721 11.8982 4.67659C12.1897 4.56909 12.4547 4.43473 12.6402 4.27349C12.3222 3.49417 11.9777 2.87608 11.6332 2.28487C11.2887 1.69366 10.8912 1.18307 10.4672 0.7531V0.726227H10.0432ZM7.18131 0.968085V0.941212C6.99582 1.02183 6.81032 1.1562 6.59833 1.23682C6.41283 1.31744 6.17434 1.42493 5.98884 1.53242C5.61785 1.72053 5.24686 1.93552 4.87587 2.17738C4.53138 2.41924 4.18689 2.68797 3.8954 2.9567C4.00139 3.0642 4.13389 3.17169 4.23989 3.25231C4.34589 3.33293 4.47838 3.44042 4.61088 3.54791C4.71688 3.60166 4.84937 3.68228 4.98187 3.78977C5.11437 3.87039 5.27336 3.97788 5.43236 4.08538C5.64435 3.60166 5.85635 3.09107 6.12134 2.63422C6.38633 2.15051 6.67782 1.69366 6.96932 1.29056C6.99582 1.23682 7.02232 1.18307 7.07531 1.12932C7.10181 1.10245 7.12831 1.02183 7.18131 0.968085ZM15.2901 2.9567V2.92983C14.6276 2.41924 14.0446 1.98927 13.4616 1.72054C12.8787 1.4518 12.2957 1.18307 11.7657 0.968085C12.1897 1.39806 12.5607 1.93552 12.7992 2.44611C13.0642 2.98358 13.3292 3.54791 13.5411 4.08538C13.6471 4.03163 13.7796 3.97788 13.9386 3.87039C14.0711 3.78977 14.2566 3.70915 14.4156 3.62853C14.5746 3.52104 14.7071 3.41355 14.8661 3.30605C15.0251 3.17169 15.1841 3.0642 15.2901 2.9567ZM14.8396 8.94943H17.887C17.887 7.95512 17.675 7.01456 17.2775 6.04712C16.9066 5.10656 16.3766 4.32724 15.7141 3.65541V3.62853C15.5816 3.84352 15.3961 4.03163 15.2106 4.166C14.9986 4.30036 14.8131 4.40785 14.6011 4.51535C14.4686 4.59597 14.3361 4.70346 14.2036 4.75721C14.0711 4.83783 13.8856 4.89157 13.7531 4.97219C13.8591 5.18718 13.9651 5.42904 14.0711 5.64402C14.1506 5.88588 14.2831 6.15461 14.3361 6.39647C14.4951 6.82644 14.6011 7.28329 14.7071 7.74013C14.7866 8.14323 14.8396 8.5732 14.8396 8.94943ZM5.24686 4.97219V4.94532C5.03487 4.83783 4.79637 4.75721 4.61088 4.64971C4.42538 4.51535 4.23989 4.38098 4.08089 4.27349C3.9219 4.19287 3.7629 4.08538 3.6304 3.97788C3.49791 3.87039 3.39191 3.7629 3.28591 3.65541C2.59693 4.32724 2.09344 5.07969 1.77545 5.9665C1.43096 6.85332 1.19247 7.84762 1.08647 8.92255H4.34589C4.34589 8.1701 4.45188 7.44453 4.63738 6.71895C4.79637 5.9665 5.03487 5.40216 5.24686 4.97219ZM8.93027 8.92255V5.83213C8.71827 5.85901 8.45328 5.85901 8.21478 5.83213C7.94979 5.80526 7.6848 5.72464 7.4463 5.64402C7.23431 5.59028 6.96932 5.53653 6.75732 5.45591C6.51883 5.40216 6.28033 5.29467 6.09484 5.18718C5.93584 5.45591 5.80335 5.77839 5.69735 6.12774C5.56485 6.45022 5.48536 6.79957 5.40586 7.12205C5.35286 7.44453 5.32636 7.79388 5.29986 8.08948C5.27336 8.38509 5.24686 8.68069 5.24686 8.92255H8.93027ZM10.0432 5.88588V8.92255H13.9651C13.9651 8.76131 13.9651 8.5732 13.9386 8.35822C13.8856 8.1701 13.8591 7.92824 13.8326 7.71326C13.7531 7.39078 13.6736 7.04143 13.5676 6.71895C13.4616 6.42334 13.3556 6.12774 13.2232 5.88588C13.1702 5.75152 13.1172 5.59028 13.0642 5.48278C12.9847 5.34842 12.9052 5.2678 12.8522 5.18718C12.5607 5.40216 12.1632 5.53653 11.6862 5.64402C11.2357 5.75151 10.7057 5.85901 10.2287 5.88588H10.0432ZM4.34589 9.80937H1.08647C1.08647 10.2662 1.16597 10.7768 1.29847 11.3949C1.43096 12.0398 1.69596 12.6311 1.98745 13.276C2.11994 13.5985 2.27894 13.921 2.43794 14.2434C2.62343 14.5391 2.83543 14.8615 3.04742 15.1571C3.20642 15.0496 3.36541 14.969 3.49791 14.8884C3.6569 14.8078 3.8424 14.7003 4.00139 14.6197C4.18689 14.539 4.37239 14.4584 4.58438 14.3509C4.76987 14.2703 5.00837 14.1628 5.24686 14.0553C5.03487 13.3835 4.79637 12.7385 4.63738 12.013C4.45188 11.3143 4.34589 10.6156 4.34589 9.83624V9.80937ZM8.93027 12.9535V9.80937H5.24686C5.24686 10.0244 5.27336 10.3468 5.32636 10.6693C5.35286 10.9918 5.43236 11.3411 5.48536 11.6905C5.59135 12.0667 5.67085 12.4429 5.77685 12.7654C5.88285 13.0879 5.98884 13.3566 6.09484 13.5985C6.57183 13.4104 7.04881 13.276 7.36681 13.1954C7.7113 13.0879 8.02929 13.0073 8.34728 12.9804H8.63877C8.74477 12.9535 8.85077 12.9535 8.93027 12.9535ZM10.0432 9.80937V12.9267C10.2287 12.9535 10.4407 12.9804 10.6527 13.0073C10.8912 13.0342 11.1827 13.0879 11.4212 13.1416L11.8187 13.2223C11.9512 13.276 12.1102 13.3029 12.2427 13.3298C12.4017 13.3835 12.5607 13.4104 12.7197 13.4641C12.8522 13.5179 12.9847 13.5447 13.0907 13.5985C13.4351 12.7117 13.6471 11.9861 13.7796 11.368C13.9121 10.7768 13.9651 10.2662 13.9651 9.83624V9.80937H10.0432ZM17.887 9.83624V9.80937H14.8396V9.97061C14.8131 10.4812 14.7336 11.0724 14.6276 11.6905C14.5216 12.2817 14.2831 12.9804 13.9651 13.8403C14.3891 14.0553 14.7866 14.2703 15.1046 14.4853C15.4226 14.7003 15.7141 14.9421 15.9261 15.1571C16.3766 14.7003 16.7741 14.0822 17.1186 13.276C17.463 12.4967 17.7015 11.6905 17.834 10.8305C17.8605 10.6693 17.8605 10.5081 17.887 10.3468V9.83624ZM8.93027 18.0057V13.8135C8.26778 13.921 7.7113 14.0553 7.28731 14.1628C6.86332 14.2703 6.54533 14.3778 6.33333 14.4853C6.49233 14.8884 6.65133 15.2378 6.81032 15.5602C6.96932 15.8558 7.15481 16.1783 7.31381 16.447C7.36681 16.5545 7.4728 16.662 7.5523 16.7964C7.6318 16.9039 7.6848 17.0383 7.7643 17.1458C7.84379 17.2801 7.92329 17.4414 8.00279 17.6026C8.10879 17.737 8.18828 17.8982 8.29428 18.0057H8.93027ZM10.0432 18.0057H10.6527C10.8912 17.8176 11.1297 17.5488 11.3152 17.2532C11.5272 16.9576 11.7657 16.6083 11.9247 16.3127C12.1102 15.9633 12.2957 15.6409 12.4547 15.3184C12.6137 14.9959 12.7462 14.7003 12.8522 14.4853C12.5607 14.3778 12.1632 14.2703 11.7657 14.1628C11.3682 14.0553 10.8117 13.9478 10.0432 13.8403V18.0057ZM15.2901 15.8021V15.7752C15.2371 15.6946 15.1311 15.5871 15.0516 15.5065C14.9721 15.4259 14.8396 15.3184 14.7071 15.2378C14.6011 15.1571 14.4686 15.0765 14.3096 14.9959C14.1506 14.9153 13.9386 14.8078 13.7531 14.7003C13.6471 14.9153 13.4616 15.2915 13.1967 15.8021C12.9582 16.3127 12.5342 16.9308 12.0042 17.6026C12.6667 17.4951 13.2497 17.2532 13.7796 16.9308C14.3626 16.6352 14.8661 16.2321 15.2901 15.8021ZM5.43236 14.9421V14.9153C5.24686 15.0228 4.95537 15.1571 4.66388 15.2915C4.34589 15.4259 4.00139 15.5871 3.6834 15.8021C3.8689 15.9633 4.05439 16.1246 4.21339 16.2321C4.37239 16.3664 4.55788 16.4739 4.71688 16.5814C5.00837 16.7695 5.35286 16.9576 5.69735 17.1189C6.04184 17.2801 6.46583 17.4414 6.99582 17.6026C6.81032 17.3876 6.67782 17.1189 6.54533 16.9039C6.41283 16.6889 6.25384 16.4739 6.12134 16.2589C5.98884 16.0439 5.88285 15.8021 5.77685 15.5871C5.64435 15.3721 5.53835 15.1571 5.43236 14.9421Z" fill="#1C9DC6"/>
</svg>
